%TF.GenerationSoftware,KiCad,Pcbnew,8.0.1*%
%TF.CreationDate,2024-05-22T11:23:19+02:00*%
%TF.ProjectId,Master,4d617374-6572-42e6-9b69-6361645f7063,rev?*%
%TF.SameCoordinates,Original*%
%TF.FileFunction,Legend,Top*%
%TF.FilePolarity,Positive*%
%FSLAX46Y46*%
G04 Gerber Fmt 4.6, Leading zero omitted, Abs format (unit mm)*
G04 Created by KiCad (PCBNEW 8.0.1) date 2024-05-22 11:23:19*
%MOMM*%
%LPD*%
G01*
G04 APERTURE LIST*
%ADD10C,0.150000*%
%ADD11C,0.250000*%
%ADD12C,0.300000*%
%ADD13C,0.120000*%
G04 APERTURE END LIST*
D10*
X202127309Y-114360548D02*
X202032071Y-114312929D01*
X202032071Y-114312929D02*
X201889214Y-114312929D01*
X201889214Y-114312929D02*
X201746357Y-114360548D01*
X201746357Y-114360548D02*
X201651119Y-114455786D01*
X201651119Y-114455786D02*
X201603500Y-114551024D01*
X201603500Y-114551024D02*
X201555881Y-114741500D01*
X201555881Y-114741500D02*
X201555881Y-114884357D01*
X201555881Y-114884357D02*
X201603500Y-115074833D01*
X201603500Y-115074833D02*
X201651119Y-115170071D01*
X201651119Y-115170071D02*
X201746357Y-115265310D01*
X201746357Y-115265310D02*
X201889214Y-115312929D01*
X201889214Y-115312929D02*
X201984452Y-115312929D01*
X201984452Y-115312929D02*
X202127309Y-115265310D01*
X202127309Y-115265310D02*
X202174928Y-115217690D01*
X202174928Y-115217690D02*
X202174928Y-114884357D01*
X202174928Y-114884357D02*
X201984452Y-114884357D01*
X202603500Y-115312929D02*
X202603500Y-114312929D01*
X202603500Y-114312929D02*
X203174928Y-115312929D01*
X203174928Y-115312929D02*
X203174928Y-114312929D01*
X203651119Y-115312929D02*
X203651119Y-114312929D01*
X203651119Y-114312929D02*
X203889214Y-114312929D01*
X203889214Y-114312929D02*
X204032071Y-114360548D01*
X204032071Y-114360548D02*
X204127309Y-114455786D01*
X204127309Y-114455786D02*
X204174928Y-114551024D01*
X204174928Y-114551024D02*
X204222547Y-114741500D01*
X204222547Y-114741500D02*
X204222547Y-114884357D01*
X204222547Y-114884357D02*
X204174928Y-115074833D01*
X204174928Y-115074833D02*
X204127309Y-115170071D01*
X204127309Y-115170071D02*
X204032071Y-115265310D01*
X204032071Y-115265310D02*
X203889214Y-115312929D01*
X203889214Y-115312929D02*
X203651119Y-115312929D01*
X201761048Y-72008940D02*
X201903905Y-72056559D01*
X201903905Y-72056559D02*
X202142000Y-72056559D01*
X202142000Y-72056559D02*
X202237238Y-72008940D01*
X202237238Y-72008940D02*
X202284857Y-71961320D01*
X202284857Y-71961320D02*
X202332476Y-71866082D01*
X202332476Y-71866082D02*
X202332476Y-71770844D01*
X202332476Y-71770844D02*
X202284857Y-71675606D01*
X202284857Y-71675606D02*
X202237238Y-71627987D01*
X202237238Y-71627987D02*
X202142000Y-71580368D01*
X202142000Y-71580368D02*
X201951524Y-71532749D01*
X201951524Y-71532749D02*
X201856286Y-71485130D01*
X201856286Y-71485130D02*
X201808667Y-71437511D01*
X201808667Y-71437511D02*
X201761048Y-71342273D01*
X201761048Y-71342273D02*
X201761048Y-71247035D01*
X201761048Y-71247035D02*
X201808667Y-71151797D01*
X201808667Y-71151797D02*
X201856286Y-71104178D01*
X201856286Y-71104178D02*
X201951524Y-71056559D01*
X201951524Y-71056559D02*
X202189619Y-71056559D01*
X202189619Y-71056559D02*
X202332476Y-71104178D01*
X203332476Y-71961320D02*
X203284857Y-72008940D01*
X203284857Y-72008940D02*
X203142000Y-72056559D01*
X203142000Y-72056559D02*
X203046762Y-72056559D01*
X203046762Y-72056559D02*
X202903905Y-72008940D01*
X202903905Y-72008940D02*
X202808667Y-71913701D01*
X202808667Y-71913701D02*
X202761048Y-71818463D01*
X202761048Y-71818463D02*
X202713429Y-71627987D01*
X202713429Y-71627987D02*
X202713429Y-71485130D01*
X202713429Y-71485130D02*
X202761048Y-71294654D01*
X202761048Y-71294654D02*
X202808667Y-71199416D01*
X202808667Y-71199416D02*
X202903905Y-71104178D01*
X202903905Y-71104178D02*
X203046762Y-71056559D01*
X203046762Y-71056559D02*
X203142000Y-71056559D01*
X203142000Y-71056559D02*
X203284857Y-71104178D01*
X203284857Y-71104178D02*
X203332476Y-71151797D01*
X203761048Y-72056559D02*
X203761048Y-71056559D01*
X204332476Y-72056559D02*
X203903905Y-71485130D01*
X204332476Y-71056559D02*
X203761048Y-71627987D01*
X201286779Y-86738866D02*
X202048684Y-86738866D01*
X201667731Y-87119819D02*
X201667731Y-86357914D01*
X202429636Y-86119819D02*
X203048683Y-86119819D01*
X203048683Y-86119819D02*
X202715350Y-86500771D01*
X202715350Y-86500771D02*
X202858207Y-86500771D01*
X202858207Y-86500771D02*
X202953445Y-86548390D01*
X202953445Y-86548390D02*
X203001064Y-86596009D01*
X203001064Y-86596009D02*
X203048683Y-86691247D01*
X203048683Y-86691247D02*
X203048683Y-86929342D01*
X203048683Y-86929342D02*
X203001064Y-87024580D01*
X203001064Y-87024580D02*
X202953445Y-87072200D01*
X202953445Y-87072200D02*
X202858207Y-87119819D01*
X202858207Y-87119819D02*
X202572493Y-87119819D01*
X202572493Y-87119819D02*
X202477255Y-87072200D01*
X202477255Y-87072200D02*
X202429636Y-87024580D01*
X203477255Y-87024580D02*
X203524874Y-87072200D01*
X203524874Y-87072200D02*
X203477255Y-87119819D01*
X203477255Y-87119819D02*
X203429636Y-87072200D01*
X203429636Y-87072200D02*
X203477255Y-87024580D01*
X203477255Y-87024580D02*
X203477255Y-87119819D01*
X203858207Y-86119819D02*
X204477254Y-86119819D01*
X204477254Y-86119819D02*
X204143921Y-86500771D01*
X204143921Y-86500771D02*
X204286778Y-86500771D01*
X204286778Y-86500771D02*
X204382016Y-86548390D01*
X204382016Y-86548390D02*
X204429635Y-86596009D01*
X204429635Y-86596009D02*
X204477254Y-86691247D01*
X204477254Y-86691247D02*
X204477254Y-86929342D01*
X204477254Y-86929342D02*
X204429635Y-87024580D01*
X204429635Y-87024580D02*
X204382016Y-87072200D01*
X204382016Y-87072200D02*
X204286778Y-87119819D01*
X204286778Y-87119819D02*
X204001064Y-87119819D01*
X204001064Y-87119819D02*
X203905826Y-87072200D01*
X203905826Y-87072200D02*
X203858207Y-87024580D01*
X204762969Y-86119819D02*
X205096302Y-87119819D01*
X205096302Y-87119819D02*
X205429635Y-86119819D01*
X155918572Y-148181237D02*
X155870953Y-148276475D01*
X155870953Y-148276475D02*
X155870953Y-148419332D01*
X155870953Y-148419332D02*
X155918572Y-148562189D01*
X155918572Y-148562189D02*
X156013810Y-148657427D01*
X156013810Y-148657427D02*
X156109048Y-148705046D01*
X156109048Y-148705046D02*
X156299524Y-148752665D01*
X156299524Y-148752665D02*
X156442381Y-148752665D01*
X156442381Y-148752665D02*
X156632857Y-148705046D01*
X156632857Y-148705046D02*
X156728095Y-148657427D01*
X156728095Y-148657427D02*
X156823334Y-148562189D01*
X156823334Y-148562189D02*
X156870953Y-148419332D01*
X156870953Y-148419332D02*
X156870953Y-148324094D01*
X156870953Y-148324094D02*
X156823334Y-148181237D01*
X156823334Y-148181237D02*
X156775714Y-148133618D01*
X156775714Y-148133618D02*
X156442381Y-148133618D01*
X156442381Y-148133618D02*
X156442381Y-148324094D01*
X156870953Y-147705046D02*
X155870953Y-147705046D01*
X155870953Y-147705046D02*
X156870953Y-147133618D01*
X156870953Y-147133618D02*
X155870953Y-147133618D01*
X156870953Y-146657427D02*
X155870953Y-146657427D01*
X155870953Y-146657427D02*
X155870953Y-146419332D01*
X155870953Y-146419332D02*
X155918572Y-146276475D01*
X155918572Y-146276475D02*
X156013810Y-146181237D01*
X156013810Y-146181237D02*
X156109048Y-146133618D01*
X156109048Y-146133618D02*
X156299524Y-146085999D01*
X156299524Y-146085999D02*
X156442381Y-146085999D01*
X156442381Y-146085999D02*
X156632857Y-146133618D01*
X156632857Y-146133618D02*
X156728095Y-146181237D01*
X156728095Y-146181237D02*
X156823334Y-146276475D01*
X156823334Y-146276475D02*
X156870953Y-146419332D01*
X156870953Y-146419332D02*
X156870953Y-146657427D01*
X110846009Y-136163220D02*
X110846009Y-135829887D01*
X111369819Y-135687030D02*
X111369819Y-136163220D01*
X111369819Y-136163220D02*
X110369819Y-136163220D01*
X110369819Y-136163220D02*
X110369819Y-135687030D01*
X110703152Y-135401315D02*
X110703152Y-135020363D01*
X110369819Y-135258458D02*
X111226961Y-135258458D01*
X111226961Y-135258458D02*
X111322200Y-135210839D01*
X111322200Y-135210839D02*
X111369819Y-135115601D01*
X111369819Y-135115601D02*
X111369819Y-135020363D01*
X111369819Y-134687029D02*
X110369819Y-134687029D01*
X111369819Y-134258458D02*
X110846009Y-134258458D01*
X110846009Y-134258458D02*
X110750771Y-134306077D01*
X110750771Y-134306077D02*
X110703152Y-134401315D01*
X110703152Y-134401315D02*
X110703152Y-134544172D01*
X110703152Y-134544172D02*
X110750771Y-134639410D01*
X110750771Y-134639410D02*
X110798390Y-134687029D01*
X111369819Y-132544172D02*
X111369819Y-133020362D01*
X111369819Y-133020362D02*
X110369819Y-133020362D01*
X111322200Y-131829886D02*
X111369819Y-131925124D01*
X111369819Y-131925124D02*
X111369819Y-132115600D01*
X111369819Y-132115600D02*
X111322200Y-132210838D01*
X111322200Y-132210838D02*
X111226961Y-132258457D01*
X111226961Y-132258457D02*
X110846009Y-132258457D01*
X110846009Y-132258457D02*
X110750771Y-132210838D01*
X110750771Y-132210838D02*
X110703152Y-132115600D01*
X110703152Y-132115600D02*
X110703152Y-131925124D01*
X110703152Y-131925124D02*
X110750771Y-131829886D01*
X110750771Y-131829886D02*
X110846009Y-131782267D01*
X110846009Y-131782267D02*
X110941247Y-131782267D01*
X110941247Y-131782267D02*
X111036485Y-132258457D01*
X111369819Y-130925124D02*
X110369819Y-130925124D01*
X111322200Y-130925124D02*
X111369819Y-131020362D01*
X111369819Y-131020362D02*
X111369819Y-131210838D01*
X111369819Y-131210838D02*
X111322200Y-131306076D01*
X111322200Y-131306076D02*
X111274580Y-131353695D01*
X111274580Y-131353695D02*
X111179342Y-131401314D01*
X111179342Y-131401314D02*
X110893628Y-131401314D01*
X110893628Y-131401314D02*
X110798390Y-131353695D01*
X110798390Y-131353695D02*
X110750771Y-131306076D01*
X110750771Y-131306076D02*
X110703152Y-131210838D01*
X110703152Y-131210838D02*
X110703152Y-131020362D01*
X110703152Y-131020362D02*
X110750771Y-130925124D01*
X202030500Y-127660336D02*
X202030500Y-126660336D01*
X202506690Y-127660336D02*
X202506690Y-126660336D01*
X202506690Y-126660336D02*
X203078118Y-127660336D01*
X203078118Y-127660336D02*
X203078118Y-126660336D01*
X203411452Y-126660336D02*
X203982880Y-126660336D01*
X203697166Y-127660336D02*
X203697166Y-126660336D01*
X202411550Y-83597872D02*
X202316312Y-83550253D01*
X202316312Y-83550253D02*
X202173455Y-83550253D01*
X202173455Y-83550253D02*
X202030598Y-83597872D01*
X202030598Y-83597872D02*
X201935360Y-83693110D01*
X201935360Y-83693110D02*
X201887741Y-83788348D01*
X201887741Y-83788348D02*
X201840122Y-83978824D01*
X201840122Y-83978824D02*
X201840122Y-84121681D01*
X201840122Y-84121681D02*
X201887741Y-84312157D01*
X201887741Y-84312157D02*
X201935360Y-84407395D01*
X201935360Y-84407395D02*
X202030598Y-84502634D01*
X202030598Y-84502634D02*
X202173455Y-84550253D01*
X202173455Y-84550253D02*
X202268693Y-84550253D01*
X202268693Y-84550253D02*
X202411550Y-84502634D01*
X202411550Y-84502634D02*
X202459169Y-84455014D01*
X202459169Y-84455014D02*
X202459169Y-84121681D01*
X202459169Y-84121681D02*
X202268693Y-84121681D01*
X202887741Y-84550253D02*
X202887741Y-83550253D01*
X202887741Y-83550253D02*
X203459169Y-84550253D01*
X203459169Y-84550253D02*
X203459169Y-83550253D01*
X203935360Y-84550253D02*
X203935360Y-83550253D01*
X203935360Y-83550253D02*
X204173455Y-83550253D01*
X204173455Y-83550253D02*
X204316312Y-83597872D01*
X204316312Y-83597872D02*
X204411550Y-83693110D01*
X204411550Y-83693110D02*
X204459169Y-83788348D01*
X204459169Y-83788348D02*
X204506788Y-83978824D01*
X204506788Y-83978824D02*
X204506788Y-84121681D01*
X204506788Y-84121681D02*
X204459169Y-84312157D01*
X204459169Y-84312157D02*
X204411550Y-84407395D01*
X204411550Y-84407395D02*
X204316312Y-84502634D01*
X204316312Y-84502634D02*
X204173455Y-84550253D01*
X204173455Y-84550253D02*
X203935360Y-84550253D01*
X201804964Y-125299802D02*
X201947821Y-125347421D01*
X201947821Y-125347421D02*
X202185916Y-125347421D01*
X202185916Y-125347421D02*
X202281154Y-125299802D01*
X202281154Y-125299802D02*
X202328773Y-125252182D01*
X202328773Y-125252182D02*
X202376392Y-125156944D01*
X202376392Y-125156944D02*
X202376392Y-125061706D01*
X202376392Y-125061706D02*
X202328773Y-124966468D01*
X202328773Y-124966468D02*
X202281154Y-124918849D01*
X202281154Y-124918849D02*
X202185916Y-124871230D01*
X202185916Y-124871230D02*
X201995440Y-124823611D01*
X201995440Y-124823611D02*
X201900202Y-124775992D01*
X201900202Y-124775992D02*
X201852583Y-124728373D01*
X201852583Y-124728373D02*
X201804964Y-124633135D01*
X201804964Y-124633135D02*
X201804964Y-124537897D01*
X201804964Y-124537897D02*
X201852583Y-124442659D01*
X201852583Y-124442659D02*
X201900202Y-124395040D01*
X201900202Y-124395040D02*
X201995440Y-124347421D01*
X201995440Y-124347421D02*
X202233535Y-124347421D01*
X202233535Y-124347421D02*
X202376392Y-124395040D01*
X203376392Y-125252182D02*
X203328773Y-125299802D01*
X203328773Y-125299802D02*
X203185916Y-125347421D01*
X203185916Y-125347421D02*
X203090678Y-125347421D01*
X203090678Y-125347421D02*
X202947821Y-125299802D01*
X202947821Y-125299802D02*
X202852583Y-125204563D01*
X202852583Y-125204563D02*
X202804964Y-125109325D01*
X202804964Y-125109325D02*
X202757345Y-124918849D01*
X202757345Y-124918849D02*
X202757345Y-124775992D01*
X202757345Y-124775992D02*
X202804964Y-124585516D01*
X202804964Y-124585516D02*
X202852583Y-124490278D01*
X202852583Y-124490278D02*
X202947821Y-124395040D01*
X202947821Y-124395040D02*
X203090678Y-124347421D01*
X203090678Y-124347421D02*
X203185916Y-124347421D01*
X203185916Y-124347421D02*
X203328773Y-124395040D01*
X203328773Y-124395040D02*
X203376392Y-124442659D01*
X203804964Y-125347421D02*
X203804964Y-124347421D01*
X204376392Y-125347421D02*
X203947821Y-124775992D01*
X204376392Y-124347421D02*
X203804964Y-124918849D01*
X202474984Y-81893366D02*
X202141651Y-81417175D01*
X201903556Y-81893366D02*
X201903556Y-80893366D01*
X201903556Y-80893366D02*
X202284508Y-80893366D01*
X202284508Y-80893366D02*
X202379746Y-80940985D01*
X202379746Y-80940985D02*
X202427365Y-80988604D01*
X202427365Y-80988604D02*
X202474984Y-81083842D01*
X202474984Y-81083842D02*
X202474984Y-81226699D01*
X202474984Y-81226699D02*
X202427365Y-81321937D01*
X202427365Y-81321937D02*
X202379746Y-81369556D01*
X202379746Y-81369556D02*
X202284508Y-81417175D01*
X202284508Y-81417175D02*
X201903556Y-81417175D01*
X202855937Y-81845747D02*
X202998794Y-81893366D01*
X202998794Y-81893366D02*
X203236889Y-81893366D01*
X203236889Y-81893366D02*
X203332127Y-81845747D01*
X203332127Y-81845747D02*
X203379746Y-81798127D01*
X203379746Y-81798127D02*
X203427365Y-81702889D01*
X203427365Y-81702889D02*
X203427365Y-81607651D01*
X203427365Y-81607651D02*
X203379746Y-81512413D01*
X203379746Y-81512413D02*
X203332127Y-81464794D01*
X203332127Y-81464794D02*
X203236889Y-81417175D01*
X203236889Y-81417175D02*
X203046413Y-81369556D01*
X203046413Y-81369556D02*
X202951175Y-81321937D01*
X202951175Y-81321937D02*
X202903556Y-81274318D01*
X202903556Y-81274318D02*
X202855937Y-81179080D01*
X202855937Y-81179080D02*
X202855937Y-81083842D01*
X202855937Y-81083842D02*
X202903556Y-80988604D01*
X202903556Y-80988604D02*
X202951175Y-80940985D01*
X202951175Y-80940985D02*
X203046413Y-80893366D01*
X203046413Y-80893366D02*
X203284508Y-80893366D01*
X203284508Y-80893366D02*
X203427365Y-80940985D01*
X203713080Y-80893366D02*
X204284508Y-80893366D01*
X203998794Y-81893366D02*
X203998794Y-80893366D01*
X201311779Y-112238866D02*
X202073684Y-112238866D01*
X201692731Y-112619819D02*
X201692731Y-111857914D01*
X203026064Y-111619819D02*
X202549874Y-111619819D01*
X202549874Y-111619819D02*
X202502255Y-112096009D01*
X202502255Y-112096009D02*
X202549874Y-112048390D01*
X202549874Y-112048390D02*
X202645112Y-112000771D01*
X202645112Y-112000771D02*
X202883207Y-112000771D01*
X202883207Y-112000771D02*
X202978445Y-112048390D01*
X202978445Y-112048390D02*
X203026064Y-112096009D01*
X203026064Y-112096009D02*
X203073683Y-112191247D01*
X203073683Y-112191247D02*
X203073683Y-112429342D01*
X203073683Y-112429342D02*
X203026064Y-112524580D01*
X203026064Y-112524580D02*
X202978445Y-112572200D01*
X202978445Y-112572200D02*
X202883207Y-112619819D01*
X202883207Y-112619819D02*
X202645112Y-112619819D01*
X202645112Y-112619819D02*
X202549874Y-112572200D01*
X202549874Y-112572200D02*
X202502255Y-112524580D01*
X203359398Y-111619819D02*
X203692731Y-112619819D01*
X203692731Y-112619819D02*
X204026064Y-111619819D01*
X167869819Y-143972744D02*
X167869819Y-143782268D01*
X167869819Y-143782268D02*
X167917438Y-143687030D01*
X167917438Y-143687030D02*
X168012676Y-143591792D01*
X168012676Y-143591792D02*
X168203152Y-143544173D01*
X168203152Y-143544173D02*
X168536485Y-143544173D01*
X168536485Y-143544173D02*
X168726961Y-143591792D01*
X168726961Y-143591792D02*
X168822200Y-143687030D01*
X168822200Y-143687030D02*
X168869819Y-143782268D01*
X168869819Y-143782268D02*
X168869819Y-143972744D01*
X168869819Y-143972744D02*
X168822200Y-144067982D01*
X168822200Y-144067982D02*
X168726961Y-144163220D01*
X168726961Y-144163220D02*
X168536485Y-144210839D01*
X168536485Y-144210839D02*
X168203152Y-144210839D01*
X168203152Y-144210839D02*
X168012676Y-144163220D01*
X168012676Y-144163220D02*
X167917438Y-144067982D01*
X167917438Y-144067982D02*
X167869819Y-143972744D01*
X168869819Y-142639411D02*
X168869819Y-143115601D01*
X168869819Y-143115601D02*
X167869819Y-143115601D01*
X168346009Y-142306077D02*
X168346009Y-141972744D01*
X168869819Y-141829887D02*
X168869819Y-142306077D01*
X168869819Y-142306077D02*
X167869819Y-142306077D01*
X167869819Y-142306077D02*
X167869819Y-141829887D01*
X168869819Y-141401315D02*
X167869819Y-141401315D01*
X167869819Y-141401315D02*
X167869819Y-141163220D01*
X167869819Y-141163220D02*
X167917438Y-141020363D01*
X167917438Y-141020363D02*
X168012676Y-140925125D01*
X168012676Y-140925125D02*
X168107914Y-140877506D01*
X168107914Y-140877506D02*
X168298390Y-140829887D01*
X168298390Y-140829887D02*
X168441247Y-140829887D01*
X168441247Y-140829887D02*
X168631723Y-140877506D01*
X168631723Y-140877506D02*
X168726961Y-140925125D01*
X168726961Y-140925125D02*
X168822200Y-141020363D01*
X168822200Y-141020363D02*
X168869819Y-141163220D01*
X168869819Y-141163220D02*
X168869819Y-141401315D01*
X202156418Y-74444420D02*
X202299275Y-74492039D01*
X202299275Y-74492039D02*
X202537370Y-74492039D01*
X202537370Y-74492039D02*
X202632608Y-74444420D01*
X202632608Y-74444420D02*
X202680227Y-74396800D01*
X202680227Y-74396800D02*
X202727846Y-74301562D01*
X202727846Y-74301562D02*
X202727846Y-74206324D01*
X202727846Y-74206324D02*
X202680227Y-74111086D01*
X202680227Y-74111086D02*
X202632608Y-74063467D01*
X202632608Y-74063467D02*
X202537370Y-74015848D01*
X202537370Y-74015848D02*
X202346894Y-73968229D01*
X202346894Y-73968229D02*
X202251656Y-73920610D01*
X202251656Y-73920610D02*
X202204037Y-73872991D01*
X202204037Y-73872991D02*
X202156418Y-73777753D01*
X202156418Y-73777753D02*
X202156418Y-73682515D01*
X202156418Y-73682515D02*
X202204037Y-73587277D01*
X202204037Y-73587277D02*
X202251656Y-73539658D01*
X202251656Y-73539658D02*
X202346894Y-73492039D01*
X202346894Y-73492039D02*
X202584989Y-73492039D01*
X202584989Y-73492039D02*
X202727846Y-73539658D01*
X203108799Y-74444420D02*
X203251656Y-74492039D01*
X203251656Y-74492039D02*
X203489751Y-74492039D01*
X203489751Y-74492039D02*
X203584989Y-74444420D01*
X203584989Y-74444420D02*
X203632608Y-74396800D01*
X203632608Y-74396800D02*
X203680227Y-74301562D01*
X203680227Y-74301562D02*
X203680227Y-74206324D01*
X203680227Y-74206324D02*
X203632608Y-74111086D01*
X203632608Y-74111086D02*
X203584989Y-74063467D01*
X203584989Y-74063467D02*
X203489751Y-74015848D01*
X203489751Y-74015848D02*
X203299275Y-73968229D01*
X203299275Y-73968229D02*
X203204037Y-73920610D01*
X203204037Y-73920610D02*
X203156418Y-73872991D01*
X203156418Y-73872991D02*
X203108799Y-73777753D01*
X203108799Y-73777753D02*
X203108799Y-73682515D01*
X203108799Y-73682515D02*
X203156418Y-73587277D01*
X203156418Y-73587277D02*
X203204037Y-73539658D01*
X203204037Y-73539658D02*
X203299275Y-73492039D01*
X203299275Y-73492039D02*
X203537370Y-73492039D01*
X203537370Y-73492039D02*
X203680227Y-73539658D01*
X202330381Y-76832455D02*
X202473238Y-76880074D01*
X202473238Y-76880074D02*
X202711333Y-76880074D01*
X202711333Y-76880074D02*
X202806571Y-76832455D01*
X202806571Y-76832455D02*
X202854190Y-76784835D01*
X202854190Y-76784835D02*
X202901809Y-76689597D01*
X202901809Y-76689597D02*
X202901809Y-76594359D01*
X202901809Y-76594359D02*
X202854190Y-76499121D01*
X202854190Y-76499121D02*
X202806571Y-76451502D01*
X202806571Y-76451502D02*
X202711333Y-76403883D01*
X202711333Y-76403883D02*
X202520857Y-76356264D01*
X202520857Y-76356264D02*
X202425619Y-76308645D01*
X202425619Y-76308645D02*
X202378000Y-76261026D01*
X202378000Y-76261026D02*
X202330381Y-76165788D01*
X202330381Y-76165788D02*
X202330381Y-76070550D01*
X202330381Y-76070550D02*
X202378000Y-75975312D01*
X202378000Y-75975312D02*
X202425619Y-75927693D01*
X202425619Y-75927693D02*
X202520857Y-75880074D01*
X202520857Y-75880074D02*
X202758952Y-75880074D01*
X202758952Y-75880074D02*
X202901809Y-75927693D01*
X203330381Y-76880074D02*
X203330381Y-75880074D01*
X202445464Y-122737804D02*
X202588321Y-122785423D01*
X202588321Y-122785423D02*
X202826416Y-122785423D01*
X202826416Y-122785423D02*
X202921654Y-122737804D01*
X202921654Y-122737804D02*
X202969273Y-122690184D01*
X202969273Y-122690184D02*
X203016892Y-122594946D01*
X203016892Y-122594946D02*
X203016892Y-122499708D01*
X203016892Y-122499708D02*
X202969273Y-122404470D01*
X202969273Y-122404470D02*
X202921654Y-122356851D01*
X202921654Y-122356851D02*
X202826416Y-122309232D01*
X202826416Y-122309232D02*
X202635940Y-122261613D01*
X202635940Y-122261613D02*
X202540702Y-122213994D01*
X202540702Y-122213994D02*
X202493083Y-122166375D01*
X202493083Y-122166375D02*
X202445464Y-122071137D01*
X202445464Y-122071137D02*
X202445464Y-121975899D01*
X202445464Y-121975899D02*
X202493083Y-121880661D01*
X202493083Y-121880661D02*
X202540702Y-121833042D01*
X202540702Y-121833042D02*
X202635940Y-121785423D01*
X202635940Y-121785423D02*
X202874035Y-121785423D01*
X202874035Y-121785423D02*
X203016892Y-121833042D01*
X203445464Y-122785423D02*
X203445464Y-121785423D01*
D11*
X72659190Y-139235901D02*
X72611571Y-139378758D01*
X72611571Y-139378758D02*
X72563952Y-139426377D01*
X72563952Y-139426377D02*
X72468714Y-139473996D01*
X72468714Y-139473996D02*
X72325857Y-139473996D01*
X72325857Y-139473996D02*
X72230619Y-139426377D01*
X72230619Y-139426377D02*
X72183000Y-139378758D01*
X72183000Y-139378758D02*
X72135380Y-139283520D01*
X72135380Y-139283520D02*
X72135380Y-138902568D01*
X72135380Y-138902568D02*
X73135380Y-138902568D01*
X73135380Y-138902568D02*
X73135380Y-139235901D01*
X73135380Y-139235901D02*
X73087761Y-139331139D01*
X73087761Y-139331139D02*
X73040142Y-139378758D01*
X73040142Y-139378758D02*
X72944904Y-139426377D01*
X72944904Y-139426377D02*
X72849666Y-139426377D01*
X72849666Y-139426377D02*
X72754428Y-139378758D01*
X72754428Y-139378758D02*
X72706809Y-139331139D01*
X72706809Y-139331139D02*
X72659190Y-139235901D01*
X72659190Y-139235901D02*
X72659190Y-138902568D01*
X72183000Y-139854949D02*
X72135380Y-139997806D01*
X72135380Y-139997806D02*
X72135380Y-140235901D01*
X72135380Y-140235901D02*
X72183000Y-140331139D01*
X72183000Y-140331139D02*
X72230619Y-140378758D01*
X72230619Y-140378758D02*
X72325857Y-140426377D01*
X72325857Y-140426377D02*
X72421095Y-140426377D01*
X72421095Y-140426377D02*
X72516333Y-140378758D01*
X72516333Y-140378758D02*
X72563952Y-140331139D01*
X72563952Y-140331139D02*
X72611571Y-140235901D01*
X72611571Y-140235901D02*
X72659190Y-140045425D01*
X72659190Y-140045425D02*
X72706809Y-139950187D01*
X72706809Y-139950187D02*
X72754428Y-139902568D01*
X72754428Y-139902568D02*
X72849666Y-139854949D01*
X72849666Y-139854949D02*
X72944904Y-139854949D01*
X72944904Y-139854949D02*
X73040142Y-139902568D01*
X73040142Y-139902568D02*
X73087761Y-139950187D01*
X73087761Y-139950187D02*
X73135380Y-140045425D01*
X73135380Y-140045425D02*
X73135380Y-140283520D01*
X73135380Y-140283520D02*
X73087761Y-140426377D01*
X72183000Y-140807330D02*
X72135380Y-140950187D01*
X72135380Y-140950187D02*
X72135380Y-141188282D01*
X72135380Y-141188282D02*
X72183000Y-141283520D01*
X72183000Y-141283520D02*
X72230619Y-141331139D01*
X72230619Y-141331139D02*
X72325857Y-141378758D01*
X72325857Y-141378758D02*
X72421095Y-141378758D01*
X72421095Y-141378758D02*
X72516333Y-141331139D01*
X72516333Y-141331139D02*
X72563952Y-141283520D01*
X72563952Y-141283520D02*
X72611571Y-141188282D01*
X72611571Y-141188282D02*
X72659190Y-140997806D01*
X72659190Y-140997806D02*
X72706809Y-140902568D01*
X72706809Y-140902568D02*
X72754428Y-140854949D01*
X72754428Y-140854949D02*
X72849666Y-140807330D01*
X72849666Y-140807330D02*
X72944904Y-140807330D01*
X72944904Y-140807330D02*
X73040142Y-140854949D01*
X73040142Y-140854949D02*
X73087761Y-140902568D01*
X73087761Y-140902568D02*
X73135380Y-140997806D01*
X73135380Y-140997806D02*
X73135380Y-141235901D01*
X73135380Y-141235901D02*
X73087761Y-141378758D01*
X72135380Y-142569235D02*
X73135380Y-142569235D01*
X73135380Y-142569235D02*
X73135380Y-142950187D01*
X73135380Y-142950187D02*
X73087761Y-143045425D01*
X73087761Y-143045425D02*
X73040142Y-143093044D01*
X73040142Y-143093044D02*
X72944904Y-143140663D01*
X72944904Y-143140663D02*
X72802047Y-143140663D01*
X72802047Y-143140663D02*
X72706809Y-143093044D01*
X72706809Y-143093044D02*
X72659190Y-143045425D01*
X72659190Y-143045425D02*
X72611571Y-142950187D01*
X72611571Y-142950187D02*
X72611571Y-142569235D01*
X72135380Y-143569235D02*
X72802047Y-143569235D01*
X72611571Y-143569235D02*
X72706809Y-143616854D01*
X72706809Y-143616854D02*
X72754428Y-143664473D01*
X72754428Y-143664473D02*
X72802047Y-143759711D01*
X72802047Y-143759711D02*
X72802047Y-143854949D01*
X72135380Y-144616854D02*
X72659190Y-144616854D01*
X72659190Y-144616854D02*
X72754428Y-144569235D01*
X72754428Y-144569235D02*
X72802047Y-144473997D01*
X72802047Y-144473997D02*
X72802047Y-144283521D01*
X72802047Y-144283521D02*
X72754428Y-144188283D01*
X72183000Y-144616854D02*
X72135380Y-144521616D01*
X72135380Y-144521616D02*
X72135380Y-144283521D01*
X72135380Y-144283521D02*
X72183000Y-144188283D01*
X72183000Y-144188283D02*
X72278238Y-144140664D01*
X72278238Y-144140664D02*
X72373476Y-144140664D01*
X72373476Y-144140664D02*
X72468714Y-144188283D01*
X72468714Y-144188283D02*
X72516333Y-144283521D01*
X72516333Y-144283521D02*
X72516333Y-144521616D01*
X72516333Y-144521616D02*
X72563952Y-144616854D01*
X72135380Y-145093045D02*
X73135380Y-145093045D01*
X72135380Y-145521616D02*
X72659190Y-145521616D01*
X72659190Y-145521616D02*
X72754428Y-145473997D01*
X72754428Y-145473997D02*
X72802047Y-145378759D01*
X72802047Y-145378759D02*
X72802047Y-145235902D01*
X72802047Y-145235902D02*
X72754428Y-145140664D01*
X72754428Y-145140664D02*
X72706809Y-145093045D01*
X72135380Y-146426378D02*
X72659190Y-146426378D01*
X72659190Y-146426378D02*
X72754428Y-146378759D01*
X72754428Y-146378759D02*
X72802047Y-146283521D01*
X72802047Y-146283521D02*
X72802047Y-146093045D01*
X72802047Y-146093045D02*
X72754428Y-145997807D01*
X72183000Y-146426378D02*
X72135380Y-146331140D01*
X72135380Y-146331140D02*
X72135380Y-146093045D01*
X72135380Y-146093045D02*
X72183000Y-145997807D01*
X72183000Y-145997807D02*
X72278238Y-145950188D01*
X72278238Y-145950188D02*
X72373476Y-145950188D01*
X72373476Y-145950188D02*
X72468714Y-145997807D01*
X72468714Y-145997807D02*
X72516333Y-146093045D01*
X72516333Y-146093045D02*
X72516333Y-146331140D01*
X72516333Y-146331140D02*
X72563952Y-146426378D01*
D12*
X209846412Y-98983082D02*
X209846412Y-97792606D01*
X209846412Y-97792606D02*
X212346412Y-97792606D01*
X210560698Y-99697368D02*
X210560698Y-100887844D01*
X209846412Y-99459273D02*
X212346412Y-100292606D01*
X212346412Y-100292606D02*
X209846412Y-101125939D01*
X209846412Y-101959273D02*
X212346412Y-101959273D01*
X212346412Y-101959273D02*
X209846412Y-103387844D01*
X209846412Y-103387844D02*
X212346412Y-103387844D01*
X212108317Y-104459273D02*
X212227364Y-104578321D01*
X212227364Y-104578321D02*
X212346412Y-104816416D01*
X212346412Y-104816416D02*
X212346412Y-105411654D01*
X212346412Y-105411654D02*
X212227364Y-105649749D01*
X212227364Y-105649749D02*
X212108317Y-105768797D01*
X212108317Y-105768797D02*
X211870221Y-105887844D01*
X211870221Y-105887844D02*
X211632126Y-105887844D01*
X211632126Y-105887844D02*
X211274983Y-105768797D01*
X211274983Y-105768797D02*
X209846412Y-104340225D01*
X209846412Y-104340225D02*
X209846412Y-105887844D01*
X210084507Y-108387844D02*
X209965460Y-108268796D01*
X209965460Y-108268796D02*
X209846412Y-107911654D01*
X209846412Y-107911654D02*
X209846412Y-107673558D01*
X209846412Y-107673558D02*
X209965460Y-107316415D01*
X209965460Y-107316415D02*
X210203555Y-107078320D01*
X210203555Y-107078320D02*
X210441650Y-106959273D01*
X210441650Y-106959273D02*
X210917840Y-106840225D01*
X210917840Y-106840225D02*
X211274983Y-106840225D01*
X211274983Y-106840225D02*
X211751174Y-106959273D01*
X211751174Y-106959273D02*
X211989269Y-107078320D01*
X211989269Y-107078320D02*
X212227364Y-107316415D01*
X212227364Y-107316415D02*
X212346412Y-107673558D01*
X212346412Y-107673558D02*
X212346412Y-107911654D01*
X212346412Y-107911654D02*
X212227364Y-108268796D01*
X212227364Y-108268796D02*
X212108317Y-108387844D01*
X210560698Y-109340225D02*
X210560698Y-110530701D01*
X209846412Y-109102130D02*
X212346412Y-109935463D01*
X212346412Y-109935463D02*
X209846412Y-110768796D01*
X209846412Y-111602130D02*
X212346412Y-111602130D01*
X212346412Y-111602130D02*
X209846412Y-113030701D01*
X209846412Y-113030701D02*
X212346412Y-113030701D01*
X205821552Y-97792606D02*
X208321552Y-97792606D01*
X208321552Y-97792606D02*
X206535838Y-98625939D01*
X206535838Y-98625939D02*
X208321552Y-99459272D01*
X208321552Y-99459272D02*
X205821552Y-99459272D01*
X206535838Y-100530701D02*
X206535838Y-101721177D01*
X205821552Y-100292606D02*
X208321552Y-101125939D01*
X208321552Y-101125939D02*
X205821552Y-101959272D01*
X205940600Y-102673558D02*
X205821552Y-103030701D01*
X205821552Y-103030701D02*
X205821552Y-103625939D01*
X205821552Y-103625939D02*
X205940600Y-103864034D01*
X205940600Y-103864034D02*
X206059647Y-103983082D01*
X206059647Y-103983082D02*
X206297742Y-104102129D01*
X206297742Y-104102129D02*
X206535838Y-104102129D01*
X206535838Y-104102129D02*
X206773933Y-103983082D01*
X206773933Y-103983082D02*
X206892980Y-103864034D01*
X206892980Y-103864034D02*
X207012028Y-103625939D01*
X207012028Y-103625939D02*
X207131076Y-103149748D01*
X207131076Y-103149748D02*
X207250123Y-102911653D01*
X207250123Y-102911653D02*
X207369171Y-102792606D01*
X207369171Y-102792606D02*
X207607266Y-102673558D01*
X207607266Y-102673558D02*
X207845361Y-102673558D01*
X207845361Y-102673558D02*
X208083457Y-102792606D01*
X208083457Y-102792606D02*
X208202504Y-102911653D01*
X208202504Y-102911653D02*
X208321552Y-103149748D01*
X208321552Y-103149748D02*
X208321552Y-103744987D01*
X208321552Y-103744987D02*
X208202504Y-104102129D01*
X208321552Y-104816415D02*
X208321552Y-106244986D01*
X205821552Y-105530700D02*
X208321552Y-105530700D01*
X207131076Y-107078320D02*
X207131076Y-107911653D01*
X205821552Y-108268796D02*
X205821552Y-107078320D01*
X205821552Y-107078320D02*
X208321552Y-107078320D01*
X208321552Y-107078320D02*
X208321552Y-108268796D01*
X205821552Y-110768796D02*
X207012028Y-109935463D01*
X205821552Y-109340225D02*
X208321552Y-109340225D01*
X208321552Y-109340225D02*
X208321552Y-110292606D01*
X208321552Y-110292606D02*
X208202504Y-110530701D01*
X208202504Y-110530701D02*
X208083457Y-110649748D01*
X208083457Y-110649748D02*
X207845361Y-110768796D01*
X207845361Y-110768796D02*
X207488219Y-110768796D01*
X207488219Y-110768796D02*
X207250123Y-110649748D01*
X207250123Y-110649748D02*
X207131076Y-110530701D01*
X207131076Y-110530701D02*
X207012028Y-110292606D01*
X207012028Y-110292606D02*
X207012028Y-109340225D01*
D10*
X93455826Y-59237200D02*
X94598684Y-59237200D01*
X161812458Y-148631764D02*
X161860077Y-148488907D01*
X161860077Y-148488907D02*
X161860077Y-148250812D01*
X161860077Y-148250812D02*
X161812458Y-148155574D01*
X161812458Y-148155574D02*
X161764838Y-148107955D01*
X161764838Y-148107955D02*
X161669600Y-148060336D01*
X161669600Y-148060336D02*
X161574362Y-148060336D01*
X161574362Y-148060336D02*
X161479124Y-148107955D01*
X161479124Y-148107955D02*
X161431505Y-148155574D01*
X161431505Y-148155574D02*
X161383886Y-148250812D01*
X161383886Y-148250812D02*
X161336267Y-148441288D01*
X161336267Y-148441288D02*
X161288648Y-148536526D01*
X161288648Y-148536526D02*
X161241029Y-148584145D01*
X161241029Y-148584145D02*
X161145791Y-148631764D01*
X161145791Y-148631764D02*
X161050553Y-148631764D01*
X161050553Y-148631764D02*
X160955315Y-148584145D01*
X160955315Y-148584145D02*
X160907696Y-148536526D01*
X160907696Y-148536526D02*
X160860077Y-148441288D01*
X160860077Y-148441288D02*
X160860077Y-148203193D01*
X160860077Y-148203193D02*
X160907696Y-148060336D01*
X161764838Y-147060336D02*
X161812458Y-147107955D01*
X161812458Y-147107955D02*
X161860077Y-147250812D01*
X161860077Y-147250812D02*
X161860077Y-147346050D01*
X161860077Y-147346050D02*
X161812458Y-147488907D01*
X161812458Y-147488907D02*
X161717219Y-147584145D01*
X161717219Y-147584145D02*
X161621981Y-147631764D01*
X161621981Y-147631764D02*
X161431505Y-147679383D01*
X161431505Y-147679383D02*
X161288648Y-147679383D01*
X161288648Y-147679383D02*
X161098172Y-147631764D01*
X161098172Y-147631764D02*
X161002934Y-147584145D01*
X161002934Y-147584145D02*
X160907696Y-147488907D01*
X160907696Y-147488907D02*
X160860077Y-147346050D01*
X160860077Y-147346050D02*
X160860077Y-147250812D01*
X160860077Y-147250812D02*
X160907696Y-147107955D01*
X160907696Y-147107955D02*
X160955315Y-147060336D01*
X161860077Y-146155574D02*
X161860077Y-146631764D01*
X161860077Y-146631764D02*
X160860077Y-146631764D01*
X164358641Y-148600135D02*
X164406260Y-148457278D01*
X164406260Y-148457278D02*
X164406260Y-148219183D01*
X164406260Y-148219183D02*
X164358641Y-148123945D01*
X164358641Y-148123945D02*
X164311021Y-148076326D01*
X164311021Y-148076326D02*
X164215783Y-148028707D01*
X164215783Y-148028707D02*
X164120545Y-148028707D01*
X164120545Y-148028707D02*
X164025307Y-148076326D01*
X164025307Y-148076326D02*
X163977688Y-148123945D01*
X163977688Y-148123945D02*
X163930069Y-148219183D01*
X163930069Y-148219183D02*
X163882450Y-148409659D01*
X163882450Y-148409659D02*
X163834831Y-148504897D01*
X163834831Y-148504897D02*
X163787212Y-148552516D01*
X163787212Y-148552516D02*
X163691974Y-148600135D01*
X163691974Y-148600135D02*
X163596736Y-148600135D01*
X163596736Y-148600135D02*
X163501498Y-148552516D01*
X163501498Y-148552516D02*
X163453879Y-148504897D01*
X163453879Y-148504897D02*
X163406260Y-148409659D01*
X163406260Y-148409659D02*
X163406260Y-148171564D01*
X163406260Y-148171564D02*
X163453879Y-148028707D01*
X164406260Y-147600135D02*
X163406260Y-147600135D01*
X163406260Y-147600135D02*
X163406260Y-147362040D01*
X163406260Y-147362040D02*
X163453879Y-147219183D01*
X163453879Y-147219183D02*
X163549117Y-147123945D01*
X163549117Y-147123945D02*
X163644355Y-147076326D01*
X163644355Y-147076326D02*
X163834831Y-147028707D01*
X163834831Y-147028707D02*
X163977688Y-147028707D01*
X163977688Y-147028707D02*
X164168164Y-147076326D01*
X164168164Y-147076326D02*
X164263402Y-147123945D01*
X164263402Y-147123945D02*
X164358641Y-147219183D01*
X164358641Y-147219183D02*
X164406260Y-147362040D01*
X164406260Y-147362040D02*
X164406260Y-147600135D01*
X164120545Y-146647754D02*
X164120545Y-146171564D01*
X164406260Y-146742992D02*
X163406260Y-146409659D01*
X163406260Y-146409659D02*
X164406260Y-146076326D01*
X202267547Y-120175806D02*
X202410404Y-120223425D01*
X202410404Y-120223425D02*
X202648499Y-120223425D01*
X202648499Y-120223425D02*
X202743737Y-120175806D01*
X202743737Y-120175806D02*
X202791356Y-120128186D01*
X202791356Y-120128186D02*
X202838975Y-120032948D01*
X202838975Y-120032948D02*
X202838975Y-119937710D01*
X202838975Y-119937710D02*
X202791356Y-119842472D01*
X202791356Y-119842472D02*
X202743737Y-119794853D01*
X202743737Y-119794853D02*
X202648499Y-119747234D01*
X202648499Y-119747234D02*
X202458023Y-119699615D01*
X202458023Y-119699615D02*
X202362785Y-119651996D01*
X202362785Y-119651996D02*
X202315166Y-119604377D01*
X202315166Y-119604377D02*
X202267547Y-119509139D01*
X202267547Y-119509139D02*
X202267547Y-119413901D01*
X202267547Y-119413901D02*
X202315166Y-119318663D01*
X202315166Y-119318663D02*
X202362785Y-119271044D01*
X202362785Y-119271044D02*
X202458023Y-119223425D01*
X202458023Y-119223425D02*
X202696118Y-119223425D01*
X202696118Y-119223425D02*
X202838975Y-119271044D01*
X203458023Y-119223425D02*
X203648499Y-119223425D01*
X203648499Y-119223425D02*
X203743737Y-119271044D01*
X203743737Y-119271044D02*
X203838975Y-119366282D01*
X203838975Y-119366282D02*
X203886594Y-119556758D01*
X203886594Y-119556758D02*
X203886594Y-119890091D01*
X203886594Y-119890091D02*
X203838975Y-120080567D01*
X203838975Y-120080567D02*
X203743737Y-120175806D01*
X203743737Y-120175806D02*
X203648499Y-120223425D01*
X203648499Y-120223425D02*
X203458023Y-120223425D01*
X203458023Y-120223425D02*
X203362785Y-120175806D01*
X203362785Y-120175806D02*
X203267547Y-120080567D01*
X203267547Y-120080567D02*
X203219928Y-119890091D01*
X203219928Y-119890091D02*
X203219928Y-119556758D01*
X203219928Y-119556758D02*
X203267547Y-119366282D01*
X203267547Y-119366282D02*
X203362785Y-119271044D01*
X203362785Y-119271044D02*
X203458023Y-119223425D01*
X93503271Y-56627758D02*
X94646129Y-56627758D01*
X94074700Y-57199186D02*
X94074700Y-56056329D01*
X202077344Y-79331193D02*
X202220201Y-79378812D01*
X202220201Y-79378812D02*
X202458296Y-79378812D01*
X202458296Y-79378812D02*
X202553534Y-79331193D01*
X202553534Y-79331193D02*
X202601153Y-79283573D01*
X202601153Y-79283573D02*
X202648772Y-79188335D01*
X202648772Y-79188335D02*
X202648772Y-79093097D01*
X202648772Y-79093097D02*
X202601153Y-78997859D01*
X202601153Y-78997859D02*
X202553534Y-78950240D01*
X202553534Y-78950240D02*
X202458296Y-78902621D01*
X202458296Y-78902621D02*
X202267820Y-78855002D01*
X202267820Y-78855002D02*
X202172582Y-78807383D01*
X202172582Y-78807383D02*
X202124963Y-78759764D01*
X202124963Y-78759764D02*
X202077344Y-78664526D01*
X202077344Y-78664526D02*
X202077344Y-78569288D01*
X202077344Y-78569288D02*
X202124963Y-78474050D01*
X202124963Y-78474050D02*
X202172582Y-78426431D01*
X202172582Y-78426431D02*
X202267820Y-78378812D01*
X202267820Y-78378812D02*
X202505915Y-78378812D01*
X202505915Y-78378812D02*
X202648772Y-78426431D01*
X203267820Y-78378812D02*
X203458296Y-78378812D01*
X203458296Y-78378812D02*
X203553534Y-78426431D01*
X203553534Y-78426431D02*
X203648772Y-78521669D01*
X203648772Y-78521669D02*
X203696391Y-78712145D01*
X203696391Y-78712145D02*
X203696391Y-79045478D01*
X203696391Y-79045478D02*
X203648772Y-79235954D01*
X203648772Y-79235954D02*
X203553534Y-79331193D01*
X203553534Y-79331193D02*
X203458296Y-79378812D01*
X203458296Y-79378812D02*
X203267820Y-79378812D01*
X203267820Y-79378812D02*
X203172582Y-79331193D01*
X203172582Y-79331193D02*
X203077344Y-79235954D01*
X203077344Y-79235954D02*
X203029725Y-79045478D01*
X203029725Y-79045478D02*
X203029725Y-78712145D01*
X203029725Y-78712145D02*
X203077344Y-78521669D01*
X203077344Y-78521669D02*
X203172582Y-78426431D01*
X203172582Y-78426431D02*
X203267820Y-78378812D01*
X159123165Y-148942268D02*
X159123165Y-148180364D01*
X159504118Y-148561316D02*
X158742213Y-148561316D01*
X158504118Y-147227983D02*
X158504118Y-147704173D01*
X158504118Y-147704173D02*
X158980308Y-147751792D01*
X158980308Y-147751792D02*
X158932689Y-147704173D01*
X158932689Y-147704173D02*
X158885070Y-147608935D01*
X158885070Y-147608935D02*
X158885070Y-147370840D01*
X158885070Y-147370840D02*
X158932689Y-147275602D01*
X158932689Y-147275602D02*
X158980308Y-147227983D01*
X158980308Y-147227983D02*
X159075546Y-147180364D01*
X159075546Y-147180364D02*
X159313641Y-147180364D01*
X159313641Y-147180364D02*
X159408879Y-147227983D01*
X159408879Y-147227983D02*
X159456499Y-147275602D01*
X159456499Y-147275602D02*
X159504118Y-147370840D01*
X159504118Y-147370840D02*
X159504118Y-147608935D01*
X159504118Y-147608935D02*
X159456499Y-147704173D01*
X159456499Y-147704173D02*
X159408879Y-147751792D01*
X158504118Y-146894649D02*
X159504118Y-146561316D01*
X159504118Y-146561316D02*
X158504118Y-146227983D01*
X116774580Y-135591792D02*
X116822200Y-135639411D01*
X116822200Y-135639411D02*
X116869819Y-135782268D01*
X116869819Y-135782268D02*
X116869819Y-135877506D01*
X116869819Y-135877506D02*
X116822200Y-136020363D01*
X116822200Y-136020363D02*
X116726961Y-136115601D01*
X116726961Y-136115601D02*
X116631723Y-136163220D01*
X116631723Y-136163220D02*
X116441247Y-136210839D01*
X116441247Y-136210839D02*
X116298390Y-136210839D01*
X116298390Y-136210839D02*
X116107914Y-136163220D01*
X116107914Y-136163220D02*
X116012676Y-136115601D01*
X116012676Y-136115601D02*
X115917438Y-136020363D01*
X115917438Y-136020363D02*
X115869819Y-135877506D01*
X115869819Y-135877506D02*
X115869819Y-135782268D01*
X115869819Y-135782268D02*
X115917438Y-135639411D01*
X115917438Y-135639411D02*
X115965057Y-135591792D01*
X116584104Y-135210839D02*
X116584104Y-134734649D01*
X116869819Y-135306077D02*
X115869819Y-134972744D01*
X115869819Y-134972744D02*
X116869819Y-134639411D01*
X116869819Y-134306077D02*
X115869819Y-134306077D01*
X115869819Y-134306077D02*
X116869819Y-133734649D01*
X116869819Y-133734649D02*
X115869819Y-133734649D01*
X116869819Y-132020363D02*
X116869819Y-132496553D01*
X116869819Y-132496553D02*
X115869819Y-132496553D01*
X116822200Y-131306077D02*
X116869819Y-131401315D01*
X116869819Y-131401315D02*
X116869819Y-131591791D01*
X116869819Y-131591791D02*
X116822200Y-131687029D01*
X116822200Y-131687029D02*
X116726961Y-131734648D01*
X116726961Y-131734648D02*
X116346009Y-131734648D01*
X116346009Y-131734648D02*
X116250771Y-131687029D01*
X116250771Y-131687029D02*
X116203152Y-131591791D01*
X116203152Y-131591791D02*
X116203152Y-131401315D01*
X116203152Y-131401315D02*
X116250771Y-131306077D01*
X116250771Y-131306077D02*
X116346009Y-131258458D01*
X116346009Y-131258458D02*
X116441247Y-131258458D01*
X116441247Y-131258458D02*
X116536485Y-131734648D01*
X116869819Y-130401315D02*
X115869819Y-130401315D01*
X116822200Y-130401315D02*
X116869819Y-130496553D01*
X116869819Y-130496553D02*
X116869819Y-130687029D01*
X116869819Y-130687029D02*
X116822200Y-130782267D01*
X116822200Y-130782267D02*
X116774580Y-130829886D01*
X116774580Y-130829886D02*
X116679342Y-130877505D01*
X116679342Y-130877505D02*
X116393628Y-130877505D01*
X116393628Y-130877505D02*
X116298390Y-130829886D01*
X116298390Y-130829886D02*
X116250771Y-130782267D01*
X116250771Y-130782267D02*
X116203152Y-130687029D01*
X116203152Y-130687029D02*
X116203152Y-130496553D01*
X116203152Y-130496553D02*
X116250771Y-130401315D01*
X202673094Y-117637355D02*
X202625475Y-117684975D01*
X202625475Y-117684975D02*
X202482618Y-117732594D01*
X202482618Y-117732594D02*
X202387380Y-117732594D01*
X202387380Y-117732594D02*
X202244523Y-117684975D01*
X202244523Y-117684975D02*
X202149285Y-117589736D01*
X202149285Y-117589736D02*
X202101666Y-117494498D01*
X202101666Y-117494498D02*
X202054047Y-117304022D01*
X202054047Y-117304022D02*
X202054047Y-117161165D01*
X202054047Y-117161165D02*
X202101666Y-116970689D01*
X202101666Y-116970689D02*
X202149285Y-116875451D01*
X202149285Y-116875451D02*
X202244523Y-116780213D01*
X202244523Y-116780213D02*
X202387380Y-116732594D01*
X202387380Y-116732594D02*
X202482618Y-116732594D01*
X202482618Y-116732594D02*
X202625475Y-116780213D01*
X202625475Y-116780213D02*
X202673094Y-116827832D01*
X203054047Y-117684975D02*
X203196904Y-117732594D01*
X203196904Y-117732594D02*
X203434999Y-117732594D01*
X203434999Y-117732594D02*
X203530237Y-117684975D01*
X203530237Y-117684975D02*
X203577856Y-117637355D01*
X203577856Y-117637355D02*
X203625475Y-117542117D01*
X203625475Y-117542117D02*
X203625475Y-117446879D01*
X203625475Y-117446879D02*
X203577856Y-117351641D01*
X203577856Y-117351641D02*
X203530237Y-117304022D01*
X203530237Y-117304022D02*
X203434999Y-117256403D01*
X203434999Y-117256403D02*
X203244523Y-117208784D01*
X203244523Y-117208784D02*
X203149285Y-117161165D01*
X203149285Y-117161165D02*
X203101666Y-117113546D01*
X203101666Y-117113546D02*
X203054047Y-117018308D01*
X203054047Y-117018308D02*
X203054047Y-116923070D01*
X203054047Y-116923070D02*
X203101666Y-116827832D01*
X203101666Y-116827832D02*
X203149285Y-116780213D01*
X203149285Y-116780213D02*
X203244523Y-116732594D01*
X203244523Y-116732594D02*
X203482618Y-116732594D01*
X203482618Y-116732594D02*
X203625475Y-116780213D01*
X115859580Y-58116666D02*
X115907200Y-58164285D01*
X115907200Y-58164285D02*
X115954819Y-58307142D01*
X115954819Y-58307142D02*
X115954819Y-58402380D01*
X115954819Y-58402380D02*
X115907200Y-58545237D01*
X115907200Y-58545237D02*
X115811961Y-58640475D01*
X115811961Y-58640475D02*
X115716723Y-58688094D01*
X115716723Y-58688094D02*
X115526247Y-58735713D01*
X115526247Y-58735713D02*
X115383390Y-58735713D01*
X115383390Y-58735713D02*
X115192914Y-58688094D01*
X115192914Y-58688094D02*
X115097676Y-58640475D01*
X115097676Y-58640475D02*
X115002438Y-58545237D01*
X115002438Y-58545237D02*
X114954819Y-58402380D01*
X114954819Y-58402380D02*
X114954819Y-58307142D01*
X114954819Y-58307142D02*
X115002438Y-58164285D01*
X115002438Y-58164285D02*
X115050057Y-58116666D01*
X114954819Y-57783332D02*
X114954819Y-57164285D01*
X114954819Y-57164285D02*
X115335771Y-57497618D01*
X115335771Y-57497618D02*
X115335771Y-57354761D01*
X115335771Y-57354761D02*
X115383390Y-57259523D01*
X115383390Y-57259523D02*
X115431009Y-57211904D01*
X115431009Y-57211904D02*
X115526247Y-57164285D01*
X115526247Y-57164285D02*
X115764342Y-57164285D01*
X115764342Y-57164285D02*
X115859580Y-57211904D01*
X115859580Y-57211904D02*
X115907200Y-57259523D01*
X115907200Y-57259523D02*
X115954819Y-57354761D01*
X115954819Y-57354761D02*
X115954819Y-57640475D01*
X115954819Y-57640475D02*
X115907200Y-57735713D01*
X115907200Y-57735713D02*
X115859580Y-57783332D01*
X112859580Y-58116666D02*
X112907200Y-58164285D01*
X112907200Y-58164285D02*
X112954819Y-58307142D01*
X112954819Y-58307142D02*
X112954819Y-58402380D01*
X112954819Y-58402380D02*
X112907200Y-58545237D01*
X112907200Y-58545237D02*
X112811961Y-58640475D01*
X112811961Y-58640475D02*
X112716723Y-58688094D01*
X112716723Y-58688094D02*
X112526247Y-58735713D01*
X112526247Y-58735713D02*
X112383390Y-58735713D01*
X112383390Y-58735713D02*
X112192914Y-58688094D01*
X112192914Y-58688094D02*
X112097676Y-58640475D01*
X112097676Y-58640475D02*
X112002438Y-58545237D01*
X112002438Y-58545237D02*
X111954819Y-58402380D01*
X111954819Y-58402380D02*
X111954819Y-58307142D01*
X111954819Y-58307142D02*
X112002438Y-58164285D01*
X112002438Y-58164285D02*
X112050057Y-58116666D01*
X112050057Y-57735713D02*
X112002438Y-57688094D01*
X112002438Y-57688094D02*
X111954819Y-57592856D01*
X111954819Y-57592856D02*
X111954819Y-57354761D01*
X111954819Y-57354761D02*
X112002438Y-57259523D01*
X112002438Y-57259523D02*
X112050057Y-57211904D01*
X112050057Y-57211904D02*
X112145295Y-57164285D01*
X112145295Y-57164285D02*
X112240533Y-57164285D01*
X112240533Y-57164285D02*
X112383390Y-57211904D01*
X112383390Y-57211904D02*
X112954819Y-57783332D01*
X112954819Y-57783332D02*
X112954819Y-57164285D01*
X115304819Y-144666666D02*
X114828628Y-144999999D01*
X115304819Y-145238094D02*
X114304819Y-145238094D01*
X114304819Y-145238094D02*
X114304819Y-144857142D01*
X114304819Y-144857142D02*
X114352438Y-144761904D01*
X114352438Y-144761904D02*
X114400057Y-144714285D01*
X114400057Y-144714285D02*
X114495295Y-144666666D01*
X114495295Y-144666666D02*
X114638152Y-144666666D01*
X114638152Y-144666666D02*
X114733390Y-144714285D01*
X114733390Y-144714285D02*
X114781009Y-144761904D01*
X114781009Y-144761904D02*
X114828628Y-144857142D01*
X114828628Y-144857142D02*
X114828628Y-145238094D01*
X114400057Y-144285713D02*
X114352438Y-144238094D01*
X114352438Y-144238094D02*
X114304819Y-144142856D01*
X114304819Y-144142856D02*
X114304819Y-143904761D01*
X114304819Y-143904761D02*
X114352438Y-143809523D01*
X114352438Y-143809523D02*
X114400057Y-143761904D01*
X114400057Y-143761904D02*
X114495295Y-143714285D01*
X114495295Y-143714285D02*
X114590533Y-143714285D01*
X114590533Y-143714285D02*
X114733390Y-143761904D01*
X114733390Y-143761904D02*
X115304819Y-144333332D01*
X115304819Y-144333332D02*
X115304819Y-143714285D01*
X110304819Y-144666666D02*
X109828628Y-144999999D01*
X110304819Y-145238094D02*
X109304819Y-145238094D01*
X109304819Y-145238094D02*
X109304819Y-144857142D01*
X109304819Y-144857142D02*
X109352438Y-144761904D01*
X109352438Y-144761904D02*
X109400057Y-144714285D01*
X109400057Y-144714285D02*
X109495295Y-144666666D01*
X109495295Y-144666666D02*
X109638152Y-144666666D01*
X109638152Y-144666666D02*
X109733390Y-144714285D01*
X109733390Y-144714285D02*
X109781009Y-144761904D01*
X109781009Y-144761904D02*
X109828628Y-144857142D01*
X109828628Y-144857142D02*
X109828628Y-145238094D01*
X110304819Y-143714285D02*
X110304819Y-144285713D01*
X110304819Y-143999999D02*
X109304819Y-143999999D01*
X109304819Y-143999999D02*
X109447676Y-144095237D01*
X109447676Y-144095237D02*
X109542914Y-144190475D01*
X109542914Y-144190475D02*
X109590533Y-144285713D01*
X109859580Y-58116666D02*
X109907200Y-58164285D01*
X109907200Y-58164285D02*
X109954819Y-58307142D01*
X109954819Y-58307142D02*
X109954819Y-58402380D01*
X109954819Y-58402380D02*
X109907200Y-58545237D01*
X109907200Y-58545237D02*
X109811961Y-58640475D01*
X109811961Y-58640475D02*
X109716723Y-58688094D01*
X109716723Y-58688094D02*
X109526247Y-58735713D01*
X109526247Y-58735713D02*
X109383390Y-58735713D01*
X109383390Y-58735713D02*
X109192914Y-58688094D01*
X109192914Y-58688094D02*
X109097676Y-58640475D01*
X109097676Y-58640475D02*
X109002438Y-58545237D01*
X109002438Y-58545237D02*
X108954819Y-58402380D01*
X108954819Y-58402380D02*
X108954819Y-58307142D01*
X108954819Y-58307142D02*
X109002438Y-58164285D01*
X109002438Y-58164285D02*
X109050057Y-58116666D01*
X109954819Y-57164285D02*
X109954819Y-57735713D01*
X109954819Y-57449999D02*
X108954819Y-57449999D01*
X108954819Y-57449999D02*
X109097676Y-57545237D01*
X109097676Y-57545237D02*
X109192914Y-57640475D01*
X109192914Y-57640475D02*
X109240533Y-57735713D01*
X119454819Y-58688094D02*
X118454819Y-58688094D01*
X118454819Y-58688094D02*
X118454819Y-58449999D01*
X118454819Y-58449999D02*
X118502438Y-58307142D01*
X118502438Y-58307142D02*
X118597676Y-58211904D01*
X118597676Y-58211904D02*
X118692914Y-58164285D01*
X118692914Y-58164285D02*
X118883390Y-58116666D01*
X118883390Y-58116666D02*
X119026247Y-58116666D01*
X119026247Y-58116666D02*
X119216723Y-58164285D01*
X119216723Y-58164285D02*
X119311961Y-58211904D01*
X119311961Y-58211904D02*
X119407200Y-58307142D01*
X119407200Y-58307142D02*
X119454819Y-58449999D01*
X119454819Y-58449999D02*
X119454819Y-58688094D01*
X119454819Y-57164285D02*
X119454819Y-57735713D01*
X119454819Y-57449999D02*
X118454819Y-57449999D01*
X118454819Y-57449999D02*
X118597676Y-57545237D01*
X118597676Y-57545237D02*
X118692914Y-57640475D01*
X118692914Y-57640475D02*
X118740533Y-57735713D01*
X115304819Y-139263094D02*
X114304819Y-139263094D01*
X114304819Y-139263094D02*
X114304819Y-139024999D01*
X114304819Y-139024999D02*
X114352438Y-138882142D01*
X114352438Y-138882142D02*
X114447676Y-138786904D01*
X114447676Y-138786904D02*
X114542914Y-138739285D01*
X114542914Y-138739285D02*
X114733390Y-138691666D01*
X114733390Y-138691666D02*
X114876247Y-138691666D01*
X114876247Y-138691666D02*
X115066723Y-138739285D01*
X115066723Y-138739285D02*
X115161961Y-138786904D01*
X115161961Y-138786904D02*
X115257200Y-138882142D01*
X115257200Y-138882142D02*
X115304819Y-139024999D01*
X115304819Y-139024999D02*
X115304819Y-139263094D01*
X114304819Y-138358332D02*
X114304819Y-137739285D01*
X114304819Y-137739285D02*
X114685771Y-138072618D01*
X114685771Y-138072618D02*
X114685771Y-137929761D01*
X114685771Y-137929761D02*
X114733390Y-137834523D01*
X114733390Y-137834523D02*
X114781009Y-137786904D01*
X114781009Y-137786904D02*
X114876247Y-137739285D01*
X114876247Y-137739285D02*
X115114342Y-137739285D01*
X115114342Y-137739285D02*
X115209580Y-137786904D01*
X115209580Y-137786904D02*
X115257200Y-137834523D01*
X115257200Y-137834523D02*
X115304819Y-137929761D01*
X115304819Y-137929761D02*
X115304819Y-138215475D01*
X115304819Y-138215475D02*
X115257200Y-138310713D01*
X115257200Y-138310713D02*
X115209580Y-138358332D01*
X110304819Y-139213094D02*
X109304819Y-139213094D01*
X109304819Y-139213094D02*
X109304819Y-138974999D01*
X109304819Y-138974999D02*
X109352438Y-138832142D01*
X109352438Y-138832142D02*
X109447676Y-138736904D01*
X109447676Y-138736904D02*
X109542914Y-138689285D01*
X109542914Y-138689285D02*
X109733390Y-138641666D01*
X109733390Y-138641666D02*
X109876247Y-138641666D01*
X109876247Y-138641666D02*
X110066723Y-138689285D01*
X110066723Y-138689285D02*
X110161961Y-138736904D01*
X110161961Y-138736904D02*
X110257200Y-138832142D01*
X110257200Y-138832142D02*
X110304819Y-138974999D01*
X110304819Y-138974999D02*
X110304819Y-139213094D01*
X109400057Y-138260713D02*
X109352438Y-138213094D01*
X109352438Y-138213094D02*
X109304819Y-138117856D01*
X109304819Y-138117856D02*
X109304819Y-137879761D01*
X109304819Y-137879761D02*
X109352438Y-137784523D01*
X109352438Y-137784523D02*
X109400057Y-137736904D01*
X109400057Y-137736904D02*
X109495295Y-137689285D01*
X109495295Y-137689285D02*
X109590533Y-137689285D01*
X109590533Y-137689285D02*
X109733390Y-137736904D01*
X109733390Y-137736904D02*
X110304819Y-138308332D01*
X110304819Y-138308332D02*
X110304819Y-137689285D01*
D13*
%TO.C,C3*%
X114765000Y-61748752D02*
X114765000Y-61226248D01*
X116235000Y-61748752D02*
X116235000Y-61226248D01*
%TO.C,C2*%
X111755000Y-61748752D02*
X111755000Y-61226248D01*
X113225000Y-61748752D02*
X113225000Y-61226248D01*
%TO.C,R2*%
X115765000Y-144727064D02*
X115765000Y-144272936D01*
X117235000Y-144727064D02*
X117235000Y-144272936D01*
%TO.C,R1*%
X110765000Y-144727064D02*
X110765000Y-144272936D01*
X112235000Y-144727064D02*
X112235000Y-144272936D01*
%TO.C,J2*%
X195015000Y-109440000D02*
X195015000Y-129560000D01*
X195015000Y-129560000D02*
X200985000Y-129560000D01*
X195775000Y-119500000D02*
X195775000Y-111260000D01*
X195775000Y-128800000D02*
X195775000Y-119500000D01*
X198725000Y-109450000D02*
X198725000Y-110200000D01*
X198725000Y-110200000D02*
X197385000Y-110200000D01*
X198725000Y-128800000D02*
X195775000Y-128800000D01*
X198725000Y-129550000D02*
X198725000Y-128800000D01*
X200225000Y-109450000D02*
X200225000Y-111250000D01*
X200225000Y-111250000D02*
X200975000Y-111250000D01*
X200225000Y-112750000D02*
X200225000Y-126250000D01*
X200225000Y-126250000D02*
X200975000Y-126250000D01*
X200225000Y-127750000D02*
X200225000Y-129550000D01*
X200225000Y-129550000D02*
X200975000Y-129550000D01*
X200975000Y-109450000D02*
X200225000Y-109450000D01*
X200975000Y-111250000D02*
X200975000Y-109450000D01*
X200975000Y-112750000D02*
X200225000Y-112750000D01*
X200975000Y-126250000D02*
X200975000Y-112750000D01*
X200975000Y-127750000D02*
X200225000Y-127750000D01*
X200975000Y-129550000D02*
X200975000Y-127750000D01*
X200985000Y-109440000D02*
X195015000Y-109440000D01*
X200985000Y-129560000D02*
X200985000Y-109440000D01*
X201275000Y-109150000D02*
X200025000Y-109150000D01*
X201275000Y-110400000D02*
X201275000Y-109150000D01*
%TO.C,J6*%
X153940000Y-139490000D02*
X153940000Y-145460000D01*
X153940000Y-145460000D02*
X166560000Y-145460000D01*
X153950000Y-143200000D02*
X154700000Y-143200000D01*
X153950000Y-144700000D02*
X153950000Y-145450000D01*
X153950000Y-145450000D02*
X155750000Y-145450000D01*
X154700000Y-140250000D02*
X160250000Y-140250000D01*
X154700000Y-143200000D02*
X154700000Y-140250000D01*
X155750000Y-144700000D02*
X153950000Y-144700000D01*
X155750000Y-145450000D02*
X155750000Y-144700000D01*
X157250000Y-144700000D02*
X157250000Y-145450000D01*
X157250000Y-145450000D02*
X163250000Y-145450000D01*
X163250000Y-144700000D02*
X157250000Y-144700000D01*
X163250000Y-145450000D02*
X163250000Y-144700000D01*
X164750000Y-144700000D02*
X164750000Y-145450000D01*
X164750000Y-145450000D02*
X166550000Y-145450000D01*
X165600000Y-145750000D02*
X166850000Y-145750000D01*
X165800000Y-140250000D02*
X160250000Y-140250000D01*
X165800000Y-143200000D02*
X165800000Y-140250000D01*
X166550000Y-143200000D02*
X165800000Y-143200000D01*
X166550000Y-144700000D02*
X164750000Y-144700000D01*
X166550000Y-145450000D02*
X166550000Y-144700000D01*
X166560000Y-139490000D02*
X153940000Y-139490000D01*
X166560000Y-145460000D02*
X166560000Y-139490000D01*
X166850000Y-145750000D02*
X166850000Y-144500000D01*
%TO.C,C1*%
X108745000Y-61748752D02*
X108745000Y-61226248D01*
X110215000Y-61748752D02*
X110215000Y-61226248D01*
%TO.C,D1*%
X118040000Y-63335000D02*
X119960000Y-63335000D01*
X119960000Y-63335000D02*
X119960000Y-60475000D01*
X118040000Y-60475000D02*
X118040000Y-63335000D01*
%TO.C,J1*%
X194990000Y-68940000D02*
X194990000Y-89060000D01*
X194990000Y-89060000D02*
X200960000Y-89060000D01*
X195750000Y-79000000D02*
X195750000Y-70760000D01*
X195750000Y-88300000D02*
X195750000Y-79000000D01*
X198700000Y-68950000D02*
X198700000Y-69700000D01*
X198700000Y-69700000D02*
X197360000Y-69700000D01*
X198700000Y-88300000D02*
X195750000Y-88300000D01*
X198700000Y-89050000D02*
X198700000Y-88300000D01*
X200200000Y-68950000D02*
X200200000Y-70750000D01*
X200200000Y-70750000D02*
X200950000Y-70750000D01*
X200200000Y-72250000D02*
X200200000Y-85750000D01*
X200200000Y-85750000D02*
X200950000Y-85750000D01*
X200200000Y-87250000D02*
X200200000Y-89050000D01*
X200200000Y-89050000D02*
X200950000Y-89050000D01*
X200950000Y-68950000D02*
X200200000Y-68950000D01*
X200950000Y-70750000D02*
X200950000Y-68950000D01*
X200950000Y-72250000D02*
X200200000Y-72250000D01*
X200950000Y-85750000D02*
X200950000Y-72250000D01*
X200950000Y-87250000D02*
X200200000Y-87250000D01*
X200950000Y-89050000D02*
X200950000Y-87250000D01*
X200960000Y-68940000D02*
X194990000Y-68940000D01*
X200960000Y-89060000D02*
X200960000Y-68940000D01*
X201250000Y-68650000D02*
X200000000Y-68650000D01*
X201250000Y-69900000D02*
X201250000Y-68650000D01*
%TO.C,D3*%
X115540000Y-137525000D02*
X115540000Y-140385000D01*
X115540000Y-140385000D02*
X117460000Y-140385000D01*
X117460000Y-140385000D02*
X117460000Y-137525000D01*
%TO.C,J3*%
X95750000Y-61600000D02*
X95750000Y-62850000D01*
X95750000Y-62850000D02*
X97000000Y-62850000D01*
X96040000Y-54940000D02*
X96040000Y-62560000D01*
X96040000Y-62560000D02*
X102010000Y-62560000D01*
X96050000Y-54950000D02*
X96050000Y-56750000D01*
X96050000Y-56750000D02*
X96800000Y-56750000D01*
X96050000Y-58250000D02*
X96050000Y-59250000D01*
X96050000Y-59250000D02*
X96800000Y-59250000D01*
X96050000Y-60750000D02*
X96050000Y-62550000D01*
X96050000Y-62550000D02*
X96800000Y-62550000D01*
X96800000Y-54950000D02*
X96050000Y-54950000D01*
X96800000Y-56750000D02*
X96800000Y-54950000D01*
X96800000Y-58250000D02*
X96050000Y-58250000D01*
X96800000Y-59250000D02*
X96800000Y-58250000D01*
X96800000Y-60750000D02*
X96050000Y-60750000D01*
X96800000Y-62550000D02*
X96800000Y-60750000D01*
X98300000Y-54950000D02*
X98300000Y-55700000D01*
X98300000Y-55700000D02*
X101250000Y-55700000D01*
X98300000Y-61800000D02*
X101250000Y-61800000D01*
X98300000Y-62550000D02*
X98300000Y-61800000D01*
X101250000Y-55700000D02*
X101250000Y-58750000D01*
X101250000Y-61800000D02*
X101250000Y-58750000D01*
X102010000Y-54940000D02*
X96040000Y-54940000D01*
X102010000Y-62560000D02*
X102010000Y-54940000D01*
%TO.C,D2*%
X110540000Y-137475000D02*
X110540000Y-140335000D01*
X110540000Y-140335000D02*
X112460000Y-140335000D01*
X112460000Y-140335000D02*
X112460000Y-137475000D01*
%TD*%
M02*
