%TF.GenerationSoftware,KiCad,Pcbnew,8.0.1*%
%TF.CreationDate,2024-05-22T11:23:19+02:00*%
%TF.ProjectId,Master,4d617374-6572-42e6-9b69-6361645f7063,rev?*%
%TF.SameCoordinates,Original*%
%TF.FileFunction,Copper,L2,Bot*%
%TF.FilePolarity,Positive*%
%FSLAX46Y46*%
G04 Gerber Fmt 4.6, Leading zero omitted, Abs format (unit mm)*
G04 Created by KiCad (PCBNEW 8.0.1) date 2024-05-22 11:23:19*
%MOMM*%
%LPD*%
G01*
G04 APERTURE LIST*
G04 Aperture macros list*
%AMRoundRect*
0 Rectangle with rounded corners*
0 $1 Rounding radius*
0 $2 $3 $4 $5 $6 $7 $8 $9 X,Y pos of 4 corners*
0 Add a 4 corners polygon primitive as box body*
4,1,4,$2,$3,$4,$5,$6,$7,$8,$9,$2,$3,0*
0 Add four circle primitives for the rounded corners*
1,1,$1+$1,$2,$3*
1,1,$1+$1,$4,$5*
1,1,$1+$1,$6,$7*
1,1,$1+$1,$8,$9*
0 Add four rect primitives between the rounded corners*
20,1,$1+$1,$2,$3,$4,$5,0*
20,1,$1+$1,$4,$5,$6,$7,0*
20,1,$1+$1,$6,$7,$8,$9,0*
20,1,$1+$1,$8,$9,$2,$3,0*%
G04 Aperture macros list end*
%TA.AperFunction,ComponentPad*%
%ADD10RoundRect,0.250000X-0.725000X0.600000X-0.725000X-0.600000X0.725000X-0.600000X0.725000X0.600000X0*%
%TD*%
%TA.AperFunction,ComponentPad*%
%ADD11O,1.950000X1.700000*%
%TD*%
%TA.AperFunction,ComponentPad*%
%ADD12RoundRect,0.250000X0.600000X0.725000X-0.600000X0.725000X-0.600000X-0.725000X0.600000X-0.725000X0*%
%TD*%
%TA.AperFunction,ComponentPad*%
%ADD13O,1.700000X1.950000*%
%TD*%
%TA.AperFunction,ComponentPad*%
%ADD14O,1.727200X1.727200*%
%TD*%
%TA.AperFunction,ComponentPad*%
%ADD15R,1.727200X1.727200*%
%TD*%
%TA.AperFunction,ComponentPad*%
%ADD16RoundRect,0.250000X0.750000X-0.600000X0.750000X0.600000X-0.750000X0.600000X-0.750000X-0.600000X0*%
%TD*%
%TA.AperFunction,ComponentPad*%
%ADD17O,2.000000X1.700000*%
%TD*%
%TA.AperFunction,ViaPad*%
%ADD18C,0.800000*%
%TD*%
%TA.AperFunction,Conductor*%
%ADD19C,0.500000*%
%TD*%
%TA.AperFunction,Conductor*%
%ADD20C,1.000000*%
%TD*%
G04 APERTURE END LIST*
D10*
%TO.P,J2,1,Pin_1*%
%TO.N,+5V*%
X198525000Y-112000000D03*
D11*
%TO.P,J2,2,Pin_2*%
%TO.N,GND*%
X198525000Y-114500000D03*
%TO.P,J2,3,Pin_3*%
%TO.N,/CS*%
X198525000Y-117000000D03*
%TO.P,J2,4,Pin_4*%
%TO.N,/SO*%
X198525000Y-119500000D03*
%TO.P,J2,5,Pin_5*%
%TO.N,/SI*%
X198525000Y-122000000D03*
%TO.P,J2,6,Pin_6*%
%TO.N,/SCK*%
X198525000Y-124500000D03*
%TO.P,J2,7,Pin_7*%
%TO.N,/INT*%
X198525000Y-127000000D03*
%TD*%
D12*
%TO.P,J6,1,Pin_1*%
%TO.N,/SDA_OLED*%
X164000000Y-143000000D03*
D13*
%TO.P,J6,2,Pin_2*%
%TO.N,/SCL_OLED*%
X161500000Y-143000000D03*
%TO.P,J6,3,Pin_3*%
%TO.N,+5V*%
X159000000Y-143000000D03*
%TO.P,J6,4,Pin_4*%
%TO.N,GND*%
X156500000Y-143000000D03*
%TD*%
D14*
%TO.P,A1,*%
%TO.N,*%
X108940000Y-72340000D03*
%TO.P,A1,3V3,3.3V*%
%TO.N,+3.3V*%
X116560000Y-72340000D03*
%TO.P,A1,5V1,5V*%
%TO.N,unconnected-(A1-5V-Pad5V1)*%
X119100000Y-72340000D03*
%TO.P,A1,5V3,5V*%
%TO.N,+5V*%
X174980000Y-120600000D03*
%TO.P,A1,5V4,5V*%
X177520000Y-120600000D03*
%TO.P,A1,A0,A0*%
%TO.N,unconnected-(A1-PadA0)*%
X131800000Y-72340000D03*
%TO.P,A1,A1,A1*%
%TO.N,unconnected-(A1-PadA1)*%
X134340000Y-72340000D03*
%TO.P,A1,A2,A2*%
%TO.N,unconnected-(A1-PadA2)*%
X136880000Y-72340000D03*
%TO.P,A1,A3,A3*%
%TO.N,unconnected-(A1-PadA3)*%
X139420000Y-72340000D03*
%TO.P,A1,A4,A4*%
%TO.N,unconnected-(A1-PadA4)*%
X141960000Y-72340000D03*
%TO.P,A1,A5,A5*%
%TO.N,unconnected-(A1-PadA5)*%
X144500000Y-72340000D03*
%TO.P,A1,A6,A6*%
%TO.N,unconnected-(A1-PadA6)*%
X147040000Y-72340000D03*
%TO.P,A1,A7,A7*%
%TO.N,unconnected-(A1-PadA7)*%
X149580000Y-72340000D03*
%TO.P,A1,A8,A8*%
%TO.N,unconnected-(A1-PadA8)*%
X154660000Y-72340000D03*
%TO.P,A1,A9,A9*%
%TO.N,unconnected-(A1-PadA9)*%
X157200000Y-72340000D03*
%TO.P,A1,A10,A10*%
%TO.N,unconnected-(A1-PadA10)*%
X159740000Y-72340000D03*
%TO.P,A1,A11,A11*%
%TO.N,unconnected-(A1-PadA11)*%
X162280000Y-72340000D03*
%TO.P,A1,A12,A12*%
%TO.N,unconnected-(A1-PadA12)*%
X164820000Y-72340000D03*
%TO.P,A1,A13,A13*%
%TO.N,unconnected-(A1-PadA13)*%
X167360000Y-72340000D03*
%TO.P,A1,A14,A14*%
%TO.N,unconnected-(A1-PadA14)*%
X169900000Y-72340000D03*
%TO.P,A1,A15,A15*%
%TO.N,unconnected-(A1-PadA15)*%
X172440000Y-72340000D03*
%TO.P,A1,AREF,AREF*%
%TO.N,unconnected-(A1-PadAREF)*%
X104876000Y-120600000D03*
%TO.P,A1,D0,D0/RX0*%
%TO.N,unconnected-(A1-D0{slash}RX0-PadD0)*%
X144500000Y-120600000D03*
%TO.P,A1,D1,D1/TX0*%
%TO.N,unconnected-(A1-D1{slash}TX0-PadD1)*%
X141960000Y-120600000D03*
%TO.P,A1,D2,D2_INT0*%
%TO.N,unconnected-(A1-D2_INT0-PadD2)*%
X139420000Y-120600000D03*
%TO.P,A1,D3,D3_INT1*%
%TO.N,/INT*%
X136880000Y-120600000D03*
%TO.P,A1,D4,D4*%
%TO.N,unconnected-(A1-PadD4)*%
X134340000Y-120600000D03*
%TO.P,A1,D5,D5*%
%TO.N,unconnected-(A1-PadD5)*%
X131800000Y-120600000D03*
%TO.P,A1,D6,D6*%
%TO.N,unconnected-(A1-PadD6)*%
X129260000Y-120600000D03*
%TO.P,A1,D7,D7*%
%TO.N,/CS*%
X126720000Y-120600000D03*
%TO.P,A1,D8,D8*%
%TO.N,unconnected-(A1-PadD8)*%
X122656000Y-120600000D03*
%TO.P,A1,D9,D9*%
%TO.N,unconnected-(A1-PadD9)*%
X120116000Y-120600000D03*
%TO.P,A1,D10,D10*%
%TO.N,unconnected-(A1-PadD10)*%
X117576000Y-120600000D03*
%TO.P,A1,D11,D11*%
%TO.N,/CAN_LED*%
X115036000Y-120600000D03*
%TO.P,A1,D12,D12*%
%TO.N,/ETH_LED*%
X112496000Y-120600000D03*
%TO.P,A1,D13,D13*%
%TO.N,unconnected-(A1-PadD13)*%
X109956000Y-120600000D03*
%TO.P,A1,D14,D14/TX3*%
%TO.N,unconnected-(A1-D14{slash}TX3-PadD14)*%
X149580000Y-120600000D03*
%TO.P,A1,D15,D15/RX3*%
%TO.N,unconnected-(A1-D15{slash}RX3-PadD15)*%
X152120000Y-120600000D03*
%TO.P,A1,D16,D16/TX2*%
%TO.N,unconnected-(A1-D16{slash}TX2-PadD16)*%
X154660000Y-120600000D03*
%TO.P,A1,D17,D17/RX2*%
%TO.N,unconnected-(A1-D17{slash}RX2-PadD17)*%
X157200000Y-120600000D03*
%TO.P,A1,D18,D18/TX1*%
%TO.N,unconnected-(A1-D18{slash}TX1-PadD18)*%
X159740000Y-120600000D03*
%TO.P,A1,D19,D19/RX1*%
%TO.N,unconnected-(A1-D19{slash}RX1-PadD19)*%
X162280000Y-120600000D03*
%TO.P,A1,D20,D20/SDA*%
%TO.N,/SDA_OLED*%
X164820000Y-120600000D03*
%TO.P,A1,D21,D21/SCL*%
%TO.N,/SCL_OLED*%
X167360000Y-120600000D03*
%TO.P,A1,D22,D22*%
%TO.N,unconnected-(A1-PadD22)*%
X174980000Y-118060000D03*
%TO.P,A1,D23,D23*%
%TO.N,unconnected-(A1-PadD23)*%
X177520000Y-118060000D03*
%TO.P,A1,D24,D24*%
%TO.N,unconnected-(A1-PadD24)*%
X174980000Y-115520000D03*
%TO.P,A1,D25,D25*%
%TO.N,unconnected-(A1-PadD25)*%
X177520000Y-115520000D03*
%TO.P,A1,D26,D26*%
%TO.N,unconnected-(A1-PadD26)*%
X174980000Y-112980000D03*
%TO.P,A1,D27,D27*%
%TO.N,unconnected-(A1-PadD27)*%
X177520000Y-112980000D03*
%TO.P,A1,D28,D28*%
%TO.N,unconnected-(A1-PadD28)*%
X174980000Y-110440000D03*
%TO.P,A1,D29,D29*%
%TO.N,unconnected-(A1-PadD29)*%
X177520000Y-110440000D03*
%TO.P,A1,D30,D30*%
%TO.N,unconnected-(A1-PadD30)*%
X174980000Y-107900000D03*
%TO.P,A1,D31,D31*%
%TO.N,unconnected-(A1-PadD31)*%
X177520000Y-107900000D03*
%TO.P,A1,D32,D32*%
%TO.N,unconnected-(A1-PadD32)*%
X174980000Y-105360000D03*
%TO.P,A1,D33,D33*%
%TO.N,unconnected-(A1-PadD33)*%
X177520000Y-105360000D03*
%TO.P,A1,D34,D34*%
%TO.N,unconnected-(A1-PadD34)*%
X174980000Y-102820000D03*
%TO.P,A1,D35,D35*%
%TO.N,unconnected-(A1-PadD35)*%
X177520000Y-102820000D03*
%TO.P,A1,D36,D36*%
%TO.N,unconnected-(A1-PadD36)*%
X174980000Y-100280000D03*
%TO.P,A1,D37,D37*%
%TO.N,unconnected-(A1-PadD37)*%
X177520000Y-100280000D03*
%TO.P,A1,D38,D38*%
%TO.N,unconnected-(A1-PadD38)*%
X174980000Y-97740000D03*
%TO.P,A1,D39,D39*%
%TO.N,unconnected-(A1-PadD39)*%
X177520000Y-97740000D03*
%TO.P,A1,D40,D40*%
%TO.N,unconnected-(A1-PadD40)*%
X174980000Y-95200000D03*
%TO.P,A1,D41,D41*%
%TO.N,unconnected-(A1-PadD41)*%
X177520000Y-95200000D03*
%TO.P,A1,D42,D42*%
%TO.N,unconnected-(A1-PadD42)*%
X174980000Y-92660000D03*
%TO.P,A1,D43,D43*%
%TO.N,unconnected-(A1-PadD43)*%
X177520000Y-92660000D03*
%TO.P,A1,D44,D44*%
%TO.N,unconnected-(A1-PadD44)*%
X174980000Y-90120000D03*
%TO.P,A1,D45,D45*%
%TO.N,unconnected-(A1-PadD45)*%
X177520000Y-90120000D03*
%TO.P,A1,D46,D46*%
%TO.N,unconnected-(A1-PadD46)*%
X174980000Y-87580000D03*
%TO.P,A1,D47,D47*%
%TO.N,unconnected-(A1-PadD47)*%
X177520000Y-87580000D03*
%TO.P,A1,D48,D48*%
%TO.N,unconnected-(A1-PadD48)*%
X174980000Y-85040000D03*
%TO.P,A1,D49,D49*%
%TO.N,unconnected-(A1-PadD49)*%
X177520000Y-85040000D03*
%TO.P,A1,D50,D50_MISO*%
%TO.N,/SO*%
X174980000Y-82500000D03*
%TO.P,A1,D51,D51_MOSI*%
%TO.N,/SI*%
X177520000Y-82500000D03*
%TO.P,A1,D52,D52_SCK*%
%TO.N,/SCK*%
X174980000Y-79960000D03*
%TO.P,A1,D53,D53_CS*%
%TO.N,/SS*%
X177520000Y-79960000D03*
D15*
%TO.P,A1,GND1,GND*%
%TO.N,GND*%
X107416000Y-120600000D03*
%TO.P,A1,GND2,GND*%
%TO.N,unconnected-(A1-GND-PadGND2)*%
X121640000Y-72340000D03*
%TO.P,A1,GND3,GND*%
%TO.N,GND*%
X124180000Y-72340000D03*
%TO.P,A1,GND5,GND*%
%TO.N,unconnected-(A1-GND-PadGND5)*%
X174980000Y-77420000D03*
%TO.P,A1,GND6,GND*%
%TO.N,GND*%
X177520000Y-77420000D03*
D14*
%TO.P,A1,IORF,IOREF*%
%TO.N,unconnected-(A1-IOREF-PadIORF)*%
X111480000Y-72340000D03*
%TO.P,A1,RST1,RESET*%
%TO.N,/RST*%
X114020000Y-72340000D03*
%TO.P,A1,SCL,SCL*%
%TO.N,unconnected-(A1-PadSCL)*%
X99796000Y-120600000D03*
%TO.P,A1,SDA,SDA*%
%TO.N,unconnected-(A1-PadSDA)*%
X102336000Y-120600000D03*
%TO.P,A1,VIN,VIN*%
%TO.N,+12V*%
X126720000Y-72340000D03*
%TD*%
D10*
%TO.P,J1,1,Pin_1*%
%TO.N,/SCK*%
X198500000Y-71500000D03*
D11*
%TO.P,J1,2,Pin_2*%
%TO.N,/SS*%
X198500000Y-74000000D03*
%TO.P,J1,3,Pin_3*%
%TO.N,/SI*%
X198500000Y-76500000D03*
%TO.P,J1,4,Pin_4*%
%TO.N,/SO*%
X198500000Y-79000000D03*
%TO.P,J1,5,Pin_5*%
%TO.N,/RST*%
X198500000Y-81500000D03*
%TO.P,J1,6,Pin_6*%
%TO.N,GND*%
X198500000Y-84000000D03*
%TO.P,J1,7,Pin_7*%
%TO.N,+3.3V*%
X198500000Y-86500000D03*
%TD*%
D16*
%TO.P,J3,1,Pin_1*%
%TO.N,GND*%
X98500000Y-60000000D03*
D17*
%TO.P,J3,2,Pin_2*%
%TO.N,+12V*%
X98500000Y-57500000D03*
%TD*%
D18*
%TO.N,GND*%
X205038077Y-77177928D03*
X204996592Y-73983633D03*
X189979257Y-75228163D03*
X143500000Y-129500000D03*
X156500000Y-129500000D03*
X162877734Y-129665937D03*
X181000000Y-129500000D03*
X190000000Y-129500000D03*
X122500000Y-129500000D03*
X192500000Y-65500000D03*
X122500000Y-144500000D03*
X154500000Y-65500000D03*
X189954140Y-72685543D03*
X196000000Y-104500000D03*
X189000000Y-124000000D03*
X174000000Y-65500000D03*
X196000000Y-94500000D03*
X185000000Y-124000000D03*
X143500000Y-144500000D03*
%TO.N,/SO*%
X190500000Y-81500000D03*
%TO.N,/SDA_OLED*%
X164832110Y-125925165D03*
%TO.N,+3.3V*%
X207000000Y-72000000D03*
%TD*%
D19*
%TO.N,/RST*%
X130500000Y-66500000D02*
X117500000Y-66500000D01*
X210500000Y-62000000D02*
X204500000Y-56000000D01*
X204500000Y-75500000D02*
X209500000Y-75500000D01*
X117500000Y-66500000D02*
X114020000Y-69980000D01*
X210500000Y-74500000D02*
X210500000Y-62000000D01*
X204500000Y-56000000D02*
X141000000Y-56000000D01*
X114020000Y-69980000D02*
X114020000Y-72340000D01*
X198500000Y-81500000D02*
X204500000Y-75500000D01*
X209500000Y-75500000D02*
X210500000Y-74500000D01*
X141000000Y-56000000D02*
X130500000Y-66500000D01*
D20*
%TO.N,GND*%
X208000000Y-123000000D02*
X208000000Y-131000000D01*
X199500000Y-114500000D02*
X208000000Y-123000000D01*
X203000000Y-136000000D02*
X158000000Y-136000000D01*
X198525000Y-114500000D02*
X199500000Y-114500000D01*
X177520000Y-77420000D02*
X184100000Y-84000000D01*
X208000000Y-131000000D02*
X203000000Y-136000000D01*
X156500000Y-137500000D02*
X156500000Y-143000000D01*
X158000000Y-136000000D02*
X156500000Y-137500000D01*
X184100000Y-84000000D02*
X198500000Y-84000000D01*
D19*
%TO.N,/INT*%
X143280000Y-127000000D02*
X198525000Y-127000000D01*
X136880000Y-120600000D02*
X143280000Y-127000000D01*
%TO.N,/CS*%
X200500000Y-132500000D02*
X204500000Y-128500000D01*
X204500000Y-128500000D02*
X204500000Y-122975000D01*
X126720000Y-120600000D02*
X138620000Y-132500000D01*
X138620000Y-132500000D02*
X200500000Y-132500000D01*
X204500000Y-122975000D02*
X198525000Y-117000000D01*
%TO.N,/SO*%
X198500000Y-79000000D02*
X188000000Y-79000000D01*
X184500000Y-79000000D02*
X181000000Y-75500000D01*
X181000000Y-75500000D02*
X174272800Y-75500000D01*
X188000000Y-79000000D02*
X190500000Y-81500000D01*
X173666400Y-76106400D02*
X173666400Y-81186400D01*
X174272800Y-75500000D02*
X173666400Y-76106400D01*
X188000000Y-79000000D02*
X184500000Y-79000000D01*
X173666400Y-81186400D02*
X174980000Y-82500000D01*
%TO.N,/SDA_OLED*%
X164820000Y-125913055D02*
X164832110Y-125925165D01*
X164820000Y-120600000D02*
X164820000Y-125913055D01*
D20*
%TO.N,+5V*%
X186120000Y-112000000D02*
X177520000Y-120600000D01*
X198525000Y-112000000D02*
X186120000Y-112000000D01*
%TO.N,+3.3V*%
X142000000Y-59500000D02*
X133000000Y-68500000D01*
X207000000Y-72000000D02*
X207000000Y-63000000D01*
X116560000Y-72340000D02*
X120400000Y-68500000D01*
X207000000Y-63000000D02*
X203500000Y-59500000D01*
X120400000Y-68500000D02*
X133000000Y-68500000D01*
X203500000Y-59500000D02*
X142000000Y-59500000D01*
%TD*%
%TA.AperFunction,Conductor*%
%TO.N,GND*%
G36*
X200131024Y-119687658D02*
G01*
X200182075Y-119718443D01*
X203713181Y-123249549D01*
X203746666Y-123310872D01*
X203749500Y-123337230D01*
X203749500Y-128137770D01*
X203729815Y-128204809D01*
X203713181Y-128225451D01*
X200225451Y-131713181D01*
X200164128Y-131746666D01*
X200137770Y-131749500D01*
X138982229Y-131749500D01*
X138915190Y-131729815D01*
X138894548Y-131713181D01*
X129348350Y-122166982D01*
X129314865Y-122105659D01*
X129319849Y-122035967D01*
X129361721Y-121980034D01*
X129415617Y-121956993D01*
X129596014Y-121926891D01*
X129809831Y-121853488D01*
X130008649Y-121745893D01*
X130187046Y-121607040D01*
X130340156Y-121440719D01*
X130426193Y-121309028D01*
X130479338Y-121263675D01*
X130548569Y-121254251D01*
X130611905Y-121283753D01*
X130633804Y-121309025D01*
X130719844Y-121440719D01*
X130719849Y-121440724D01*
X130719850Y-121440727D01*
X130872950Y-121607036D01*
X130872954Y-121607040D01*
X131051351Y-121745893D01*
X131250169Y-121853488D01*
X131250172Y-121853489D01*
X131463982Y-121926890D01*
X131463984Y-121926890D01*
X131463986Y-121926891D01*
X131686967Y-121964100D01*
X131686968Y-121964100D01*
X131913032Y-121964100D01*
X131913033Y-121964100D01*
X132136014Y-121926891D01*
X132349831Y-121853488D01*
X132548649Y-121745893D01*
X132727046Y-121607040D01*
X132880156Y-121440719D01*
X132966193Y-121309028D01*
X133019338Y-121263675D01*
X133088569Y-121254251D01*
X133151905Y-121283753D01*
X133173804Y-121309025D01*
X133259844Y-121440719D01*
X133259849Y-121440724D01*
X133259850Y-121440727D01*
X133412950Y-121607036D01*
X133412954Y-121607040D01*
X133591351Y-121745893D01*
X133790169Y-121853488D01*
X133790172Y-121853489D01*
X134003982Y-121926890D01*
X134003984Y-121926890D01*
X134003986Y-121926891D01*
X134226967Y-121964100D01*
X134226968Y-121964100D01*
X134453032Y-121964100D01*
X134453033Y-121964100D01*
X134676014Y-121926891D01*
X134889831Y-121853488D01*
X135088649Y-121745893D01*
X135267046Y-121607040D01*
X135420156Y-121440719D01*
X135506193Y-121309028D01*
X135559338Y-121263675D01*
X135628569Y-121254251D01*
X135691905Y-121283753D01*
X135713804Y-121309025D01*
X135799844Y-121440719D01*
X135799849Y-121440724D01*
X135799850Y-121440727D01*
X135952950Y-121607036D01*
X135952954Y-121607040D01*
X136131351Y-121745893D01*
X136330169Y-121853488D01*
X136330172Y-121853489D01*
X136543982Y-121926890D01*
X136543984Y-121926890D01*
X136543986Y-121926891D01*
X136766967Y-121964100D01*
X136766968Y-121964100D01*
X136993030Y-121964100D01*
X136993033Y-121964100D01*
X137092648Y-121947476D01*
X137162009Y-121955857D01*
X137200736Y-121982104D01*
X142801586Y-127582954D01*
X142824867Y-127598509D01*
X142859793Y-127621845D01*
X142924505Y-127665084D01*
X143061087Y-127721658D01*
X143061091Y-127721658D01*
X143061092Y-127721659D01*
X143206079Y-127750500D01*
X143206082Y-127750500D01*
X143206083Y-127750500D01*
X143353918Y-127750500D01*
X197212779Y-127750500D01*
X197279818Y-127770185D01*
X197313097Y-127801615D01*
X197369892Y-127879788D01*
X197520213Y-128030109D01*
X197692179Y-128155048D01*
X197692181Y-128155049D01*
X197692184Y-128155051D01*
X197881588Y-128251557D01*
X198083757Y-128317246D01*
X198293713Y-128350500D01*
X198293714Y-128350500D01*
X198756286Y-128350500D01*
X198756287Y-128350500D01*
X198966243Y-128317246D01*
X199168412Y-128251557D01*
X199357816Y-128155051D01*
X199381601Y-128137770D01*
X199529786Y-128030109D01*
X199529788Y-128030106D01*
X199529792Y-128030104D01*
X199680104Y-127879792D01*
X199680106Y-127879788D01*
X199680109Y-127879786D01*
X199805048Y-127707820D01*
X199805047Y-127707820D01*
X199805051Y-127707816D01*
X199901557Y-127518412D01*
X199967246Y-127316243D01*
X200000500Y-127106287D01*
X200000500Y-126893713D01*
X199967246Y-126683757D01*
X199901557Y-126481588D01*
X199805051Y-126292184D01*
X199805049Y-126292181D01*
X199805048Y-126292179D01*
X199680109Y-126120213D01*
X199529792Y-125969896D01*
X199529784Y-125969890D01*
X199365204Y-125850316D01*
X199322540Y-125794989D01*
X199316561Y-125725376D01*
X199349166Y-125663580D01*
X199365199Y-125649686D01*
X199529792Y-125530104D01*
X199680104Y-125379792D01*
X199680106Y-125379788D01*
X199680109Y-125379786D01*
X199805048Y-125207820D01*
X199805047Y-125207820D01*
X199805051Y-125207816D01*
X199901557Y-125018412D01*
X199967246Y-124816243D01*
X200000500Y-124606287D01*
X200000500Y-124393713D01*
X199967246Y-124183757D01*
X199901557Y-123981588D01*
X199805051Y-123792184D01*
X199805049Y-123792181D01*
X199805048Y-123792179D01*
X199680109Y-123620213D01*
X199529792Y-123469896D01*
X199529784Y-123469890D01*
X199365204Y-123350316D01*
X199322540Y-123294989D01*
X199316561Y-123225376D01*
X199349166Y-123163580D01*
X199365199Y-123149686D01*
X199529792Y-123030104D01*
X199680104Y-122879792D01*
X199680106Y-122879788D01*
X199680109Y-122879786D01*
X199805048Y-122707820D01*
X199805047Y-122707820D01*
X199805051Y-122707816D01*
X199901557Y-122518412D01*
X199967246Y-122316243D01*
X200000500Y-122106287D01*
X200000500Y-121893713D01*
X199967246Y-121683757D01*
X199901557Y-121481588D01*
X199805051Y-121292184D01*
X199805049Y-121292181D01*
X199805048Y-121292179D01*
X199680109Y-121120213D01*
X199529792Y-120969896D01*
X199449994Y-120911920D01*
X199365204Y-120850316D01*
X199322540Y-120794989D01*
X199316561Y-120725376D01*
X199349166Y-120663580D01*
X199365199Y-120649686D01*
X199529792Y-120530104D01*
X199680104Y-120379792D01*
X199680106Y-120379788D01*
X199680109Y-120379786D01*
X199805048Y-120207820D01*
X199805047Y-120207820D01*
X199805051Y-120207816D01*
X199901557Y-120018412D01*
X199967246Y-119816243D01*
X199971921Y-119786727D01*
X200001850Y-119723592D01*
X200061161Y-119686660D01*
X200131024Y-119687658D01*
G37*
%TD.AperFunction*%
%TA.AperFunction,Conductor*%
G36*
X216692539Y-53270185D02*
G01*
X216738294Y-53322989D01*
X216749500Y-53374500D01*
X216749500Y-157625500D01*
X216729815Y-157692539D01*
X216677011Y-157738294D01*
X216625500Y-157749500D01*
X67374500Y-157749500D01*
X67307461Y-157729815D01*
X67261706Y-157677011D01*
X67250500Y-157625500D01*
X67250500Y-153000001D01*
X69994390Y-153000001D01*
X70014804Y-153285433D01*
X70075628Y-153565037D01*
X70175635Y-153833166D01*
X70312770Y-154084309D01*
X70312775Y-154084317D01*
X70484254Y-154313387D01*
X70484270Y-154313405D01*
X70686594Y-154515729D01*
X70686612Y-154515745D01*
X70915682Y-154687224D01*
X70915690Y-154687229D01*
X71166833Y-154824364D01*
X71166832Y-154824364D01*
X71166836Y-154824365D01*
X71166839Y-154824367D01*
X71434954Y-154924369D01*
X71434960Y-154924370D01*
X71434962Y-154924371D01*
X71714566Y-154985195D01*
X71714568Y-154985195D01*
X71714572Y-154985196D01*
X71968220Y-155003337D01*
X71999999Y-155005610D01*
X72000000Y-155005610D01*
X72000001Y-155005610D01*
X72028595Y-155003564D01*
X72285428Y-154985196D01*
X72565046Y-154924369D01*
X72833161Y-154824367D01*
X73084315Y-154687226D01*
X73313395Y-154515739D01*
X73515739Y-154313395D01*
X73687226Y-154084315D01*
X73824367Y-153833161D01*
X73924369Y-153565046D01*
X73985196Y-153285428D01*
X74005610Y-153000001D01*
X209994390Y-153000001D01*
X210014804Y-153285433D01*
X210075628Y-153565037D01*
X210175635Y-153833166D01*
X210312770Y-154084309D01*
X210312775Y-154084317D01*
X210484254Y-154313387D01*
X210484270Y-154313405D01*
X210686594Y-154515729D01*
X210686612Y-154515745D01*
X210915682Y-154687224D01*
X210915690Y-154687229D01*
X211166833Y-154824364D01*
X211166832Y-154824364D01*
X211166836Y-154824365D01*
X211166839Y-154824367D01*
X211434954Y-154924369D01*
X211434960Y-154924370D01*
X211434962Y-154924371D01*
X211714566Y-154985195D01*
X211714568Y-154985195D01*
X211714572Y-154985196D01*
X211968220Y-155003337D01*
X211999999Y-155005610D01*
X212000000Y-155005610D01*
X212000001Y-155005610D01*
X212028595Y-155003564D01*
X212285428Y-154985196D01*
X212565046Y-154924369D01*
X212833161Y-154824367D01*
X213084315Y-154687226D01*
X213313395Y-154515739D01*
X213515739Y-154313395D01*
X213687226Y-154084315D01*
X213824367Y-153833161D01*
X213924369Y-153565046D01*
X213985196Y-153285428D01*
X214005610Y-153000000D01*
X213985196Y-152714572D01*
X213941371Y-152513113D01*
X213924371Y-152434962D01*
X213924370Y-152434960D01*
X213924369Y-152434954D01*
X213824367Y-152166839D01*
X213687226Y-151915685D01*
X213687224Y-151915682D01*
X213515745Y-151686612D01*
X213515729Y-151686594D01*
X213313405Y-151484270D01*
X213313387Y-151484254D01*
X213084317Y-151312775D01*
X213084309Y-151312770D01*
X212833166Y-151175635D01*
X212833167Y-151175635D01*
X212725915Y-151135632D01*
X212565046Y-151075631D01*
X212565043Y-151075630D01*
X212565037Y-151075628D01*
X212285433Y-151014804D01*
X212000001Y-150994390D01*
X211999999Y-150994390D01*
X211714566Y-151014804D01*
X211434962Y-151075628D01*
X211166833Y-151175635D01*
X210915690Y-151312770D01*
X210915682Y-151312775D01*
X210686612Y-151484254D01*
X210686594Y-151484270D01*
X210484270Y-151686594D01*
X210484254Y-151686612D01*
X210312775Y-151915682D01*
X210312770Y-151915690D01*
X210175635Y-152166833D01*
X210075628Y-152434962D01*
X210014804Y-152714566D01*
X209994390Y-152999998D01*
X209994390Y-153000001D01*
X74005610Y-153000001D01*
X74005610Y-153000000D01*
X73985196Y-152714572D01*
X73941371Y-152513113D01*
X73924371Y-152434962D01*
X73924370Y-152434960D01*
X73924369Y-152434954D01*
X73824367Y-152166839D01*
X73687226Y-151915685D01*
X73687224Y-151915682D01*
X73515745Y-151686612D01*
X73515729Y-151686594D01*
X73313405Y-151484270D01*
X73313387Y-151484254D01*
X73084317Y-151312775D01*
X73084309Y-151312770D01*
X72833166Y-151175635D01*
X72833167Y-151175635D01*
X72725915Y-151135632D01*
X72565046Y-151075631D01*
X72565043Y-151075630D01*
X72565037Y-151075628D01*
X72285433Y-151014804D01*
X72000001Y-150994390D01*
X71999999Y-150994390D01*
X71714566Y-151014804D01*
X71434962Y-151075628D01*
X71166833Y-151175635D01*
X70915690Y-151312770D01*
X70915682Y-151312775D01*
X70686612Y-151484254D01*
X70686594Y-151484270D01*
X70484270Y-151686594D01*
X70484254Y-151686612D01*
X70312775Y-151915682D01*
X70312770Y-151915690D01*
X70175635Y-152166833D01*
X70075628Y-152434962D01*
X70014804Y-152714566D01*
X69994390Y-152999998D01*
X69994390Y-153000001D01*
X67250500Y-153000001D01*
X67250500Y-143250000D01*
X155152970Y-143250000D01*
X155183242Y-143441127D01*
X155183242Y-143441130D01*
X155248904Y-143643217D01*
X155345379Y-143832557D01*
X155470272Y-144004459D01*
X155470276Y-144004464D01*
X155620535Y-144154723D01*
X155620540Y-144154727D01*
X155792442Y-144279620D01*
X155981782Y-144376095D01*
X156183871Y-144441757D01*
X156250000Y-144452231D01*
X156250000Y-143404145D01*
X156316657Y-143442630D01*
X156437465Y-143475000D01*
X156562535Y-143475000D01*
X156683343Y-143442630D01*
X156750000Y-143404145D01*
X156750000Y-144452230D01*
X156816126Y-144441757D01*
X156816129Y-144441757D01*
X157018217Y-144376095D01*
X157207557Y-144279620D01*
X157379459Y-144154727D01*
X157379464Y-144154723D01*
X157529721Y-144004466D01*
X157649371Y-143839781D01*
X157704701Y-143797115D01*
X157774314Y-143791136D01*
X157836110Y-143823741D01*
X157850008Y-143839781D01*
X157969890Y-144004785D01*
X157969894Y-144004790D01*
X158120213Y-144155109D01*
X158292179Y-144280048D01*
X158292181Y-144280049D01*
X158292184Y-144280051D01*
X158481588Y-144376557D01*
X158683757Y-144442246D01*
X158893713Y-144475500D01*
X158893714Y-144475500D01*
X159106286Y-144475500D01*
X159106287Y-144475500D01*
X159316243Y-144442246D01*
X159518412Y-144376557D01*
X159707816Y-144280051D01*
X159729789Y-144264086D01*
X159879786Y-144155109D01*
X159879788Y-144155106D01*
X159879792Y-144155104D01*
X160030104Y-144004792D01*
X160149683Y-143840204D01*
X160205011Y-143797540D01*
X160274624Y-143791561D01*
X160336420Y-143824166D01*
X160350313Y-143840199D01*
X160453925Y-143982809D01*
X160469896Y-144004792D01*
X160620213Y-144155109D01*
X160792179Y-144280048D01*
X160792181Y-144280049D01*
X160792184Y-144280051D01*
X160981588Y-144376557D01*
X161183757Y-144442246D01*
X161393713Y-144475500D01*
X161393714Y-144475500D01*
X161606286Y-144475500D01*
X161606287Y-144475500D01*
X161816243Y-144442246D01*
X162018412Y-144376557D01*
X162207816Y-144280051D01*
X162379792Y-144155104D01*
X162518604Y-144016291D01*
X162579923Y-143982809D01*
X162649615Y-143987793D01*
X162705549Y-144029664D01*
X162711821Y-144038878D01*
X162715185Y-144044333D01*
X162715186Y-144044334D01*
X162807288Y-144193656D01*
X162931344Y-144317712D01*
X163080666Y-144409814D01*
X163247203Y-144464999D01*
X163349991Y-144475500D01*
X164650008Y-144475499D01*
X164752797Y-144464999D01*
X164919334Y-144409814D01*
X165068656Y-144317712D01*
X165192712Y-144193656D01*
X165284814Y-144044334D01*
X165339999Y-143877797D01*
X165350500Y-143775009D01*
X165350499Y-142224992D01*
X165348851Y-142208863D01*
X165339999Y-142122203D01*
X165339998Y-142122200D01*
X165302104Y-142007845D01*
X165284814Y-141955666D01*
X165192712Y-141806344D01*
X165068656Y-141682288D01*
X164919334Y-141590186D01*
X164752797Y-141535001D01*
X164752795Y-141535000D01*
X164650010Y-141524500D01*
X163349998Y-141524500D01*
X163349981Y-141524501D01*
X163247203Y-141535000D01*
X163247200Y-141535001D01*
X163080668Y-141590185D01*
X163080663Y-141590187D01*
X162931342Y-141682289D01*
X162807289Y-141806342D01*
X162711821Y-141961121D01*
X162659873Y-142007845D01*
X162590910Y-142019068D01*
X162526828Y-141991224D01*
X162518601Y-141983705D01*
X162379786Y-141844890D01*
X162207820Y-141719951D01*
X162018414Y-141623444D01*
X162018413Y-141623443D01*
X162018412Y-141623443D01*
X161816243Y-141557754D01*
X161816241Y-141557753D01*
X161816240Y-141557753D01*
X161654957Y-141532208D01*
X161606287Y-141524500D01*
X161393713Y-141524500D01*
X161345042Y-141532208D01*
X161183760Y-141557753D01*
X160981585Y-141623444D01*
X160792179Y-141719951D01*
X160620213Y-141844890D01*
X160469894Y-141995209D01*
X160469890Y-141995214D01*
X160350318Y-142159793D01*
X160294989Y-142202459D01*
X160225375Y-142208438D01*
X160163580Y-142175833D01*
X160149682Y-142159793D01*
X160030109Y-141995214D01*
X160030105Y-141995209D01*
X159879786Y-141844890D01*
X159707820Y-141719951D01*
X159518414Y-141623444D01*
X159518413Y-141623443D01*
X159518412Y-141623443D01*
X159316243Y-141557754D01*
X159316241Y-141557753D01*
X159316240Y-141557753D01*
X159154957Y-141532208D01*
X159106287Y-141524500D01*
X158893713Y-141524500D01*
X158845042Y-141532208D01*
X158683760Y-141557753D01*
X158481585Y-141623444D01*
X158292179Y-141719951D01*
X158120213Y-141844890D01*
X157969894Y-141995209D01*
X157969890Y-141995214D01*
X157850008Y-142160218D01*
X157794678Y-142202884D01*
X157725065Y-142208863D01*
X157663270Y-142176257D01*
X157649372Y-142160218D01*
X157529727Y-141995540D01*
X157529723Y-141995535D01*
X157379464Y-141845276D01*
X157379459Y-141845272D01*
X157207557Y-141720379D01*
X157018215Y-141623903D01*
X156816124Y-141558241D01*
X156750000Y-141547768D01*
X156750000Y-142595854D01*
X156683343Y-142557370D01*
X156562535Y-142525000D01*
X156437465Y-142525000D01*
X156316657Y-142557370D01*
X156250000Y-142595854D01*
X156250000Y-141547768D01*
X156249999Y-141547768D01*
X156183875Y-141558241D01*
X155981784Y-141623903D01*
X155792442Y-141720379D01*
X155620540Y-141845272D01*
X155620535Y-141845276D01*
X155470276Y-141995535D01*
X155470272Y-141995540D01*
X155345379Y-142167442D01*
X155248904Y-142356782D01*
X155183242Y-142558869D01*
X155183242Y-142558872D01*
X155152970Y-142750000D01*
X156095854Y-142750000D01*
X156057370Y-142816657D01*
X156025000Y-142937465D01*
X156025000Y-143062535D01*
X156057370Y-143183343D01*
X156095854Y-143250000D01*
X155152970Y-143250000D01*
X67250500Y-143250000D01*
X67250500Y-120600006D01*
X98427225Y-120600006D01*
X98445892Y-120825289D01*
X98501388Y-121044439D01*
X98592198Y-121251466D01*
X98715842Y-121440716D01*
X98715850Y-121440727D01*
X98868950Y-121607036D01*
X98868954Y-121607040D01*
X99047351Y-121745893D01*
X99246169Y-121853488D01*
X99246172Y-121853489D01*
X99459982Y-121926890D01*
X99459984Y-121926890D01*
X99459986Y-121926891D01*
X99682967Y-121964100D01*
X99682968Y-121964100D01*
X99909032Y-121964100D01*
X99909033Y-121964100D01*
X100132014Y-121926891D01*
X100345831Y-121853488D01*
X100544649Y-121745893D01*
X100723046Y-121607040D01*
X100876156Y-121440719D01*
X100962193Y-121309028D01*
X101015338Y-121263675D01*
X101084569Y-121254251D01*
X101147905Y-121283753D01*
X101169804Y-121309025D01*
X101255844Y-121440719D01*
X101255849Y-121440724D01*
X101255850Y-121440727D01*
X101408950Y-121607036D01*
X101408954Y-121607040D01*
X101587351Y-121745893D01*
X101786169Y-121853488D01*
X101786172Y-121853489D01*
X101999982Y-121926890D01*
X101999984Y-121926890D01*
X101999986Y-121926891D01*
X102222967Y-121964100D01*
X102222968Y-121964100D01*
X102449032Y-121964100D01*
X102449033Y-121964100D01*
X102672014Y-121926891D01*
X102885831Y-121853488D01*
X103084649Y-121745893D01*
X103263046Y-121607040D01*
X103416156Y-121440719D01*
X103502193Y-121309028D01*
X103555338Y-121263675D01*
X103624569Y-121254251D01*
X103687905Y-121283753D01*
X103709804Y-121309025D01*
X103795844Y-121440719D01*
X103795849Y-121440724D01*
X103795850Y-121440727D01*
X103948950Y-121607036D01*
X103948954Y-121607040D01*
X104127351Y-121745893D01*
X104326169Y-121853488D01*
X104326172Y-121853489D01*
X104539982Y-121926890D01*
X104539984Y-121926890D01*
X104539986Y-121926891D01*
X104762967Y-121964100D01*
X104762968Y-121964100D01*
X104989032Y-121964100D01*
X104989033Y-121964100D01*
X105212014Y-121926891D01*
X105425831Y-121853488D01*
X105624649Y-121745893D01*
X105803046Y-121607040D01*
X105857815Y-121547545D01*
X105917699Y-121511557D01*
X105987537Y-121513657D01*
X106045153Y-121553180D01*
X106065224Y-121588196D01*
X106109046Y-121705688D01*
X106109049Y-121705693D01*
X106195209Y-121820787D01*
X106195212Y-121820790D01*
X106310306Y-121906950D01*
X106310313Y-121906954D01*
X106445020Y-121957196D01*
X106445027Y-121957198D01*
X106504555Y-121963599D01*
X106504572Y-121963600D01*
X107166000Y-121963600D01*
X107166000Y-121042251D01*
X107219919Y-121073381D01*
X107349120Y-121108000D01*
X107482880Y-121108000D01*
X107612081Y-121073381D01*
X107666000Y-121042251D01*
X107666000Y-121963600D01*
X108327428Y-121963600D01*
X108327444Y-121963599D01*
X108386972Y-121957198D01*
X108386979Y-121957196D01*
X108521686Y-121906954D01*
X108521693Y-121906950D01*
X108636787Y-121820790D01*
X108636790Y-121820787D01*
X108722950Y-121705693D01*
X108722954Y-121705686D01*
X108766775Y-121588197D01*
X108808646Y-121532263D01*
X108874110Y-121507846D01*
X108942383Y-121522698D01*
X108974186Y-121547547D01*
X109028950Y-121607036D01*
X109028954Y-121607040D01*
X109207351Y-121745893D01*
X109406169Y-121853488D01*
X109406172Y-121853489D01*
X109619982Y-121926890D01*
X109619984Y-121926890D01*
X109619986Y-121926891D01*
X109842967Y-121964100D01*
X109842968Y-121964100D01*
X110069032Y-121964100D01*
X110069033Y-121964100D01*
X110292014Y-121926891D01*
X110505831Y-121853488D01*
X110704649Y-121745893D01*
X110883046Y-121607040D01*
X111036156Y-121440719D01*
X111122193Y-121309028D01*
X111175338Y-121263675D01*
X111244569Y-121254251D01*
X111307905Y-121283753D01*
X111329804Y-121309025D01*
X111415844Y-121440719D01*
X111415849Y-121440724D01*
X111415850Y-121440727D01*
X111568950Y-121607036D01*
X111568954Y-121607040D01*
X111747351Y-121745893D01*
X111946169Y-121853488D01*
X111946172Y-121853489D01*
X112159982Y-121926890D01*
X112159984Y-121926890D01*
X112159986Y-121926891D01*
X112382967Y-121964100D01*
X112382968Y-121964100D01*
X112609032Y-121964100D01*
X112609033Y-121964100D01*
X112832014Y-121926891D01*
X113045831Y-121853488D01*
X113244649Y-121745893D01*
X113423046Y-121607040D01*
X113576156Y-121440719D01*
X113662193Y-121309028D01*
X113715338Y-121263675D01*
X113784569Y-121254251D01*
X113847905Y-121283753D01*
X113869804Y-121309025D01*
X113955844Y-121440719D01*
X113955849Y-121440724D01*
X113955850Y-121440727D01*
X114108950Y-121607036D01*
X114108954Y-121607040D01*
X114287351Y-121745893D01*
X114486169Y-121853488D01*
X114486172Y-121853489D01*
X114699982Y-121926890D01*
X114699984Y-121926890D01*
X114699986Y-121926891D01*
X114922967Y-121964100D01*
X114922968Y-121964100D01*
X115149032Y-121964100D01*
X115149033Y-121964100D01*
X115372014Y-121926891D01*
X115585831Y-121853488D01*
X115784649Y-121745893D01*
X115963046Y-121607040D01*
X116116156Y-121440719D01*
X116202193Y-121309028D01*
X116255338Y-121263675D01*
X116324569Y-121254251D01*
X116387905Y-121283753D01*
X116409804Y-121309025D01*
X116495844Y-121440719D01*
X116495849Y-121440724D01*
X116495850Y-121440727D01*
X116648950Y-121607036D01*
X116648954Y-121607040D01*
X116827351Y-121745893D01*
X117026169Y-121853488D01*
X117026172Y-121853489D01*
X117239982Y-121926890D01*
X117239984Y-121926890D01*
X117239986Y-121926891D01*
X117462967Y-121964100D01*
X117462968Y-121964100D01*
X117689032Y-121964100D01*
X117689033Y-121964100D01*
X117912014Y-121926891D01*
X118125831Y-121853488D01*
X118324649Y-121745893D01*
X118503046Y-121607040D01*
X118656156Y-121440719D01*
X118742193Y-121309028D01*
X118795338Y-121263675D01*
X118864569Y-121254251D01*
X118927905Y-121283753D01*
X118949804Y-121309025D01*
X119035844Y-121440719D01*
X119035849Y-121440724D01*
X119035850Y-121440727D01*
X119188950Y-121607036D01*
X119188954Y-121607040D01*
X119367351Y-121745893D01*
X119566169Y-121853488D01*
X119566172Y-121853489D01*
X119779982Y-121926890D01*
X119779984Y-121926890D01*
X119779986Y-121926891D01*
X120002967Y-121964100D01*
X120002968Y-121964100D01*
X120229032Y-121964100D01*
X120229033Y-121964100D01*
X120452014Y-121926891D01*
X120665831Y-121853488D01*
X120864649Y-121745893D01*
X121043046Y-121607040D01*
X121196156Y-121440719D01*
X121282193Y-121309028D01*
X121335338Y-121263675D01*
X121404569Y-121254251D01*
X121467905Y-121283753D01*
X121489804Y-121309025D01*
X121575844Y-121440719D01*
X121575849Y-121440724D01*
X121575850Y-121440727D01*
X121728950Y-121607036D01*
X121728954Y-121607040D01*
X121907351Y-121745893D01*
X122106169Y-121853488D01*
X122106172Y-121853489D01*
X122319982Y-121926890D01*
X122319984Y-121926890D01*
X122319986Y-121926891D01*
X122542967Y-121964100D01*
X122542968Y-121964100D01*
X122769032Y-121964100D01*
X122769033Y-121964100D01*
X122992014Y-121926891D01*
X123205831Y-121853488D01*
X123404649Y-121745893D01*
X123583046Y-121607040D01*
X123736156Y-121440719D01*
X123859802Y-121251465D01*
X123950611Y-121044441D01*
X124006107Y-120825293D01*
X124016074Y-120705011D01*
X124024775Y-120600006D01*
X124024775Y-120599993D01*
X124011707Y-120442294D01*
X124006107Y-120374707D01*
X123950611Y-120155559D01*
X123859802Y-119948535D01*
X123736156Y-119759281D01*
X123736153Y-119759278D01*
X123736149Y-119759272D01*
X123583049Y-119592963D01*
X123583048Y-119592962D01*
X123583046Y-119592960D01*
X123404649Y-119454107D01*
X123285889Y-119389837D01*
X123205832Y-119346512D01*
X123205827Y-119346510D01*
X122992017Y-119273109D01*
X122810388Y-119242801D01*
X122769033Y-119235900D01*
X122542967Y-119235900D01*
X122501612Y-119242801D01*
X122319982Y-119273109D01*
X122106172Y-119346510D01*
X122106167Y-119346512D01*
X121907352Y-119454106D01*
X121728955Y-119592959D01*
X121728950Y-119592963D01*
X121575850Y-119759272D01*
X121575842Y-119759283D01*
X121489808Y-119890968D01*
X121436662Y-119936325D01*
X121367430Y-119945748D01*
X121304095Y-119916246D01*
X121282192Y-119890968D01*
X121196157Y-119759283D01*
X121196149Y-119759272D01*
X121043049Y-119592963D01*
X121043048Y-119592962D01*
X121043046Y-119592960D01*
X120864649Y-119454107D01*
X120745889Y-119389837D01*
X120665832Y-119346512D01*
X120665827Y-119346510D01*
X120452017Y-119273109D01*
X120270388Y-119242801D01*
X120229033Y-119235900D01*
X120002967Y-119235900D01*
X119961612Y-119242801D01*
X119779982Y-119273109D01*
X119566172Y-119346510D01*
X119566167Y-119346512D01*
X119367352Y-119454106D01*
X119188955Y-119592959D01*
X119188950Y-119592963D01*
X119035850Y-119759272D01*
X119035842Y-119759283D01*
X118949808Y-119890968D01*
X118896662Y-119936325D01*
X118827430Y-119945748D01*
X118764095Y-119916246D01*
X118742192Y-119890968D01*
X118656157Y-119759283D01*
X118656149Y-119759272D01*
X118503049Y-119592963D01*
X118503048Y-119592962D01*
X118503046Y-119592960D01*
X118324649Y-119454107D01*
X118205889Y-119389837D01*
X118125832Y-119346512D01*
X118125827Y-119346510D01*
X117912017Y-119273109D01*
X117730388Y-119242801D01*
X117689033Y-119235900D01*
X117462967Y-119235900D01*
X117421612Y-119242801D01*
X117239982Y-119273109D01*
X117026172Y-119346510D01*
X117026167Y-119346512D01*
X116827352Y-119454106D01*
X116648955Y-119592959D01*
X116648950Y-119592963D01*
X116495850Y-119759272D01*
X116495842Y-119759283D01*
X116409808Y-119890968D01*
X116356662Y-119936325D01*
X116287430Y-119945748D01*
X116224095Y-119916246D01*
X116202192Y-119890968D01*
X116116157Y-119759283D01*
X116116149Y-119759272D01*
X115963049Y-119592963D01*
X115963048Y-119592962D01*
X115963046Y-119592960D01*
X115784649Y-119454107D01*
X115665889Y-119389837D01*
X115585832Y-119346512D01*
X115585827Y-119346510D01*
X115372017Y-119273109D01*
X115190388Y-119242801D01*
X115149033Y-119235900D01*
X114922967Y-119235900D01*
X114881612Y-119242801D01*
X114699982Y-119273109D01*
X114486172Y-119346510D01*
X114486167Y-119346512D01*
X114287352Y-119454106D01*
X114108955Y-119592959D01*
X114108950Y-119592963D01*
X113955850Y-119759272D01*
X113955842Y-119759283D01*
X113869808Y-119890968D01*
X113816662Y-119936325D01*
X113747430Y-119945748D01*
X113684095Y-119916246D01*
X113662192Y-119890968D01*
X113576157Y-119759283D01*
X113576149Y-119759272D01*
X113423049Y-119592963D01*
X113423048Y-119592962D01*
X113423046Y-119592960D01*
X113244649Y-119454107D01*
X113125889Y-119389837D01*
X113045832Y-119346512D01*
X113045827Y-119346510D01*
X112832017Y-119273109D01*
X112650388Y-119242801D01*
X112609033Y-119235900D01*
X112382967Y-119235900D01*
X112341612Y-119242801D01*
X112159982Y-119273109D01*
X111946172Y-119346510D01*
X111946167Y-119346512D01*
X111747352Y-119454106D01*
X111568955Y-119592959D01*
X111568950Y-119592963D01*
X111415850Y-119759272D01*
X111415842Y-119759283D01*
X111329808Y-119890968D01*
X111276662Y-119936325D01*
X111207430Y-119945748D01*
X111144095Y-119916246D01*
X111122192Y-119890968D01*
X111036157Y-119759283D01*
X111036149Y-119759272D01*
X110883049Y-119592963D01*
X110883048Y-119592962D01*
X110883046Y-119592960D01*
X110704649Y-119454107D01*
X110585889Y-119389837D01*
X110505832Y-119346512D01*
X110505827Y-119346510D01*
X110292017Y-119273109D01*
X110110388Y-119242801D01*
X110069033Y-119235900D01*
X109842967Y-119235900D01*
X109801612Y-119242801D01*
X109619982Y-119273109D01*
X109406172Y-119346510D01*
X109406167Y-119346512D01*
X109207352Y-119454106D01*
X109028955Y-119592958D01*
X108974186Y-119652453D01*
X108914298Y-119688443D01*
X108844460Y-119686342D01*
X108786845Y-119646817D01*
X108766775Y-119611802D01*
X108722954Y-119494313D01*
X108722950Y-119494306D01*
X108636790Y-119379212D01*
X108636787Y-119379209D01*
X108521693Y-119293049D01*
X108521686Y-119293045D01*
X108386979Y-119242803D01*
X108386972Y-119242801D01*
X108327444Y-119236400D01*
X107666000Y-119236400D01*
X107666000Y-120157748D01*
X107612081Y-120126619D01*
X107482880Y-120092000D01*
X107349120Y-120092000D01*
X107219919Y-120126619D01*
X107166000Y-120157748D01*
X107166000Y-119236400D01*
X106504555Y-119236400D01*
X106445027Y-119242801D01*
X106445020Y-119242803D01*
X106310313Y-119293045D01*
X106310306Y-119293049D01*
X106195212Y-119379209D01*
X106195209Y-119379212D01*
X106109049Y-119494306D01*
X106109046Y-119494312D01*
X106065224Y-119611803D01*
X106023352Y-119667736D01*
X105957887Y-119692153D01*
X105889615Y-119677301D01*
X105857813Y-119652452D01*
X105803049Y-119592963D01*
X105803048Y-119592962D01*
X105803046Y-119592960D01*
X105624649Y-119454107D01*
X105505889Y-119389837D01*
X105425832Y-119346512D01*
X105425827Y-119346510D01*
X105212017Y-119273109D01*
X105030388Y-119242801D01*
X104989033Y-119235900D01*
X104762967Y-119235900D01*
X104721612Y-119242801D01*
X104539982Y-119273109D01*
X104326172Y-119346510D01*
X104326167Y-119346512D01*
X104127352Y-119454106D01*
X103948955Y-119592959D01*
X103948950Y-119592963D01*
X103795850Y-119759272D01*
X103795842Y-119759283D01*
X103709808Y-119890968D01*
X103656662Y-119936325D01*
X103587430Y-119945748D01*
X103524095Y-119916246D01*
X103502192Y-119890968D01*
X103416157Y-119759283D01*
X103416149Y-119759272D01*
X103263049Y-119592963D01*
X103263048Y-119592962D01*
X103263046Y-119592960D01*
X103084649Y-119454107D01*
X102965889Y-119389837D01*
X102885832Y-119346512D01*
X102885827Y-119346510D01*
X102672017Y-119273109D01*
X102490388Y-119242801D01*
X102449033Y-119235900D01*
X102222967Y-119235900D01*
X102181612Y-119242801D01*
X101999982Y-119273109D01*
X101786172Y-119346510D01*
X101786167Y-119346512D01*
X101587352Y-119454106D01*
X101408955Y-119592959D01*
X101408950Y-119592963D01*
X101255850Y-119759272D01*
X101255842Y-119759283D01*
X101169808Y-119890968D01*
X101116662Y-119936325D01*
X101047430Y-119945748D01*
X100984095Y-119916246D01*
X100962192Y-119890968D01*
X100876157Y-119759283D01*
X100876149Y-119759272D01*
X100723049Y-119592963D01*
X100723048Y-119592962D01*
X100723046Y-119592960D01*
X100544649Y-119454107D01*
X100425889Y-119389837D01*
X100345832Y-119346512D01*
X100345827Y-119346510D01*
X100132017Y-119273109D01*
X99950388Y-119242801D01*
X99909033Y-119235900D01*
X99682967Y-119235900D01*
X99641612Y-119242801D01*
X99459982Y-119273109D01*
X99246172Y-119346510D01*
X99246167Y-119346512D01*
X99047352Y-119454106D01*
X98868955Y-119592959D01*
X98868950Y-119592963D01*
X98715850Y-119759272D01*
X98715842Y-119759283D01*
X98592198Y-119948533D01*
X98501388Y-120155560D01*
X98445892Y-120374710D01*
X98427225Y-120599993D01*
X98427225Y-120600006D01*
X67250500Y-120600006D01*
X67250500Y-72340006D01*
X107571225Y-72340006D01*
X107589892Y-72565289D01*
X107645388Y-72784439D01*
X107736198Y-72991466D01*
X107859842Y-73180716D01*
X107859850Y-73180727D01*
X107995987Y-73328609D01*
X108012954Y-73347040D01*
X108191351Y-73485893D01*
X108390169Y-73593488D01*
X108390172Y-73593489D01*
X108603982Y-73666890D01*
X108603984Y-73666890D01*
X108603986Y-73666891D01*
X108826967Y-73704100D01*
X108826968Y-73704100D01*
X109053032Y-73704100D01*
X109053033Y-73704100D01*
X109276014Y-73666891D01*
X109489831Y-73593488D01*
X109688649Y-73485893D01*
X109867046Y-73347040D01*
X110020156Y-73180719D01*
X110106193Y-73049028D01*
X110159338Y-73003675D01*
X110228569Y-72994251D01*
X110291905Y-73023753D01*
X110313804Y-73049025D01*
X110399844Y-73180719D01*
X110399849Y-73180724D01*
X110399850Y-73180727D01*
X110535987Y-73328609D01*
X110552954Y-73347040D01*
X110731351Y-73485893D01*
X110930169Y-73593488D01*
X110930172Y-73593489D01*
X111143982Y-73666890D01*
X111143984Y-73666890D01*
X111143986Y-73666891D01*
X111366967Y-73704100D01*
X111366968Y-73704100D01*
X111593032Y-73704100D01*
X111593033Y-73704100D01*
X111816014Y-73666891D01*
X112029831Y-73593488D01*
X112228649Y-73485893D01*
X112407046Y-73347040D01*
X112560156Y-73180719D01*
X112646193Y-73049028D01*
X112699338Y-73003675D01*
X112768569Y-72994251D01*
X112831905Y-73023753D01*
X112853804Y-73049025D01*
X112939844Y-73180719D01*
X112939849Y-73180724D01*
X112939850Y-73180727D01*
X113075987Y-73328609D01*
X113092954Y-73347040D01*
X113271351Y-73485893D01*
X113470169Y-73593488D01*
X113470172Y-73593489D01*
X113683982Y-73666890D01*
X113683984Y-73666890D01*
X113683986Y-73666891D01*
X113906967Y-73704100D01*
X113906968Y-73704100D01*
X114133032Y-73704100D01*
X114133033Y-73704100D01*
X114356014Y-73666891D01*
X114569831Y-73593488D01*
X114768649Y-73485893D01*
X114947046Y-73347040D01*
X115100156Y-73180719D01*
X115186193Y-73049028D01*
X115239338Y-73003675D01*
X115308569Y-72994251D01*
X115371905Y-73023753D01*
X115393804Y-73049025D01*
X115479844Y-73180719D01*
X115479849Y-73180724D01*
X115479850Y-73180727D01*
X115615987Y-73328609D01*
X115632954Y-73347040D01*
X115811351Y-73485893D01*
X116010169Y-73593488D01*
X116010172Y-73593489D01*
X116223982Y-73666890D01*
X116223984Y-73666890D01*
X116223986Y-73666891D01*
X116446967Y-73704100D01*
X116446968Y-73704100D01*
X116673032Y-73704100D01*
X116673033Y-73704100D01*
X116896014Y-73666891D01*
X117109831Y-73593488D01*
X117308649Y-73485893D01*
X117487046Y-73347040D01*
X117640156Y-73180719D01*
X117726193Y-73049028D01*
X117779338Y-73003675D01*
X117848569Y-72994251D01*
X117911905Y-73023753D01*
X117933804Y-73049025D01*
X118019844Y-73180719D01*
X118019849Y-73180724D01*
X118019850Y-73180727D01*
X118155987Y-73328609D01*
X118172954Y-73347040D01*
X118351351Y-73485893D01*
X118550169Y-73593488D01*
X118550172Y-73593489D01*
X118763982Y-73666890D01*
X118763984Y-73666890D01*
X118763986Y-73666891D01*
X118986967Y-73704100D01*
X118986968Y-73704100D01*
X119213032Y-73704100D01*
X119213033Y-73704100D01*
X119436014Y-73666891D01*
X119649831Y-73593488D01*
X119848649Y-73485893D01*
X120027046Y-73347040D01*
X120081435Y-73287957D01*
X120141320Y-73251969D01*
X120211158Y-73254069D01*
X120268774Y-73293593D01*
X120288845Y-73328609D01*
X120332602Y-73445928D01*
X120332606Y-73445935D01*
X120418852Y-73561144D01*
X120418855Y-73561147D01*
X120534064Y-73647393D01*
X120534071Y-73647397D01*
X120668917Y-73697691D01*
X120668916Y-73697691D01*
X120675844Y-73698435D01*
X120728527Y-73704100D01*
X122551472Y-73704099D01*
X122611083Y-73697691D01*
X122745931Y-73647396D01*
X122747606Y-73646141D01*
X122836105Y-73579892D01*
X122901569Y-73555474D01*
X122969842Y-73570325D01*
X122984727Y-73579891D01*
X123074310Y-73646952D01*
X123074313Y-73646954D01*
X123209020Y-73697196D01*
X123209027Y-73697198D01*
X123268555Y-73703599D01*
X123268572Y-73703600D01*
X123930000Y-73703600D01*
X123930000Y-72782251D01*
X123983919Y-72813381D01*
X124113120Y-72848000D01*
X124246880Y-72848000D01*
X124376081Y-72813381D01*
X124430000Y-72782251D01*
X124430000Y-73703600D01*
X125091428Y-73703600D01*
X125091444Y-73703599D01*
X125150972Y-73697198D01*
X125150979Y-73697196D01*
X125285686Y-73646954D01*
X125285693Y-73646950D01*
X125400787Y-73560790D01*
X125400790Y-73560787D01*
X125486950Y-73445693D01*
X125486954Y-73445686D01*
X125530775Y-73328197D01*
X125572646Y-73272263D01*
X125638110Y-73247846D01*
X125706383Y-73262698D01*
X125738186Y-73287547D01*
X125775987Y-73328609D01*
X125792954Y-73347040D01*
X125971351Y-73485893D01*
X126170169Y-73593488D01*
X126170172Y-73593489D01*
X126383982Y-73666890D01*
X126383984Y-73666890D01*
X126383986Y-73666891D01*
X126606967Y-73704100D01*
X126606968Y-73704100D01*
X126833032Y-73704100D01*
X126833033Y-73704100D01*
X127056014Y-73666891D01*
X127269831Y-73593488D01*
X127468649Y-73485893D01*
X127647046Y-73347040D01*
X127800156Y-73180719D01*
X127923802Y-72991465D01*
X128014611Y-72784441D01*
X128070107Y-72565293D01*
X128082201Y-72419336D01*
X128088775Y-72340006D01*
X130431225Y-72340006D01*
X130449892Y-72565289D01*
X130505388Y-72784439D01*
X130596198Y-72991466D01*
X130719842Y-73180716D01*
X130719850Y-73180727D01*
X130855987Y-73328609D01*
X130872954Y-73347040D01*
X131051351Y-73485893D01*
X131250169Y-73593488D01*
X131250172Y-73593489D01*
X131463982Y-73666890D01*
X131463984Y-73666890D01*
X131463986Y-73666891D01*
X131686967Y-73704100D01*
X131686968Y-73704100D01*
X131913032Y-73704100D01*
X131913033Y-73704100D01*
X132136014Y-73666891D01*
X132349831Y-73593488D01*
X132548649Y-73485893D01*
X132727046Y-73347040D01*
X132880156Y-73180719D01*
X132966193Y-73049028D01*
X133019338Y-73003675D01*
X133088569Y-72994251D01*
X133151905Y-73023753D01*
X133173804Y-73049025D01*
X133259844Y-73180719D01*
X133259849Y-73180724D01*
X133259850Y-73180727D01*
X133395987Y-73328609D01*
X133412954Y-73347040D01*
X133591351Y-73485893D01*
X133790169Y-73593488D01*
X133790172Y-73593489D01*
X134003982Y-73666890D01*
X134003984Y-73666890D01*
X134003986Y-73666891D01*
X134226967Y-73704100D01*
X134226968Y-73704100D01*
X134453032Y-73704100D01*
X134453033Y-73704100D01*
X134676014Y-73666891D01*
X134889831Y-73593488D01*
X135088649Y-73485893D01*
X135267046Y-73347040D01*
X135420156Y-73180719D01*
X135506193Y-73049028D01*
X135559338Y-73003675D01*
X135628569Y-72994251D01*
X135691905Y-73023753D01*
X135713804Y-73049025D01*
X135799844Y-73180719D01*
X135799849Y-73180724D01*
X135799850Y-73180727D01*
X135935987Y-73328609D01*
X135952954Y-73347040D01*
X136131351Y-73485893D01*
X136330169Y-73593488D01*
X136330172Y-73593489D01*
X136543982Y-73666890D01*
X136543984Y-73666890D01*
X136543986Y-73666891D01*
X136766967Y-73704100D01*
X136766968Y-73704100D01*
X136993032Y-73704100D01*
X136993033Y-73704100D01*
X137216014Y-73666891D01*
X137429831Y-73593488D01*
X137628649Y-73485893D01*
X137807046Y-73347040D01*
X137960156Y-73180719D01*
X138046193Y-73049028D01*
X138099338Y-73003675D01*
X138168569Y-72994251D01*
X138231905Y-73023753D01*
X138253804Y-73049025D01*
X138339844Y-73180719D01*
X138339849Y-73180724D01*
X138339850Y-73180727D01*
X138475987Y-73328609D01*
X138492954Y-73347040D01*
X138671351Y-73485893D01*
X138870169Y-73593488D01*
X138870172Y-73593489D01*
X139083982Y-73666890D01*
X139083984Y-73666890D01*
X139083986Y-73666891D01*
X139306967Y-73704100D01*
X139306968Y-73704100D01*
X139533032Y-73704100D01*
X139533033Y-73704100D01*
X139756014Y-73666891D01*
X139969831Y-73593488D01*
X140168649Y-73485893D01*
X140347046Y-73347040D01*
X140500156Y-73180719D01*
X140586193Y-73049028D01*
X140639338Y-73003675D01*
X140708569Y-72994251D01*
X140771905Y-73023753D01*
X140793804Y-73049025D01*
X140879844Y-73180719D01*
X140879849Y-73180724D01*
X140879850Y-73180727D01*
X141015987Y-73328609D01*
X141032954Y-73347040D01*
X141211351Y-73485893D01*
X141410169Y-73593488D01*
X141410172Y-73593489D01*
X141623982Y-73666890D01*
X141623984Y-73666890D01*
X141623986Y-73666891D01*
X141846967Y-73704100D01*
X141846968Y-73704100D01*
X142073032Y-73704100D01*
X142073033Y-73704100D01*
X142296014Y-73666891D01*
X142509831Y-73593488D01*
X142708649Y-73485893D01*
X142887046Y-73347040D01*
X143040156Y-73180719D01*
X143126193Y-73049028D01*
X143179338Y-73003675D01*
X143248569Y-72994251D01*
X143311905Y-73023753D01*
X143333804Y-73049025D01*
X143419844Y-73180719D01*
X143419849Y-73180724D01*
X143419850Y-73180727D01*
X143555987Y-73328609D01*
X143572954Y-73347040D01*
X143751351Y-73485893D01*
X143950169Y-73593488D01*
X143950172Y-73593489D01*
X144163982Y-73666890D01*
X144163984Y-73666890D01*
X144163986Y-73666891D01*
X144386967Y-73704100D01*
X144386968Y-73704100D01*
X144613032Y-73704100D01*
X144613033Y-73704100D01*
X144836014Y-73666891D01*
X145049831Y-73593488D01*
X145248649Y-73485893D01*
X145427046Y-73347040D01*
X145580156Y-73180719D01*
X145666193Y-73049028D01*
X145719338Y-73003675D01*
X145788569Y-72994251D01*
X145851905Y-73023753D01*
X145873804Y-73049025D01*
X145959844Y-73180719D01*
X145959849Y-73180724D01*
X145959850Y-73180727D01*
X146095987Y-73328609D01*
X146112954Y-73347040D01*
X146291351Y-73485893D01*
X146490169Y-73593488D01*
X146490172Y-73593489D01*
X146703982Y-73666890D01*
X146703984Y-73666890D01*
X146703986Y-73666891D01*
X146926967Y-73704100D01*
X146926968Y-73704100D01*
X147153032Y-73704100D01*
X147153033Y-73704100D01*
X147376014Y-73666891D01*
X147589831Y-73593488D01*
X147788649Y-73485893D01*
X147967046Y-73347040D01*
X148120156Y-73180719D01*
X148206193Y-73049028D01*
X148259338Y-73003675D01*
X148328569Y-72994251D01*
X148391905Y-73023753D01*
X148413804Y-73049025D01*
X148499844Y-73180719D01*
X148499849Y-73180724D01*
X148499850Y-73180727D01*
X148635987Y-73328609D01*
X148652954Y-73347040D01*
X148831351Y-73485893D01*
X149030169Y-73593488D01*
X149030172Y-73593489D01*
X149243982Y-73666890D01*
X149243984Y-73666890D01*
X149243986Y-73666891D01*
X149466967Y-73704100D01*
X149466968Y-73704100D01*
X149693032Y-73704100D01*
X149693033Y-73704100D01*
X149916014Y-73666891D01*
X150129831Y-73593488D01*
X150328649Y-73485893D01*
X150507046Y-73347040D01*
X150660156Y-73180719D01*
X150783802Y-72991465D01*
X150874611Y-72784441D01*
X150930107Y-72565293D01*
X150942201Y-72419336D01*
X150948775Y-72340006D01*
X153291225Y-72340006D01*
X153309892Y-72565289D01*
X153365388Y-72784439D01*
X153456198Y-72991466D01*
X153579842Y-73180716D01*
X153579850Y-73180727D01*
X153715987Y-73328609D01*
X153732954Y-73347040D01*
X153911351Y-73485893D01*
X154110169Y-73593488D01*
X154110172Y-73593489D01*
X154323982Y-73666890D01*
X154323984Y-73666890D01*
X154323986Y-73666891D01*
X154546967Y-73704100D01*
X154546968Y-73704100D01*
X154773032Y-73704100D01*
X154773033Y-73704100D01*
X154996014Y-73666891D01*
X155209831Y-73593488D01*
X155408649Y-73485893D01*
X155587046Y-73347040D01*
X155740156Y-73180719D01*
X155826193Y-73049028D01*
X155879338Y-73003675D01*
X155948569Y-72994251D01*
X156011905Y-73023753D01*
X156033804Y-73049025D01*
X156119844Y-73180719D01*
X156119849Y-73180724D01*
X156119850Y-73180727D01*
X156255987Y-73328609D01*
X156272954Y-73347040D01*
X156451351Y-73485893D01*
X156650169Y-73593488D01*
X156650172Y-73593489D01*
X156863982Y-73666890D01*
X156863984Y-73666890D01*
X156863986Y-73666891D01*
X157086967Y-73704100D01*
X157086968Y-73704100D01*
X157313032Y-73704100D01*
X157313033Y-73704100D01*
X157536014Y-73666891D01*
X157749831Y-73593488D01*
X157948649Y-73485893D01*
X158127046Y-73347040D01*
X158280156Y-73180719D01*
X158366193Y-73049028D01*
X158419338Y-73003675D01*
X158488569Y-72994251D01*
X158551905Y-73023753D01*
X158573804Y-73049025D01*
X158659844Y-73180719D01*
X158659849Y-73180724D01*
X158659850Y-73180727D01*
X158795987Y-73328609D01*
X158812954Y-73347040D01*
X158991351Y-73485893D01*
X159190169Y-73593488D01*
X159190172Y-73593489D01*
X159403982Y-73666890D01*
X159403984Y-73666890D01*
X159403986Y-73666891D01*
X159626967Y-73704100D01*
X159626968Y-73704100D01*
X159853032Y-73704100D01*
X159853033Y-73704100D01*
X160076014Y-73666891D01*
X160289831Y-73593488D01*
X160488649Y-73485893D01*
X160667046Y-73347040D01*
X160820156Y-73180719D01*
X160906193Y-73049028D01*
X160959338Y-73003675D01*
X161028569Y-72994251D01*
X161091905Y-73023753D01*
X161113804Y-73049025D01*
X161199844Y-73180719D01*
X161199849Y-73180724D01*
X161199850Y-73180727D01*
X161335987Y-73328609D01*
X161352954Y-73347040D01*
X161531351Y-73485893D01*
X161730169Y-73593488D01*
X161730172Y-73593489D01*
X161943982Y-73666890D01*
X161943984Y-73666890D01*
X161943986Y-73666891D01*
X162166967Y-73704100D01*
X162166968Y-73704100D01*
X162393032Y-73704100D01*
X162393033Y-73704100D01*
X162616014Y-73666891D01*
X162829831Y-73593488D01*
X163028649Y-73485893D01*
X163207046Y-73347040D01*
X163360156Y-73180719D01*
X163446193Y-73049028D01*
X163499338Y-73003675D01*
X163568569Y-72994251D01*
X163631905Y-73023753D01*
X163653804Y-73049025D01*
X163739844Y-73180719D01*
X163739849Y-73180724D01*
X163739850Y-73180727D01*
X163875987Y-73328609D01*
X163892954Y-73347040D01*
X164071351Y-73485893D01*
X164270169Y-73593488D01*
X164270172Y-73593489D01*
X164483982Y-73666890D01*
X164483984Y-73666890D01*
X164483986Y-73666891D01*
X164706967Y-73704100D01*
X164706968Y-73704100D01*
X164933032Y-73704100D01*
X164933033Y-73704100D01*
X165156014Y-73666891D01*
X165369831Y-73593488D01*
X165568649Y-73485893D01*
X165747046Y-73347040D01*
X165900156Y-73180719D01*
X165986193Y-73049028D01*
X166039338Y-73003675D01*
X166108569Y-72994251D01*
X166171905Y-73023753D01*
X166193804Y-73049025D01*
X166279844Y-73180719D01*
X166279849Y-73180724D01*
X166279850Y-73180727D01*
X166415987Y-73328609D01*
X166432954Y-73347040D01*
X166611351Y-73485893D01*
X166810169Y-73593488D01*
X166810172Y-73593489D01*
X167023982Y-73666890D01*
X167023984Y-73666890D01*
X167023986Y-73666891D01*
X167246967Y-73704100D01*
X167246968Y-73704100D01*
X167473032Y-73704100D01*
X167473033Y-73704100D01*
X167696014Y-73666891D01*
X167909831Y-73593488D01*
X168108649Y-73485893D01*
X168287046Y-73347040D01*
X168440156Y-73180719D01*
X168526193Y-73049028D01*
X168579338Y-73003675D01*
X168648569Y-72994251D01*
X168711905Y-73023753D01*
X168733804Y-73049025D01*
X168819844Y-73180719D01*
X168819849Y-73180724D01*
X168819850Y-73180727D01*
X168955987Y-73328609D01*
X168972954Y-73347040D01*
X169151351Y-73485893D01*
X169350169Y-73593488D01*
X169350172Y-73593489D01*
X169563982Y-73666890D01*
X169563984Y-73666890D01*
X169563986Y-73666891D01*
X169786967Y-73704100D01*
X169786968Y-73704100D01*
X170013032Y-73704100D01*
X170013033Y-73704100D01*
X170236014Y-73666891D01*
X170449831Y-73593488D01*
X170648649Y-73485893D01*
X170827046Y-73347040D01*
X170980156Y-73180719D01*
X171066193Y-73049028D01*
X171119338Y-73003675D01*
X171188569Y-72994251D01*
X171251905Y-73023753D01*
X171273804Y-73049025D01*
X171359844Y-73180719D01*
X171359849Y-73180724D01*
X171359850Y-73180727D01*
X171495987Y-73328609D01*
X171512954Y-73347040D01*
X171691351Y-73485893D01*
X171890169Y-73593488D01*
X171890172Y-73593489D01*
X172103982Y-73666890D01*
X172103984Y-73666890D01*
X172103986Y-73666891D01*
X172326967Y-73704100D01*
X172326968Y-73704100D01*
X172553032Y-73704100D01*
X172553033Y-73704100D01*
X172776014Y-73666891D01*
X172989831Y-73593488D01*
X173188649Y-73485893D01*
X173367046Y-73347040D01*
X173520156Y-73180719D01*
X173643802Y-72991465D01*
X173734611Y-72784441D01*
X173790107Y-72565293D01*
X173802201Y-72419336D01*
X173808775Y-72340006D01*
X173808775Y-72339993D01*
X173793031Y-72150001D01*
X173790107Y-72114707D01*
X173734611Y-71895559D01*
X173643802Y-71688535D01*
X173520156Y-71499281D01*
X173520153Y-71499278D01*
X173520149Y-71499272D01*
X173367049Y-71332963D01*
X173367048Y-71332962D01*
X173367046Y-71332960D01*
X173188649Y-71194107D01*
X173155318Y-71176069D01*
X172989832Y-71086512D01*
X172989827Y-71086510D01*
X172776017Y-71013109D01*
X172591434Y-70982308D01*
X172553033Y-70975900D01*
X172326967Y-70975900D01*
X172288566Y-70982308D01*
X172103982Y-71013109D01*
X171890172Y-71086510D01*
X171890167Y-71086512D01*
X171691352Y-71194106D01*
X171512955Y-71332959D01*
X171512950Y-71332963D01*
X171359850Y-71499272D01*
X171359842Y-71499283D01*
X171273808Y-71630968D01*
X171220662Y-71676325D01*
X171151430Y-71685748D01*
X171088095Y-71656246D01*
X171066192Y-71630968D01*
X170980157Y-71499283D01*
X170980149Y-71499272D01*
X170827049Y-71332963D01*
X170827048Y-71332962D01*
X170827046Y-71332960D01*
X170648649Y-71194107D01*
X170615318Y-71176069D01*
X170449832Y-71086512D01*
X170449827Y-71086510D01*
X170236017Y-71013109D01*
X170051434Y-70982308D01*
X170013033Y-70975900D01*
X169786967Y-70975900D01*
X169748566Y-70982308D01*
X169563982Y-71013109D01*
X169350172Y-71086510D01*
X169350167Y-71086512D01*
X169151352Y-71194106D01*
X168972955Y-71332959D01*
X168972950Y-71332963D01*
X168819850Y-71499272D01*
X168819842Y-71499283D01*
X168733808Y-71630968D01*
X168680662Y-71676325D01*
X168611430Y-71685748D01*
X168548095Y-71656246D01*
X168526192Y-71630968D01*
X168440157Y-71499283D01*
X168440149Y-71499272D01*
X168287049Y-71332963D01*
X168287048Y-71332962D01*
X168287046Y-71332960D01*
X168108649Y-71194107D01*
X168075318Y-71176069D01*
X167909832Y-71086512D01*
X167909827Y-71086510D01*
X167696017Y-71013109D01*
X167511434Y-70982308D01*
X167473033Y-70975900D01*
X167246967Y-70975900D01*
X167208566Y-70982308D01*
X167023982Y-71013109D01*
X166810172Y-71086510D01*
X166810167Y-71086512D01*
X166611352Y-71194106D01*
X166432955Y-71332959D01*
X166432950Y-71332963D01*
X166279850Y-71499272D01*
X166279842Y-71499283D01*
X166193808Y-71630968D01*
X166140662Y-71676325D01*
X166071430Y-71685748D01*
X166008095Y-71656246D01*
X165986192Y-71630968D01*
X165900157Y-71499283D01*
X165900149Y-71499272D01*
X165747049Y-71332963D01*
X165747048Y-71332962D01*
X165747046Y-71332960D01*
X165568649Y-71194107D01*
X165535318Y-71176069D01*
X165369832Y-71086512D01*
X165369827Y-71086510D01*
X165156017Y-71013109D01*
X164971434Y-70982308D01*
X164933033Y-70975900D01*
X164706967Y-70975900D01*
X164668566Y-70982308D01*
X164483982Y-71013109D01*
X164270172Y-71086510D01*
X164270167Y-71086512D01*
X164071352Y-71194106D01*
X163892955Y-71332959D01*
X163892950Y-71332963D01*
X163739850Y-71499272D01*
X163739842Y-71499283D01*
X163653808Y-71630968D01*
X163600662Y-71676325D01*
X163531430Y-71685748D01*
X163468095Y-71656246D01*
X163446192Y-71630968D01*
X163360157Y-71499283D01*
X163360149Y-71499272D01*
X163207049Y-71332963D01*
X163207048Y-71332962D01*
X163207046Y-71332960D01*
X163028649Y-71194107D01*
X162995318Y-71176069D01*
X162829832Y-71086512D01*
X162829827Y-71086510D01*
X162616017Y-71013109D01*
X162431434Y-70982308D01*
X162393033Y-70975900D01*
X162166967Y-70975900D01*
X162128566Y-70982308D01*
X161943982Y-71013109D01*
X161730172Y-71086510D01*
X161730167Y-71086512D01*
X161531352Y-71194106D01*
X161352955Y-71332959D01*
X161352950Y-71332963D01*
X161199850Y-71499272D01*
X161199842Y-71499283D01*
X161113808Y-71630968D01*
X161060662Y-71676325D01*
X160991430Y-71685748D01*
X160928095Y-71656246D01*
X160906192Y-71630968D01*
X160820157Y-71499283D01*
X160820149Y-71499272D01*
X160667049Y-71332963D01*
X160667048Y-71332962D01*
X160667046Y-71332960D01*
X160488649Y-71194107D01*
X160455318Y-71176069D01*
X160289832Y-71086512D01*
X160289827Y-71086510D01*
X160076017Y-71013109D01*
X159891434Y-70982308D01*
X159853033Y-70975900D01*
X159626967Y-70975900D01*
X159588566Y-70982308D01*
X159403982Y-71013109D01*
X159190172Y-71086510D01*
X159190167Y-71086512D01*
X158991352Y-71194106D01*
X158812955Y-71332959D01*
X158812950Y-71332963D01*
X158659850Y-71499272D01*
X158659842Y-71499283D01*
X158573808Y-71630968D01*
X158520662Y-71676325D01*
X158451430Y-71685748D01*
X158388095Y-71656246D01*
X158366192Y-71630968D01*
X158280157Y-71499283D01*
X158280149Y-71499272D01*
X158127049Y-71332963D01*
X158127048Y-71332962D01*
X158127046Y-71332960D01*
X157948649Y-71194107D01*
X157915318Y-71176069D01*
X157749832Y-71086512D01*
X157749827Y-71086510D01*
X157536017Y-71013109D01*
X157351434Y-70982308D01*
X157313033Y-70975900D01*
X157086967Y-70975900D01*
X157048566Y-70982308D01*
X156863982Y-71013109D01*
X156650172Y-71086510D01*
X156650167Y-71086512D01*
X156451352Y-71194106D01*
X156272955Y-71332959D01*
X156272950Y-71332963D01*
X156119850Y-71499272D01*
X156119842Y-71499283D01*
X156033808Y-71630968D01*
X155980662Y-71676325D01*
X155911430Y-71685748D01*
X155848095Y-71656246D01*
X155826192Y-71630968D01*
X155740157Y-71499283D01*
X155740149Y-71499272D01*
X155587049Y-71332963D01*
X155587048Y-71332962D01*
X155587046Y-71332960D01*
X155408649Y-71194107D01*
X155375318Y-71176069D01*
X155209832Y-71086512D01*
X155209827Y-71086510D01*
X154996017Y-71013109D01*
X154811434Y-70982308D01*
X154773033Y-70975900D01*
X154546967Y-70975900D01*
X154508566Y-70982308D01*
X154323982Y-71013109D01*
X154110172Y-71086510D01*
X154110167Y-71086512D01*
X153911352Y-71194106D01*
X153732955Y-71332959D01*
X153732950Y-71332963D01*
X153579850Y-71499272D01*
X153579842Y-71499283D01*
X153456198Y-71688533D01*
X153365388Y-71895560D01*
X153309892Y-72114710D01*
X153291225Y-72339993D01*
X153291225Y-72340006D01*
X150948775Y-72340006D01*
X150948775Y-72339993D01*
X150933031Y-72150001D01*
X150930107Y-72114707D01*
X150874611Y-71895559D01*
X150783802Y-71688535D01*
X150660156Y-71499281D01*
X150660153Y-71499278D01*
X150660149Y-71499272D01*
X150507049Y-71332963D01*
X150507048Y-71332962D01*
X150507046Y-71332960D01*
X150328649Y-71194107D01*
X150295318Y-71176069D01*
X150129832Y-71086512D01*
X150129827Y-71086510D01*
X149916017Y-71013109D01*
X149731434Y-70982308D01*
X149693033Y-70975900D01*
X149466967Y-70975900D01*
X149428566Y-70982308D01*
X149243982Y-71013109D01*
X149030172Y-71086510D01*
X149030167Y-71086512D01*
X148831352Y-71194106D01*
X148652955Y-71332959D01*
X148652950Y-71332963D01*
X148499850Y-71499272D01*
X148499842Y-71499283D01*
X148413808Y-71630968D01*
X148360662Y-71676325D01*
X148291430Y-71685748D01*
X148228095Y-71656246D01*
X148206192Y-71630968D01*
X148120157Y-71499283D01*
X148120149Y-71499272D01*
X147967049Y-71332963D01*
X147967048Y-71332962D01*
X147967046Y-71332960D01*
X147788649Y-71194107D01*
X147755318Y-71176069D01*
X147589832Y-71086512D01*
X147589827Y-71086510D01*
X147376017Y-71013109D01*
X147191434Y-70982308D01*
X147153033Y-70975900D01*
X146926967Y-70975900D01*
X146888566Y-70982308D01*
X146703982Y-71013109D01*
X146490172Y-71086510D01*
X146490167Y-71086512D01*
X146291352Y-71194106D01*
X146112955Y-71332959D01*
X146112950Y-71332963D01*
X145959850Y-71499272D01*
X145959842Y-71499283D01*
X145873808Y-71630968D01*
X145820662Y-71676325D01*
X145751430Y-71685748D01*
X145688095Y-71656246D01*
X145666192Y-71630968D01*
X145580157Y-71499283D01*
X145580149Y-71499272D01*
X145427049Y-71332963D01*
X145427048Y-71332962D01*
X145427046Y-71332960D01*
X145248649Y-71194107D01*
X145215318Y-71176069D01*
X145049832Y-71086512D01*
X145049827Y-71086510D01*
X144836017Y-71013109D01*
X144651434Y-70982308D01*
X144613033Y-70975900D01*
X144386967Y-70975900D01*
X144348566Y-70982308D01*
X144163982Y-71013109D01*
X143950172Y-71086510D01*
X143950167Y-71086512D01*
X143751352Y-71194106D01*
X143572955Y-71332959D01*
X143572950Y-71332963D01*
X143419850Y-71499272D01*
X143419842Y-71499283D01*
X143333808Y-71630968D01*
X143280662Y-71676325D01*
X143211430Y-71685748D01*
X143148095Y-71656246D01*
X143126192Y-71630968D01*
X143040157Y-71499283D01*
X143040149Y-71499272D01*
X142887049Y-71332963D01*
X142887048Y-71332962D01*
X142887046Y-71332960D01*
X142708649Y-71194107D01*
X142675318Y-71176069D01*
X142509832Y-71086512D01*
X142509827Y-71086510D01*
X142296017Y-71013109D01*
X142111434Y-70982308D01*
X142073033Y-70975900D01*
X141846967Y-70975900D01*
X141808566Y-70982308D01*
X141623982Y-71013109D01*
X141410172Y-71086510D01*
X141410167Y-71086512D01*
X141211352Y-71194106D01*
X141032955Y-71332959D01*
X141032950Y-71332963D01*
X140879850Y-71499272D01*
X140879842Y-71499283D01*
X140793808Y-71630968D01*
X140740662Y-71676325D01*
X140671430Y-71685748D01*
X140608095Y-71656246D01*
X140586192Y-71630968D01*
X140500157Y-71499283D01*
X140500149Y-71499272D01*
X140347049Y-71332963D01*
X140347048Y-71332962D01*
X140347046Y-71332960D01*
X140168649Y-71194107D01*
X140135318Y-71176069D01*
X139969832Y-71086512D01*
X139969827Y-71086510D01*
X139756017Y-71013109D01*
X139571434Y-70982308D01*
X139533033Y-70975900D01*
X139306967Y-70975900D01*
X139268566Y-70982308D01*
X139083982Y-71013109D01*
X138870172Y-71086510D01*
X138870167Y-71086512D01*
X138671352Y-71194106D01*
X138492955Y-71332959D01*
X138492950Y-71332963D01*
X138339850Y-71499272D01*
X138339842Y-71499283D01*
X138253808Y-71630968D01*
X138200662Y-71676325D01*
X138131430Y-71685748D01*
X138068095Y-71656246D01*
X138046192Y-71630968D01*
X137960157Y-71499283D01*
X137960149Y-71499272D01*
X137807049Y-71332963D01*
X137807048Y-71332962D01*
X137807046Y-71332960D01*
X137628649Y-71194107D01*
X137595318Y-71176069D01*
X137429832Y-71086512D01*
X137429827Y-71086510D01*
X137216017Y-71013109D01*
X137031434Y-70982308D01*
X136993033Y-70975900D01*
X136766967Y-70975900D01*
X136728566Y-70982308D01*
X136543982Y-71013109D01*
X136330172Y-71086510D01*
X136330167Y-71086512D01*
X136131352Y-71194106D01*
X135952955Y-71332959D01*
X135952950Y-71332963D01*
X135799850Y-71499272D01*
X135799842Y-71499283D01*
X135713808Y-71630968D01*
X135660662Y-71676325D01*
X135591430Y-71685748D01*
X135528095Y-71656246D01*
X135506192Y-71630968D01*
X135420157Y-71499283D01*
X135420149Y-71499272D01*
X135267049Y-71332963D01*
X135267048Y-71332962D01*
X135267046Y-71332960D01*
X135088649Y-71194107D01*
X135055318Y-71176069D01*
X134889832Y-71086512D01*
X134889827Y-71086510D01*
X134676017Y-71013109D01*
X134491434Y-70982308D01*
X134453033Y-70975900D01*
X134226967Y-70975900D01*
X134188566Y-70982308D01*
X134003982Y-71013109D01*
X133790172Y-71086510D01*
X133790167Y-71086512D01*
X133591352Y-71194106D01*
X133412955Y-71332959D01*
X133412950Y-71332963D01*
X133259850Y-71499272D01*
X133259842Y-71499283D01*
X133173808Y-71630968D01*
X133120662Y-71676325D01*
X133051430Y-71685748D01*
X132988095Y-71656246D01*
X132966192Y-71630968D01*
X132880157Y-71499283D01*
X132880149Y-71499272D01*
X132727049Y-71332963D01*
X132727048Y-71332962D01*
X132727046Y-71332960D01*
X132548649Y-71194107D01*
X132515318Y-71176069D01*
X132349832Y-71086512D01*
X132349827Y-71086510D01*
X132136017Y-71013109D01*
X131951434Y-70982308D01*
X131913033Y-70975900D01*
X131686967Y-70975900D01*
X131648566Y-70982308D01*
X131463982Y-71013109D01*
X131250172Y-71086510D01*
X131250167Y-71086512D01*
X131051352Y-71194106D01*
X130872955Y-71332959D01*
X130872950Y-71332963D01*
X130719850Y-71499272D01*
X130719842Y-71499283D01*
X130596198Y-71688533D01*
X130505388Y-71895560D01*
X130449892Y-72114710D01*
X130431225Y-72339993D01*
X130431225Y-72340006D01*
X128088775Y-72340006D01*
X128088775Y-72339993D01*
X128073031Y-72150001D01*
X128070107Y-72114707D01*
X128014611Y-71895559D01*
X127923802Y-71688535D01*
X127800156Y-71499281D01*
X127800153Y-71499278D01*
X127800149Y-71499272D01*
X127647049Y-71332963D01*
X127647048Y-71332962D01*
X127647046Y-71332960D01*
X127468649Y-71194107D01*
X127435318Y-71176069D01*
X127269832Y-71086512D01*
X127269827Y-71086510D01*
X127056017Y-71013109D01*
X126871434Y-70982308D01*
X126833033Y-70975900D01*
X126606967Y-70975900D01*
X126568566Y-70982308D01*
X126383982Y-71013109D01*
X126170172Y-71086510D01*
X126170167Y-71086512D01*
X125971352Y-71194106D01*
X125792955Y-71332958D01*
X125738186Y-71392453D01*
X125678298Y-71428443D01*
X125608460Y-71426342D01*
X125550845Y-71386817D01*
X125530775Y-71351802D01*
X125486954Y-71234313D01*
X125486950Y-71234306D01*
X125400790Y-71119212D01*
X125400787Y-71119209D01*
X125285693Y-71033049D01*
X125285686Y-71033045D01*
X125150979Y-70982803D01*
X125150972Y-70982801D01*
X125091444Y-70976400D01*
X124430000Y-70976400D01*
X124430000Y-71897748D01*
X124376081Y-71866619D01*
X124246880Y-71832000D01*
X124113120Y-71832000D01*
X123983919Y-71866619D01*
X123930000Y-71897748D01*
X123930000Y-70976400D01*
X123268555Y-70976400D01*
X123209027Y-70982801D01*
X123209020Y-70982803D01*
X123074313Y-71033045D01*
X123074310Y-71033047D01*
X122984727Y-71100109D01*
X122919262Y-71124526D01*
X122850989Y-71109674D01*
X122836105Y-71100108D01*
X122745935Y-71032606D01*
X122745928Y-71032602D01*
X122611082Y-70982308D01*
X122611083Y-70982308D01*
X122551483Y-70975901D01*
X122551481Y-70975900D01*
X122551473Y-70975900D01*
X122551464Y-70975900D01*
X120728529Y-70975900D01*
X120728523Y-70975901D01*
X120668916Y-70982308D01*
X120534071Y-71032602D01*
X120534064Y-71032606D01*
X120418855Y-71118852D01*
X120418852Y-71118855D01*
X120332606Y-71234064D01*
X120332603Y-71234069D01*
X120288845Y-71351391D01*
X120246973Y-71407324D01*
X120181509Y-71431741D01*
X120113236Y-71416889D01*
X120081434Y-71392040D01*
X120027049Y-71332963D01*
X120027048Y-71332962D01*
X120027046Y-71332960D01*
X119848649Y-71194107D01*
X119815318Y-71176069D01*
X119649832Y-71086512D01*
X119649827Y-71086510D01*
X119523988Y-71043310D01*
X119466973Y-71002925D01*
X119440842Y-70938125D01*
X119453893Y-70869485D01*
X119476567Y-70838352D01*
X120778101Y-69536819D01*
X120839424Y-69503334D01*
X120865782Y-69500500D01*
X133098542Y-69500500D01*
X133117870Y-69496655D01*
X133195188Y-69481275D01*
X133291836Y-69462051D01*
X133345165Y-69439961D01*
X133473914Y-69386632D01*
X133637782Y-69277139D01*
X133777139Y-69137782D01*
X133777140Y-69137779D01*
X133784206Y-69130714D01*
X133784208Y-69130710D01*
X142378101Y-60536819D01*
X142439424Y-60503334D01*
X142465782Y-60500500D01*
X203034218Y-60500500D01*
X203101257Y-60520185D01*
X203121899Y-60536819D01*
X205963181Y-63378101D01*
X205996666Y-63439424D01*
X205999500Y-63465782D01*
X205999500Y-72098541D01*
X205999500Y-72098543D01*
X205999499Y-72098543D01*
X206037947Y-72291829D01*
X206037950Y-72291839D01*
X206113364Y-72473907D01*
X206113371Y-72473920D01*
X206222860Y-72637781D01*
X206222863Y-72637785D01*
X206362214Y-72777136D01*
X206362218Y-72777139D01*
X206526079Y-72886628D01*
X206526092Y-72886635D01*
X206708160Y-72962049D01*
X206708165Y-72962051D01*
X206708169Y-72962051D01*
X206708170Y-72962052D01*
X206901456Y-73000500D01*
X206901459Y-73000500D01*
X207098543Y-73000500D01*
X207252396Y-72969896D01*
X207291835Y-72962051D01*
X207473914Y-72886632D01*
X207637782Y-72777139D01*
X207777139Y-72637782D01*
X207886632Y-72473914D01*
X207962051Y-72291835D01*
X207974632Y-72228582D01*
X208000500Y-72098543D01*
X208000500Y-62901456D01*
X207962052Y-62708170D01*
X207962051Y-62708169D01*
X207962051Y-62708165D01*
X207944206Y-62665084D01*
X207910186Y-62582951D01*
X207886632Y-62526086D01*
X207886628Y-62526080D01*
X207777140Y-62362219D01*
X207725788Y-62310867D01*
X207637782Y-62222861D01*
X207637781Y-62222860D01*
X204284208Y-58869288D01*
X204284206Y-58869285D01*
X204284206Y-58869286D01*
X204277139Y-58862219D01*
X204277139Y-58862218D01*
X204137782Y-58722861D01*
X204137781Y-58722860D01*
X204137780Y-58722859D01*
X203973920Y-58613371D01*
X203973911Y-58613366D01*
X203894050Y-58580287D01*
X203845165Y-58560038D01*
X203791836Y-58537949D01*
X203791832Y-58537948D01*
X203791828Y-58537946D01*
X203695188Y-58518724D01*
X203598544Y-58499500D01*
X203598541Y-58499500D01*
X141901459Y-58499500D01*
X141901455Y-58499500D01*
X141804812Y-58518724D01*
X141708167Y-58537947D01*
X141708161Y-58537949D01*
X141654834Y-58560037D01*
X141654834Y-58560038D01*
X141609315Y-58578892D01*
X141526089Y-58613366D01*
X141526079Y-58613371D01*
X141362219Y-58722859D01*
X141292540Y-58792538D01*
X141222861Y-58862218D01*
X141222858Y-58862221D01*
X132621899Y-67463181D01*
X132560576Y-67496666D01*
X132534218Y-67499500D01*
X120301455Y-67499500D01*
X120204812Y-67518724D01*
X120108167Y-67537947D01*
X120108161Y-67537949D01*
X120054834Y-67560037D01*
X120054834Y-67560038D01*
X120009315Y-67578892D01*
X119926089Y-67613366D01*
X119926079Y-67613371D01*
X119762219Y-67722859D01*
X119692540Y-67792538D01*
X119622861Y-67862218D01*
X119622858Y-67862221D01*
X116545499Y-70939581D01*
X116484176Y-70973066D01*
X116457818Y-70975900D01*
X116446967Y-70975900D01*
X116408566Y-70982308D01*
X116223982Y-71013109D01*
X116010172Y-71086510D01*
X116010167Y-71086512D01*
X115811352Y-71194106D01*
X115632955Y-71332959D01*
X115632950Y-71332963D01*
X115479850Y-71499272D01*
X115479842Y-71499283D01*
X115393808Y-71630968D01*
X115340662Y-71676325D01*
X115271430Y-71685748D01*
X115208095Y-71656246D01*
X115186192Y-71630968D01*
X115100157Y-71499283D01*
X115100149Y-71499272D01*
X114947049Y-71332963D01*
X114947044Y-71332958D01*
X114818337Y-71232780D01*
X114777524Y-71176069D01*
X114770500Y-71134927D01*
X114770500Y-70342229D01*
X114790185Y-70275190D01*
X114806819Y-70254548D01*
X117774548Y-67286819D01*
X117835871Y-67253334D01*
X117862229Y-67250500D01*
X130573920Y-67250500D01*
X130671462Y-67231096D01*
X130718913Y-67221658D01*
X130855495Y-67165084D01*
X130904729Y-67132186D01*
X130978416Y-67082952D01*
X141274548Y-56786818D01*
X141335871Y-56753334D01*
X141362229Y-56750500D01*
X204137770Y-56750500D01*
X204204809Y-56770185D01*
X204225451Y-56786819D01*
X209713181Y-62274548D01*
X209746666Y-62335871D01*
X209749500Y-62362229D01*
X209749500Y-74137770D01*
X209729815Y-74204809D01*
X209713181Y-74225451D01*
X209225451Y-74713181D01*
X209164128Y-74746666D01*
X209137770Y-74749500D01*
X204426080Y-74749500D01*
X204281092Y-74778340D01*
X204281082Y-74778343D01*
X204144511Y-74834912D01*
X204144498Y-74834919D01*
X204021584Y-74917048D01*
X204021580Y-74917051D01*
X200157075Y-78781556D01*
X200095752Y-78815041D01*
X200026060Y-78810057D01*
X199970127Y-78768185D01*
X199946921Y-78713273D01*
X199942246Y-78683760D01*
X199942246Y-78683757D01*
X199876557Y-78481588D01*
X199780051Y-78292184D01*
X199780049Y-78292181D01*
X199780048Y-78292179D01*
X199655109Y-78120213D01*
X199504792Y-77969896D01*
X199504784Y-77969890D01*
X199340204Y-77850316D01*
X199297540Y-77794989D01*
X199291561Y-77725376D01*
X199324166Y-77663580D01*
X199340199Y-77649686D01*
X199504792Y-77530104D01*
X199655104Y-77379792D01*
X199655106Y-77379788D01*
X199655109Y-77379786D01*
X199780048Y-77207820D01*
X199780047Y-77207820D01*
X199780051Y-77207816D01*
X199876557Y-77018412D01*
X199942246Y-76816243D01*
X199975500Y-76606287D01*
X199975500Y-76393713D01*
X199942246Y-76183757D01*
X199876557Y-75981588D01*
X199780051Y-75792184D01*
X199780049Y-75792181D01*
X199780048Y-75792179D01*
X199655109Y-75620213D01*
X199504792Y-75469896D01*
X199504784Y-75469890D01*
X199340204Y-75350316D01*
X199297540Y-75294989D01*
X199291561Y-75225376D01*
X199324166Y-75163580D01*
X199340199Y-75149686D01*
X199504792Y-75030104D01*
X199655104Y-74879792D01*
X199655106Y-74879788D01*
X199655109Y-74879786D01*
X199780048Y-74707820D01*
X199780047Y-74707820D01*
X199780051Y-74707816D01*
X199876557Y-74518412D01*
X199942246Y-74316243D01*
X199975500Y-74106287D01*
X199975500Y-73893713D01*
X199942246Y-73683757D01*
X199876557Y-73481588D01*
X199780051Y-73292184D01*
X199780049Y-73292181D01*
X199780048Y-73292179D01*
X199655109Y-73120213D01*
X199516294Y-72981398D01*
X199482809Y-72920075D01*
X199487793Y-72850383D01*
X199529665Y-72794450D01*
X199538879Y-72788178D01*
X199544331Y-72784814D01*
X199544334Y-72784814D01*
X199693656Y-72692712D01*
X199817712Y-72568656D01*
X199909814Y-72419334D01*
X199964999Y-72252797D01*
X199975500Y-72150009D01*
X199975499Y-70849992D01*
X199964999Y-70747203D01*
X199909814Y-70580666D01*
X199817712Y-70431344D01*
X199693656Y-70307288D01*
X199544334Y-70215186D01*
X199377797Y-70160001D01*
X199377795Y-70160000D01*
X199275010Y-70149500D01*
X197724998Y-70149500D01*
X197724981Y-70149501D01*
X197622203Y-70160000D01*
X197622200Y-70160001D01*
X197495971Y-70201830D01*
X197426143Y-70204232D01*
X197366101Y-70168500D01*
X197334908Y-70105980D01*
X197335350Y-70059933D01*
X197350499Y-69983770D01*
X197350500Y-69983768D01*
X197350500Y-69816232D01*
X197350499Y-69816228D01*
X197317817Y-69651925D01*
X197317816Y-69651918D01*
X197255545Y-69501584D01*
X197253704Y-69497139D01*
X197230258Y-69462050D01*
X197179863Y-69386628D01*
X197160626Y-69357837D01*
X197042162Y-69239373D01*
X196902860Y-69146295D01*
X196748082Y-69082184D01*
X196748074Y-69082182D01*
X196583771Y-69049500D01*
X196583767Y-69049500D01*
X196416233Y-69049500D01*
X196416228Y-69049500D01*
X196251925Y-69082182D01*
X196251917Y-69082184D01*
X196097139Y-69146295D01*
X195957837Y-69239373D01*
X195839373Y-69357837D01*
X195746295Y-69497139D01*
X195682184Y-69651917D01*
X195682182Y-69651925D01*
X195649500Y-69816228D01*
X195649500Y-69983771D01*
X195682182Y-70148074D01*
X195682184Y-70148082D01*
X195746295Y-70302860D01*
X195839373Y-70442162D01*
X195957837Y-70560626D01*
X196050494Y-70622537D01*
X196097137Y-70653703D01*
X196251918Y-70717816D01*
X196399643Y-70747200D01*
X196416228Y-70750499D01*
X196416232Y-70750500D01*
X196416233Y-70750500D01*
X196583768Y-70750500D01*
X196583769Y-70750499D01*
X196748082Y-70717816D01*
X196858891Y-70671916D01*
X196928358Y-70664448D01*
X196990837Y-70695722D01*
X197026490Y-70755811D01*
X197029700Y-70799078D01*
X197024501Y-70849976D01*
X197024500Y-70849996D01*
X197024500Y-72150001D01*
X197024501Y-72150018D01*
X197035000Y-72252796D01*
X197035001Y-72252799D01*
X197047938Y-72291839D01*
X197090186Y-72419334D01*
X197180211Y-72565289D01*
X197182289Y-72568657D01*
X197306344Y-72692712D01*
X197461120Y-72788178D01*
X197507845Y-72840126D01*
X197519068Y-72909088D01*
X197491224Y-72973171D01*
X197483706Y-72981398D01*
X197344889Y-73120215D01*
X197219951Y-73292179D01*
X197123444Y-73481585D01*
X197057753Y-73683760D01*
X197024500Y-73893713D01*
X197024500Y-74106287D01*
X197034534Y-74169644D01*
X197057753Y-74316239D01*
X197123444Y-74518414D01*
X197219951Y-74707820D01*
X197344890Y-74879786D01*
X197495209Y-75030105D01*
X197495214Y-75030109D01*
X197659793Y-75149682D01*
X197702459Y-75205011D01*
X197708438Y-75274625D01*
X197675833Y-75336420D01*
X197659793Y-75350318D01*
X197495214Y-75469890D01*
X197495209Y-75469894D01*
X197344890Y-75620213D01*
X197219951Y-75792179D01*
X197123444Y-75981585D01*
X197057753Y-76183760D01*
X197041430Y-76286819D01*
X197024500Y-76393713D01*
X197024500Y-76606287D01*
X197057754Y-76816243D01*
X197121846Y-77013498D01*
X197123444Y-77018414D01*
X197219951Y-77207820D01*
X197344890Y-77379786D01*
X197495209Y-77530105D01*
X197495214Y-77530109D01*
X197659793Y-77649682D01*
X197702459Y-77705011D01*
X197708438Y-77774625D01*
X197675833Y-77836420D01*
X197659793Y-77850318D01*
X197495214Y-77969890D01*
X197495209Y-77969894D01*
X197344892Y-78120211D01*
X197288097Y-78198385D01*
X197232767Y-78241051D01*
X197187779Y-78249500D01*
X184862229Y-78249500D01*
X184795190Y-78229815D01*
X184774548Y-78213181D01*
X181478418Y-74917050D01*
X181478417Y-74917049D01*
X181478416Y-74917048D01*
X181399736Y-74864477D01*
X181386291Y-74855493D01*
X181355500Y-74834919D01*
X181355488Y-74834912D01*
X181218917Y-74778343D01*
X181218907Y-74778340D01*
X181073920Y-74749500D01*
X181073918Y-74749500D01*
X174198882Y-74749500D01*
X174198880Y-74749500D01*
X174053892Y-74778340D01*
X174053882Y-74778343D01*
X173917308Y-74834913D01*
X173794384Y-74917048D01*
X173794384Y-74917049D01*
X173083450Y-75627980D01*
X173083444Y-75627988D01*
X173034212Y-75701668D01*
X173034213Y-75701669D01*
X173001321Y-75750896D01*
X173001314Y-75750908D01*
X172944742Y-75887486D01*
X172944740Y-75887492D01*
X172915900Y-76032479D01*
X172915900Y-76032482D01*
X172915900Y-81260318D01*
X172915900Y-81260320D01*
X172915899Y-81260320D01*
X172944740Y-81405307D01*
X172944743Y-81405317D01*
X173001314Y-81541892D01*
X173034212Y-81591127D01*
X173034213Y-81591130D01*
X173083446Y-81664814D01*
X173083452Y-81664821D01*
X173594106Y-82175474D01*
X173627591Y-82236797D01*
X173630002Y-82273395D01*
X173629893Y-82274705D01*
X173629893Y-82274707D01*
X173629111Y-82284151D01*
X173611225Y-82500006D01*
X173629892Y-82725289D01*
X173685388Y-82944439D01*
X173776198Y-83151466D01*
X173899842Y-83340716D01*
X173899850Y-83340727D01*
X174029702Y-83481782D01*
X174052954Y-83507040D01*
X174231351Y-83645893D01*
X174259165Y-83660945D01*
X174308755Y-83710165D01*
X174323863Y-83778382D01*
X174299692Y-83843937D01*
X174259165Y-83879055D01*
X174231352Y-83894106D01*
X174052955Y-84032959D01*
X174052950Y-84032963D01*
X173899850Y-84199272D01*
X173899842Y-84199283D01*
X173776198Y-84388533D01*
X173685388Y-84595560D01*
X173629892Y-84814710D01*
X173611225Y-85039993D01*
X173611225Y-85040006D01*
X173629892Y-85265289D01*
X173685388Y-85484439D01*
X173776198Y-85691466D01*
X173899842Y-85880716D01*
X173899850Y-85880727D01*
X174052950Y-86047036D01*
X174052954Y-86047040D01*
X174231351Y-86185893D01*
X174259165Y-86200945D01*
X174308755Y-86250165D01*
X174323863Y-86318382D01*
X174299692Y-86383937D01*
X174259165Y-86419055D01*
X174231352Y-86434106D01*
X174052955Y-86572959D01*
X174052950Y-86572963D01*
X173899850Y-86739272D01*
X173899842Y-86739283D01*
X173776198Y-86928533D01*
X173685388Y-87135560D01*
X173629892Y-87354710D01*
X173611225Y-87579993D01*
X173611225Y-87580006D01*
X173629892Y-87805289D01*
X173685388Y-88024439D01*
X173776198Y-88231466D01*
X173899842Y-88420716D01*
X173899850Y-88420727D01*
X174052950Y-88587036D01*
X174052954Y-88587040D01*
X174231351Y-88725893D01*
X174259165Y-88740945D01*
X174308755Y-88790165D01*
X174323863Y-88858382D01*
X174299692Y-88923937D01*
X174259165Y-88959055D01*
X174231352Y-88974106D01*
X174052955Y-89112959D01*
X174052950Y-89112963D01*
X173899850Y-89279272D01*
X173899842Y-89279283D01*
X173776198Y-89468533D01*
X173685388Y-89675560D01*
X173629892Y-89894710D01*
X173611225Y-90119993D01*
X173611225Y-90120006D01*
X173629892Y-90345289D01*
X173685388Y-90564439D01*
X173776198Y-90771466D01*
X173899842Y-90960716D01*
X173899850Y-90960727D01*
X174052950Y-91127036D01*
X174052954Y-91127040D01*
X174231351Y-91265893D01*
X174259165Y-91280945D01*
X174308755Y-91330165D01*
X174323863Y-91398382D01*
X174299692Y-91463937D01*
X174259165Y-91499055D01*
X174231352Y-91514106D01*
X174052955Y-91652959D01*
X174052950Y-91652963D01*
X173899850Y-91819272D01*
X173899842Y-91819283D01*
X173776198Y-92008533D01*
X173685388Y-92215560D01*
X173629892Y-92434710D01*
X173611225Y-92659993D01*
X173611225Y-92660006D01*
X173629892Y-92885289D01*
X173685388Y-93104439D01*
X173776198Y-93311466D01*
X173899842Y-93500716D01*
X173899850Y-93500727D01*
X174052950Y-93667036D01*
X174052954Y-93667040D01*
X174231351Y-93805893D01*
X174259165Y-93820945D01*
X174308755Y-93870165D01*
X174323863Y-93938382D01*
X174299692Y-94003937D01*
X174259165Y-94039055D01*
X174231352Y-94054106D01*
X174052955Y-94192959D01*
X174052950Y-94192963D01*
X173899850Y-94359272D01*
X173899842Y-94359283D01*
X173776198Y-94548533D01*
X173685388Y-94755560D01*
X173629892Y-94974710D01*
X173611225Y-95199993D01*
X173611225Y-95200006D01*
X173629892Y-95425289D01*
X173685388Y-95644439D01*
X173776198Y-95851466D01*
X173899842Y-96040716D01*
X173899850Y-96040727D01*
X174052950Y-96207036D01*
X174052954Y-96207040D01*
X174231351Y-96345893D01*
X174259165Y-96360945D01*
X174308755Y-96410165D01*
X174323863Y-96478382D01*
X174299692Y-96543937D01*
X174259165Y-96579055D01*
X174231352Y-96594106D01*
X174052955Y-96732959D01*
X174052950Y-96732963D01*
X173899850Y-96899272D01*
X173899842Y-96899283D01*
X173776198Y-97088533D01*
X173685388Y-97295560D01*
X173629892Y-97514710D01*
X173611225Y-97739993D01*
X173611225Y-97740006D01*
X173629892Y-97965289D01*
X173685388Y-98184439D01*
X173776198Y-98391466D01*
X173899842Y-98580716D01*
X173899850Y-98580727D01*
X174052950Y-98747036D01*
X174052954Y-98747040D01*
X174231351Y-98885893D01*
X174259165Y-98900945D01*
X174308755Y-98950165D01*
X174323863Y-99018382D01*
X174299692Y-99083937D01*
X174259165Y-99119055D01*
X174231352Y-99134106D01*
X174052955Y-99272959D01*
X174052950Y-99272963D01*
X173899850Y-99439272D01*
X173899842Y-99439283D01*
X173776198Y-99628533D01*
X173685388Y-99835560D01*
X173629892Y-100054710D01*
X173611225Y-100279993D01*
X173611225Y-100280006D01*
X173629892Y-100505289D01*
X173685388Y-100724439D01*
X173776198Y-100931466D01*
X173899842Y-101120716D01*
X173899850Y-101120727D01*
X174052950Y-101287036D01*
X174052954Y-101287040D01*
X174231351Y-101425893D01*
X174259165Y-101440945D01*
X174308755Y-101490165D01*
X174323863Y-101558382D01*
X174299692Y-101623937D01*
X174259165Y-101659055D01*
X174231352Y-101674106D01*
X174052955Y-101812959D01*
X174052950Y-101812963D01*
X173899850Y-101979272D01*
X173899842Y-101979283D01*
X173776198Y-102168533D01*
X173685388Y-102375560D01*
X173629892Y-102594710D01*
X173611225Y-102819993D01*
X173611225Y-102820006D01*
X173629892Y-103045289D01*
X173685388Y-103264439D01*
X173776198Y-103471466D01*
X173899842Y-103660716D01*
X173899850Y-103660727D01*
X174052950Y-103827036D01*
X174052954Y-103827040D01*
X174231351Y-103965893D01*
X174259165Y-103980945D01*
X174308755Y-104030165D01*
X174323863Y-104098382D01*
X174299692Y-104163937D01*
X174259165Y-104199055D01*
X174231352Y-104214106D01*
X174052955Y-104352959D01*
X174052950Y-104352963D01*
X173899850Y-104519272D01*
X173899842Y-104519283D01*
X173776198Y-104708533D01*
X173685388Y-104915560D01*
X173629892Y-105134710D01*
X173611225Y-105359993D01*
X173611225Y-105360006D01*
X173629892Y-105585289D01*
X173685388Y-105804439D01*
X173776198Y-106011466D01*
X173899842Y-106200716D01*
X173899850Y-106200727D01*
X174052950Y-106367036D01*
X174052954Y-106367040D01*
X174231351Y-106505893D01*
X174259165Y-106520945D01*
X174308755Y-106570165D01*
X174323863Y-106638382D01*
X174299692Y-106703937D01*
X174259165Y-106739055D01*
X174231352Y-106754106D01*
X174052955Y-106892959D01*
X174052950Y-106892963D01*
X173899850Y-107059272D01*
X173899842Y-107059283D01*
X173776198Y-107248533D01*
X173685388Y-107455560D01*
X173629892Y-107674710D01*
X173611225Y-107899993D01*
X173611225Y-107900006D01*
X173629892Y-108125289D01*
X173685388Y-108344439D01*
X173776198Y-108551466D01*
X173899842Y-108740716D01*
X173899850Y-108740727D01*
X174052950Y-108907036D01*
X174052954Y-108907040D01*
X174231351Y-109045893D01*
X174259165Y-109060945D01*
X174308755Y-109110165D01*
X174323863Y-109178382D01*
X174299692Y-109243937D01*
X174259165Y-109279055D01*
X174231352Y-109294106D01*
X174052955Y-109432959D01*
X174052950Y-109432963D01*
X173899850Y-109599272D01*
X173899842Y-109599283D01*
X173776198Y-109788533D01*
X173685388Y-109995560D01*
X173629892Y-110214710D01*
X173611225Y-110439993D01*
X173611225Y-110440006D01*
X173629892Y-110665289D01*
X173685388Y-110884439D01*
X173776198Y-111091466D01*
X173899842Y-111280716D01*
X173899850Y-111280727D01*
X174052950Y-111447036D01*
X174052954Y-111447040D01*
X174231351Y-111585893D01*
X174259165Y-111600945D01*
X174308755Y-111650165D01*
X174323863Y-111718382D01*
X174299692Y-111783937D01*
X174259165Y-111819055D01*
X174231352Y-111834106D01*
X174052955Y-111972959D01*
X174052950Y-111972963D01*
X173899850Y-112139272D01*
X173899842Y-112139283D01*
X173776198Y-112328533D01*
X173685388Y-112535560D01*
X173629892Y-112754710D01*
X173611225Y-112979993D01*
X173611225Y-112980006D01*
X173629892Y-113205289D01*
X173685388Y-113424439D01*
X173776198Y-113631466D01*
X173899842Y-113820716D01*
X173899850Y-113820727D01*
X174052950Y-113987036D01*
X174052954Y-113987040D01*
X174231351Y-114125893D01*
X174259165Y-114140945D01*
X174308755Y-114190165D01*
X174323863Y-114258382D01*
X174299692Y-114323937D01*
X174259165Y-114359055D01*
X174231352Y-114374106D01*
X174052955Y-114512959D01*
X174052950Y-114512963D01*
X173899850Y-114679272D01*
X173899842Y-114679283D01*
X173776198Y-114868533D01*
X173685388Y-115075560D01*
X173629892Y-115294710D01*
X173611225Y-115519993D01*
X173611225Y-115520006D01*
X173629892Y-115745289D01*
X173685388Y-115964439D01*
X173776198Y-116171466D01*
X173899842Y-116360716D01*
X173899850Y-116360727D01*
X174011112Y-116481588D01*
X174052954Y-116527040D01*
X174231351Y-116665893D01*
X174259165Y-116680945D01*
X174308755Y-116730165D01*
X174323863Y-116798382D01*
X174299692Y-116863937D01*
X174259165Y-116899055D01*
X174231352Y-116914106D01*
X174052955Y-117052959D01*
X174052950Y-117052963D01*
X173899850Y-117219272D01*
X173899842Y-117219283D01*
X173776198Y-117408533D01*
X173685388Y-117615560D01*
X173629892Y-117834710D01*
X173611225Y-118059993D01*
X173611225Y-118060006D01*
X173629892Y-118285289D01*
X173685388Y-118504439D01*
X173776198Y-118711466D01*
X173899842Y-118900716D01*
X173899850Y-118900727D01*
X174052950Y-119067036D01*
X174052954Y-119067040D01*
X174231351Y-119205893D01*
X174259165Y-119220945D01*
X174308755Y-119270165D01*
X174323863Y-119338382D01*
X174299692Y-119403937D01*
X174259165Y-119439055D01*
X174231352Y-119454106D01*
X174052955Y-119592959D01*
X174052950Y-119592963D01*
X173899850Y-119759272D01*
X173899842Y-119759283D01*
X173776198Y-119948533D01*
X173685388Y-120155560D01*
X173629892Y-120374710D01*
X173611225Y-120599993D01*
X173611225Y-120600006D01*
X173629892Y-120825289D01*
X173685388Y-121044439D01*
X173776198Y-121251466D01*
X173899842Y-121440716D01*
X173899850Y-121440727D01*
X174052950Y-121607036D01*
X174052954Y-121607040D01*
X174231351Y-121745893D01*
X174430169Y-121853488D01*
X174430172Y-121853489D01*
X174643982Y-121926890D01*
X174643984Y-121926890D01*
X174643986Y-121926891D01*
X174866967Y-121964100D01*
X174866968Y-121964100D01*
X175093032Y-121964100D01*
X175093033Y-121964100D01*
X175316014Y-121926891D01*
X175529831Y-121853488D01*
X175728649Y-121745893D01*
X175907046Y-121607040D01*
X176060156Y-121440719D01*
X176146193Y-121309028D01*
X176199338Y-121263675D01*
X176268569Y-121254251D01*
X176331905Y-121283753D01*
X176353804Y-121309025D01*
X176439844Y-121440719D01*
X176439849Y-121440724D01*
X176439850Y-121440727D01*
X176592950Y-121607036D01*
X176592954Y-121607040D01*
X176771351Y-121745893D01*
X176970169Y-121853488D01*
X176970172Y-121853489D01*
X177183982Y-121926890D01*
X177183984Y-121926890D01*
X177183986Y-121926891D01*
X177406967Y-121964100D01*
X177406968Y-121964100D01*
X177633032Y-121964100D01*
X177633033Y-121964100D01*
X177856014Y-121926891D01*
X178069831Y-121853488D01*
X178268649Y-121745893D01*
X178447046Y-121607040D01*
X178600156Y-121440719D01*
X178723802Y-121251465D01*
X178814611Y-121044441D01*
X178870107Y-120825293D01*
X178880851Y-120695610D01*
X178906004Y-120630428D01*
X178916739Y-120618179D01*
X186498102Y-113036819D01*
X186559425Y-113003334D01*
X186585783Y-113000500D01*
X197096042Y-113000500D01*
X197163081Y-113020185D01*
X197201580Y-113059402D01*
X197207287Y-113068655D01*
X197331344Y-113192712D01*
X197486558Y-113288448D01*
X197533283Y-113340396D01*
X197544506Y-113409358D01*
X197516663Y-113473441D01*
X197509144Y-113481668D01*
X197370271Y-113620541D01*
X197245379Y-113792442D01*
X197148904Y-113981782D01*
X197083242Y-114183870D01*
X197083242Y-114183873D01*
X197072769Y-114250000D01*
X198120854Y-114250000D01*
X198082370Y-114316657D01*
X198050000Y-114437465D01*
X198050000Y-114562535D01*
X198082370Y-114683343D01*
X198120854Y-114750000D01*
X197072769Y-114750000D01*
X197083242Y-114816126D01*
X197083242Y-114816129D01*
X197148904Y-115018217D01*
X197245379Y-115207557D01*
X197370272Y-115379459D01*
X197370276Y-115379464D01*
X197520535Y-115529723D01*
X197520540Y-115529727D01*
X197685218Y-115649372D01*
X197727884Y-115704701D01*
X197733863Y-115774315D01*
X197701258Y-115836110D01*
X197685218Y-115850008D01*
X197520214Y-115969890D01*
X197520209Y-115969894D01*
X197369890Y-116120213D01*
X197244951Y-116292179D01*
X197148444Y-116481585D01*
X197082753Y-116683760D01*
X197049500Y-116893713D01*
X197049500Y-117106286D01*
X197081707Y-117309637D01*
X197082754Y-117316243D01*
X197108774Y-117396325D01*
X197148444Y-117518414D01*
X197244951Y-117707820D01*
X197369890Y-117879786D01*
X197520209Y-118030105D01*
X197520214Y-118030109D01*
X197684793Y-118149682D01*
X197727459Y-118205011D01*
X197733438Y-118274625D01*
X197700833Y-118336420D01*
X197684793Y-118350318D01*
X197520214Y-118469890D01*
X197520209Y-118469894D01*
X197369890Y-118620213D01*
X197244951Y-118792179D01*
X197148444Y-118981585D01*
X197082753Y-119183760D01*
X197056976Y-119346510D01*
X197049500Y-119393713D01*
X197049500Y-119606287D01*
X197050374Y-119611803D01*
X197073730Y-119759272D01*
X197082754Y-119816243D01*
X197125738Y-119948535D01*
X197148444Y-120018414D01*
X197244951Y-120207820D01*
X197369890Y-120379786D01*
X197520209Y-120530105D01*
X197520214Y-120530109D01*
X197684793Y-120649682D01*
X197727459Y-120705011D01*
X197733438Y-120774625D01*
X197700833Y-120836420D01*
X197684793Y-120850318D01*
X197520214Y-120969890D01*
X197520209Y-120969894D01*
X197369890Y-121120213D01*
X197244951Y-121292179D01*
X197148444Y-121481585D01*
X197148443Y-121481587D01*
X197148443Y-121481588D01*
X197131978Y-121532263D01*
X197082753Y-121683760D01*
X197061050Y-121820787D01*
X197049500Y-121893713D01*
X197049500Y-122106287D01*
X197082754Y-122316243D01*
X197141352Y-122496589D01*
X197148444Y-122518414D01*
X197244951Y-122707820D01*
X197369890Y-122879786D01*
X197520209Y-123030105D01*
X197520214Y-123030109D01*
X197684793Y-123149682D01*
X197727459Y-123205011D01*
X197733438Y-123274625D01*
X197700833Y-123336420D01*
X197684793Y-123350318D01*
X197520214Y-123469890D01*
X197520209Y-123469894D01*
X197369890Y-123620213D01*
X197244951Y-123792179D01*
X197148444Y-123981585D01*
X197082753Y-124183760D01*
X197049500Y-124393713D01*
X197049500Y-124606286D01*
X197082753Y-124816239D01*
X197148444Y-125018414D01*
X197244951Y-125207820D01*
X197369890Y-125379786D01*
X197520209Y-125530105D01*
X197520214Y-125530109D01*
X197684793Y-125649682D01*
X197727459Y-125705011D01*
X197733438Y-125774625D01*
X197700833Y-125836420D01*
X197684793Y-125850318D01*
X197520214Y-125969890D01*
X197520209Y-125969894D01*
X197369892Y-126120211D01*
X197313097Y-126198385D01*
X197257767Y-126241051D01*
X197212779Y-126249500D01*
X165841197Y-126249500D01*
X165774158Y-126229815D01*
X165728403Y-126177011D01*
X165717876Y-126112541D01*
X165737570Y-125925165D01*
X165717784Y-125736909D01*
X165659289Y-125556881D01*
X165643830Y-125530105D01*
X165587113Y-125431867D01*
X165570500Y-125369867D01*
X165570500Y-121805071D01*
X165590185Y-121738032D01*
X165618338Y-121707218D01*
X165648477Y-121683760D01*
X165747046Y-121607040D01*
X165900156Y-121440719D01*
X165986193Y-121309028D01*
X166039338Y-121263675D01*
X166108569Y-121254251D01*
X166171905Y-121283753D01*
X166193804Y-121309025D01*
X166279844Y-121440719D01*
X166279849Y-121440724D01*
X166279850Y-121440727D01*
X166432950Y-121607036D01*
X166432954Y-121607040D01*
X166611351Y-121745893D01*
X166810169Y-121853488D01*
X166810172Y-121853489D01*
X167023982Y-121926890D01*
X167023984Y-121926890D01*
X167023986Y-121926891D01*
X167246967Y-121964100D01*
X167246968Y-121964100D01*
X167473032Y-121964100D01*
X167473033Y-121964100D01*
X167696014Y-121926891D01*
X167909831Y-121853488D01*
X168108649Y-121745893D01*
X168287046Y-121607040D01*
X168440156Y-121440719D01*
X168563802Y-121251465D01*
X168654611Y-121044441D01*
X168710107Y-120825293D01*
X168720074Y-120705011D01*
X168728775Y-120600006D01*
X168728775Y-120599993D01*
X168715707Y-120442294D01*
X168710107Y-120374707D01*
X168654611Y-120155559D01*
X168563802Y-119948535D01*
X168440156Y-119759281D01*
X168440153Y-119759278D01*
X168440149Y-119759272D01*
X168287049Y-119592963D01*
X168287048Y-119592962D01*
X168287046Y-119592960D01*
X168108649Y-119454107D01*
X167989889Y-119389837D01*
X167909832Y-119346512D01*
X167909827Y-119346510D01*
X167696017Y-119273109D01*
X167514388Y-119242801D01*
X167473033Y-119235900D01*
X167246967Y-119235900D01*
X167205612Y-119242801D01*
X167023982Y-119273109D01*
X166810172Y-119346510D01*
X166810167Y-119346512D01*
X166611352Y-119454106D01*
X166432955Y-119592959D01*
X166432950Y-119592963D01*
X166279850Y-119759272D01*
X166279842Y-119759283D01*
X166193808Y-119890968D01*
X166140662Y-119936325D01*
X166071430Y-119945748D01*
X166008095Y-119916246D01*
X165986192Y-119890968D01*
X165900157Y-119759283D01*
X165900149Y-119759272D01*
X165747049Y-119592963D01*
X165747048Y-119592962D01*
X165747046Y-119592960D01*
X165568649Y-119454107D01*
X165449889Y-119389837D01*
X165369832Y-119346512D01*
X165369827Y-119346510D01*
X165156017Y-119273109D01*
X164974388Y-119242801D01*
X164933033Y-119235900D01*
X164706967Y-119235900D01*
X164665612Y-119242801D01*
X164483982Y-119273109D01*
X164270172Y-119346510D01*
X164270167Y-119346512D01*
X164071352Y-119454106D01*
X163892955Y-119592959D01*
X163892950Y-119592963D01*
X163739850Y-119759272D01*
X163739842Y-119759283D01*
X163653808Y-119890968D01*
X163600662Y-119936325D01*
X163531430Y-119945748D01*
X163468095Y-119916246D01*
X163446192Y-119890968D01*
X163360157Y-119759283D01*
X163360149Y-119759272D01*
X163207049Y-119592963D01*
X163207048Y-119592962D01*
X163207046Y-119592960D01*
X163028649Y-119454107D01*
X162909889Y-119389837D01*
X162829832Y-119346512D01*
X162829827Y-119346510D01*
X162616017Y-119273109D01*
X162434388Y-119242801D01*
X162393033Y-119235900D01*
X162166967Y-119235900D01*
X162125612Y-119242801D01*
X161943982Y-119273109D01*
X161730172Y-119346510D01*
X161730167Y-119346512D01*
X161531352Y-119454106D01*
X161352955Y-119592959D01*
X161352950Y-119592963D01*
X161199850Y-119759272D01*
X161199842Y-119759283D01*
X161113808Y-119890968D01*
X161060662Y-119936325D01*
X160991430Y-119945748D01*
X160928095Y-119916246D01*
X160906192Y-119890968D01*
X160820157Y-119759283D01*
X160820149Y-119759272D01*
X160667049Y-119592963D01*
X160667048Y-119592962D01*
X160667046Y-119592960D01*
X160488649Y-119454107D01*
X160369889Y-119389837D01*
X160289832Y-119346512D01*
X160289827Y-119346510D01*
X160076017Y-119273109D01*
X159894388Y-119242801D01*
X159853033Y-119235900D01*
X159626967Y-119235900D01*
X159585612Y-119242801D01*
X159403982Y-119273109D01*
X159190172Y-119346510D01*
X159190167Y-119346512D01*
X158991352Y-119454106D01*
X158812955Y-119592959D01*
X158812950Y-119592963D01*
X158659850Y-119759272D01*
X158659842Y-119759283D01*
X158573808Y-119890968D01*
X158520662Y-119936325D01*
X158451430Y-119945748D01*
X158388095Y-119916246D01*
X158366192Y-119890968D01*
X158280157Y-119759283D01*
X158280149Y-119759272D01*
X158127049Y-119592963D01*
X158127048Y-119592962D01*
X158127046Y-119592960D01*
X157948649Y-119454107D01*
X157829889Y-119389837D01*
X157749832Y-119346512D01*
X157749827Y-119346510D01*
X157536017Y-119273109D01*
X157354388Y-119242801D01*
X157313033Y-119235900D01*
X157086967Y-119235900D01*
X157045612Y-119242801D01*
X156863982Y-119273109D01*
X156650172Y-119346510D01*
X156650167Y-119346512D01*
X156451352Y-119454106D01*
X156272955Y-119592959D01*
X156272950Y-119592963D01*
X156119850Y-119759272D01*
X156119842Y-119759283D01*
X156033808Y-119890968D01*
X155980662Y-119936325D01*
X155911430Y-119945748D01*
X155848095Y-119916246D01*
X155826192Y-119890968D01*
X155740157Y-119759283D01*
X155740149Y-119759272D01*
X155587049Y-119592963D01*
X155587048Y-119592962D01*
X155587046Y-119592960D01*
X155408649Y-119454107D01*
X155289889Y-119389837D01*
X155209832Y-119346512D01*
X155209827Y-119346510D01*
X154996017Y-119273109D01*
X154814388Y-119242801D01*
X154773033Y-119235900D01*
X154546967Y-119235900D01*
X154505612Y-119242801D01*
X154323982Y-119273109D01*
X154110172Y-119346510D01*
X154110167Y-119346512D01*
X153911352Y-119454106D01*
X153732955Y-119592959D01*
X153732950Y-119592963D01*
X153579850Y-119759272D01*
X153579842Y-119759283D01*
X153493808Y-119890968D01*
X153440662Y-119936325D01*
X153371430Y-119945748D01*
X153308095Y-119916246D01*
X153286192Y-119890968D01*
X153200157Y-119759283D01*
X153200149Y-119759272D01*
X153047049Y-119592963D01*
X153047048Y-119592962D01*
X153047046Y-119592960D01*
X152868649Y-119454107D01*
X152749889Y-119389837D01*
X152669832Y-119346512D01*
X152669827Y-119346510D01*
X152456017Y-119273109D01*
X152274388Y-119242801D01*
X152233033Y-119235900D01*
X152006967Y-119235900D01*
X151965612Y-119242801D01*
X151783982Y-119273109D01*
X151570172Y-119346510D01*
X151570167Y-119346512D01*
X151371352Y-119454106D01*
X151192955Y-119592959D01*
X151192950Y-119592963D01*
X151039850Y-119759272D01*
X151039842Y-119759283D01*
X150953808Y-119890968D01*
X150900662Y-119936325D01*
X150831430Y-119945748D01*
X150768095Y-119916246D01*
X150746192Y-119890968D01*
X150660157Y-119759283D01*
X150660149Y-119759272D01*
X150507049Y-119592963D01*
X150507048Y-119592962D01*
X150507046Y-119592960D01*
X150328649Y-119454107D01*
X150209889Y-119389837D01*
X150129832Y-119346512D01*
X150129827Y-119346510D01*
X149916017Y-119273109D01*
X149734388Y-119242801D01*
X149693033Y-119235900D01*
X149466967Y-119235900D01*
X149425612Y-119242801D01*
X149243982Y-119273109D01*
X149030172Y-119346510D01*
X149030167Y-119346512D01*
X148831352Y-119454106D01*
X148652955Y-119592959D01*
X148652950Y-119592963D01*
X148499850Y-119759272D01*
X148499842Y-119759283D01*
X148376198Y-119948533D01*
X148285388Y-120155560D01*
X148229892Y-120374710D01*
X148211225Y-120599993D01*
X148211225Y-120600006D01*
X148229892Y-120825289D01*
X148285388Y-121044439D01*
X148376198Y-121251466D01*
X148499842Y-121440716D01*
X148499850Y-121440727D01*
X148652950Y-121607036D01*
X148652954Y-121607040D01*
X148831351Y-121745893D01*
X149030169Y-121853488D01*
X149030172Y-121853489D01*
X149243982Y-121926890D01*
X149243984Y-121926890D01*
X149243986Y-121926891D01*
X149466967Y-121964100D01*
X149466968Y-121964100D01*
X149693032Y-121964100D01*
X149693033Y-121964100D01*
X149916014Y-121926891D01*
X150129831Y-121853488D01*
X150328649Y-121745893D01*
X150507046Y-121607040D01*
X150660156Y-121440719D01*
X150746193Y-121309028D01*
X150799338Y-121263675D01*
X150868569Y-121254251D01*
X150931905Y-121283753D01*
X150953804Y-121309025D01*
X151039844Y-121440719D01*
X151039849Y-121440724D01*
X151039850Y-121440727D01*
X151192950Y-121607036D01*
X151192954Y-121607040D01*
X151371351Y-121745893D01*
X151570169Y-121853488D01*
X151570172Y-121853489D01*
X151783982Y-121926890D01*
X151783984Y-121926890D01*
X151783986Y-121926891D01*
X152006967Y-121964100D01*
X152006968Y-121964100D01*
X152233032Y-121964100D01*
X152233033Y-121964100D01*
X152456014Y-121926891D01*
X152669831Y-121853488D01*
X152868649Y-121745893D01*
X153047046Y-121607040D01*
X153200156Y-121440719D01*
X153286193Y-121309028D01*
X153339338Y-121263675D01*
X153408569Y-121254251D01*
X153471905Y-121283753D01*
X153493804Y-121309025D01*
X153579844Y-121440719D01*
X153579849Y-121440724D01*
X153579850Y-121440727D01*
X153732950Y-121607036D01*
X153732954Y-121607040D01*
X153911351Y-121745893D01*
X154110169Y-121853488D01*
X154110172Y-121853489D01*
X154323982Y-121926890D01*
X154323984Y-121926890D01*
X154323986Y-121926891D01*
X154546967Y-121964100D01*
X154546968Y-121964100D01*
X154773032Y-121964100D01*
X154773033Y-121964100D01*
X154996014Y-121926891D01*
X155209831Y-121853488D01*
X155408649Y-121745893D01*
X155587046Y-121607040D01*
X155740156Y-121440719D01*
X155826193Y-121309028D01*
X155879338Y-121263675D01*
X155948569Y-121254251D01*
X156011905Y-121283753D01*
X156033804Y-121309025D01*
X156119844Y-121440719D01*
X156119849Y-121440724D01*
X156119850Y-121440727D01*
X156272950Y-121607036D01*
X156272954Y-121607040D01*
X156451351Y-121745893D01*
X156650169Y-121853488D01*
X156650172Y-121853489D01*
X156863982Y-121926890D01*
X156863984Y-121926890D01*
X156863986Y-121926891D01*
X157086967Y-121964100D01*
X157086968Y-121964100D01*
X157313032Y-121964100D01*
X157313033Y-121964100D01*
X157536014Y-121926891D01*
X157749831Y-121853488D01*
X157948649Y-121745893D01*
X158127046Y-121607040D01*
X158280156Y-121440719D01*
X158366193Y-121309028D01*
X158419338Y-121263675D01*
X158488569Y-121254251D01*
X158551905Y-121283753D01*
X158573804Y-121309025D01*
X158659844Y-121440719D01*
X158659849Y-121440724D01*
X158659850Y-121440727D01*
X158812950Y-121607036D01*
X158812954Y-121607040D01*
X158991351Y-121745893D01*
X159190169Y-121853488D01*
X159190172Y-121853489D01*
X159403982Y-121926890D01*
X159403984Y-121926890D01*
X159403986Y-121926891D01*
X159626967Y-121964100D01*
X159626968Y-121964100D01*
X159853032Y-121964100D01*
X159853033Y-121964100D01*
X160076014Y-121926891D01*
X160289831Y-121853488D01*
X160488649Y-121745893D01*
X160667046Y-121607040D01*
X160820156Y-121440719D01*
X160906193Y-121309028D01*
X160959338Y-121263675D01*
X161028569Y-121254251D01*
X161091905Y-121283753D01*
X161113804Y-121309025D01*
X161199844Y-121440719D01*
X161199849Y-121440724D01*
X161199850Y-121440727D01*
X161352950Y-121607036D01*
X161352954Y-121607040D01*
X161531351Y-121745893D01*
X161730169Y-121853488D01*
X161730172Y-121853489D01*
X161943982Y-121926890D01*
X161943984Y-121926890D01*
X161943986Y-121926891D01*
X162166967Y-121964100D01*
X162166968Y-121964100D01*
X162393032Y-121964100D01*
X162393033Y-121964100D01*
X162616014Y-121926891D01*
X162829831Y-121853488D01*
X163028649Y-121745893D01*
X163207046Y-121607040D01*
X163360156Y-121440719D01*
X163446193Y-121309028D01*
X163499338Y-121263675D01*
X163568569Y-121254251D01*
X163631905Y-121283753D01*
X163653804Y-121309025D01*
X163739844Y-121440719D01*
X163739849Y-121440724D01*
X163739850Y-121440727D01*
X163892950Y-121607036D01*
X163892954Y-121607040D01*
X163892957Y-121607042D01*
X163892960Y-121607045D01*
X164021662Y-121707218D01*
X164062475Y-121763928D01*
X164069500Y-121805071D01*
X164069500Y-125411818D01*
X164052887Y-125473818D01*
X164004931Y-125556879D01*
X163973033Y-125655051D01*
X163946436Y-125736909D01*
X163926650Y-125925165D01*
X163946343Y-126112541D01*
X163933774Y-126181268D01*
X163886042Y-126232292D01*
X163823023Y-126249500D01*
X143642230Y-126249500D01*
X143575191Y-126229815D01*
X143554549Y-126213181D01*
X139508350Y-122166982D01*
X139474865Y-122105659D01*
X139479849Y-122035967D01*
X139521721Y-121980034D01*
X139575617Y-121956993D01*
X139756014Y-121926891D01*
X139969831Y-121853488D01*
X140168649Y-121745893D01*
X140347046Y-121607040D01*
X140500156Y-121440719D01*
X140586193Y-121309028D01*
X140639338Y-121263675D01*
X140708569Y-121254251D01*
X140771905Y-121283753D01*
X140793804Y-121309025D01*
X140879844Y-121440719D01*
X140879849Y-121440724D01*
X140879850Y-121440727D01*
X141032950Y-121607036D01*
X141032954Y-121607040D01*
X141211351Y-121745893D01*
X141410169Y-121853488D01*
X141410172Y-121853489D01*
X141623982Y-121926890D01*
X141623984Y-121926890D01*
X141623986Y-121926891D01*
X141846967Y-121964100D01*
X141846968Y-121964100D01*
X142073032Y-121964100D01*
X142073033Y-121964100D01*
X142296014Y-121926891D01*
X142509831Y-121853488D01*
X142708649Y-121745893D01*
X142887046Y-121607040D01*
X143040156Y-121440719D01*
X143126193Y-121309028D01*
X143179338Y-121263675D01*
X143248569Y-121254251D01*
X143311905Y-121283753D01*
X143333804Y-121309025D01*
X143419844Y-121440719D01*
X143419849Y-121440724D01*
X143419850Y-121440727D01*
X143572950Y-121607036D01*
X143572954Y-121607040D01*
X143751351Y-121745893D01*
X143950169Y-121853488D01*
X143950172Y-121853489D01*
X144163982Y-121926890D01*
X144163984Y-121926890D01*
X144163986Y-121926891D01*
X144386967Y-121964100D01*
X144386968Y-121964100D01*
X144613032Y-121964100D01*
X144613033Y-121964100D01*
X144836014Y-121926891D01*
X145049831Y-121853488D01*
X145248649Y-121745893D01*
X145427046Y-121607040D01*
X145580156Y-121440719D01*
X145703802Y-121251465D01*
X145794611Y-121044441D01*
X145850107Y-120825293D01*
X145860074Y-120705011D01*
X145868775Y-120600006D01*
X145868775Y-120599993D01*
X145855707Y-120442294D01*
X145850107Y-120374707D01*
X145794611Y-120155559D01*
X145703802Y-119948535D01*
X145580156Y-119759281D01*
X145580153Y-119759278D01*
X145580149Y-119759272D01*
X145427049Y-119592963D01*
X145427048Y-119592962D01*
X145427046Y-119592960D01*
X145248649Y-119454107D01*
X145129889Y-119389837D01*
X145049832Y-119346512D01*
X145049827Y-119346510D01*
X144836017Y-119273109D01*
X144654388Y-119242801D01*
X144613033Y-119235900D01*
X144386967Y-119235900D01*
X144345612Y-119242801D01*
X144163982Y-119273109D01*
X143950172Y-119346510D01*
X143950167Y-119346512D01*
X143751352Y-119454106D01*
X143572955Y-119592959D01*
X143572950Y-119592963D01*
X143419850Y-119759272D01*
X143419842Y-119759283D01*
X143333808Y-119890968D01*
X143280662Y-119936325D01*
X143211430Y-119945748D01*
X143148095Y-119916246D01*
X143126192Y-119890968D01*
X143040157Y-119759283D01*
X143040149Y-119759272D01*
X142887049Y-119592963D01*
X142887048Y-119592962D01*
X142887046Y-119592960D01*
X142708649Y-119454107D01*
X142589889Y-119389837D01*
X142509832Y-119346512D01*
X142509827Y-119346510D01*
X142296017Y-119273109D01*
X142114388Y-119242801D01*
X142073033Y-119235900D01*
X141846967Y-119235900D01*
X141805612Y-119242801D01*
X141623982Y-119273109D01*
X141410172Y-119346510D01*
X141410167Y-119346512D01*
X141211352Y-119454106D01*
X141032955Y-119592959D01*
X141032950Y-119592963D01*
X140879850Y-119759272D01*
X140879842Y-119759283D01*
X140793808Y-119890968D01*
X140740662Y-119936325D01*
X140671430Y-119945748D01*
X140608095Y-119916246D01*
X140586192Y-119890968D01*
X140500157Y-119759283D01*
X140500149Y-119759272D01*
X140347049Y-119592963D01*
X140347048Y-119592962D01*
X140347046Y-119592960D01*
X140168649Y-119454107D01*
X140049889Y-119389837D01*
X139969832Y-119346512D01*
X139969827Y-119346510D01*
X139756017Y-119273109D01*
X139574388Y-119242801D01*
X139533033Y-119235900D01*
X139306967Y-119235900D01*
X139265612Y-119242801D01*
X139083982Y-119273109D01*
X138870172Y-119346510D01*
X138870167Y-119346512D01*
X138671352Y-119454106D01*
X138492955Y-119592959D01*
X138492950Y-119592963D01*
X138339850Y-119759272D01*
X138339842Y-119759283D01*
X138253808Y-119890968D01*
X138200662Y-119936325D01*
X138131430Y-119945748D01*
X138068095Y-119916246D01*
X138046192Y-119890968D01*
X137960157Y-119759283D01*
X137960149Y-119759272D01*
X137807049Y-119592963D01*
X137807048Y-119592962D01*
X137807046Y-119592960D01*
X137628649Y-119454107D01*
X137509889Y-119389837D01*
X137429832Y-119346512D01*
X137429827Y-119346510D01*
X137216017Y-119273109D01*
X137034388Y-119242801D01*
X136993033Y-119235900D01*
X136766967Y-119235900D01*
X136725612Y-119242801D01*
X136543982Y-119273109D01*
X136330172Y-119346510D01*
X136330167Y-119346512D01*
X136131352Y-119454106D01*
X135952955Y-119592959D01*
X135952950Y-119592963D01*
X135799850Y-119759272D01*
X135799842Y-119759283D01*
X135713808Y-119890968D01*
X135660662Y-119936325D01*
X135591430Y-119945748D01*
X135528095Y-119916246D01*
X135506192Y-119890968D01*
X135420157Y-119759283D01*
X135420149Y-119759272D01*
X135267049Y-119592963D01*
X135267048Y-119592962D01*
X135267046Y-119592960D01*
X135088649Y-119454107D01*
X134969889Y-119389837D01*
X134889832Y-119346512D01*
X134889827Y-119346510D01*
X134676017Y-119273109D01*
X134494388Y-119242801D01*
X134453033Y-119235900D01*
X134226967Y-119235900D01*
X134185612Y-119242801D01*
X134003982Y-119273109D01*
X133790172Y-119346510D01*
X133790167Y-119346512D01*
X133591352Y-119454106D01*
X133412955Y-119592959D01*
X133412950Y-119592963D01*
X133259850Y-119759272D01*
X133259842Y-119759283D01*
X133173808Y-119890968D01*
X133120662Y-119936325D01*
X133051430Y-119945748D01*
X132988095Y-119916246D01*
X132966192Y-119890968D01*
X132880157Y-119759283D01*
X132880149Y-119759272D01*
X132727049Y-119592963D01*
X132727048Y-119592962D01*
X132727046Y-119592960D01*
X132548649Y-119454107D01*
X132429889Y-119389837D01*
X132349832Y-119346512D01*
X132349827Y-119346510D01*
X132136017Y-119273109D01*
X131954388Y-119242801D01*
X131913033Y-119235900D01*
X131686967Y-119235900D01*
X131645612Y-119242801D01*
X131463982Y-119273109D01*
X131250172Y-119346510D01*
X131250167Y-119346512D01*
X131051352Y-119454106D01*
X130872955Y-119592959D01*
X130872950Y-119592963D01*
X130719850Y-119759272D01*
X130719842Y-119759283D01*
X130633808Y-119890968D01*
X130580662Y-119936325D01*
X130511430Y-119945748D01*
X130448095Y-119916246D01*
X130426192Y-119890968D01*
X130340157Y-119759283D01*
X130340149Y-119759272D01*
X130187049Y-119592963D01*
X130187048Y-119592962D01*
X130187046Y-119592960D01*
X130008649Y-119454107D01*
X129889889Y-119389837D01*
X129809832Y-119346512D01*
X129809827Y-119346510D01*
X129596017Y-119273109D01*
X129414388Y-119242801D01*
X129373033Y-119235900D01*
X129146967Y-119235900D01*
X129105612Y-119242801D01*
X128923982Y-119273109D01*
X128710172Y-119346510D01*
X128710167Y-119346512D01*
X128511352Y-119454106D01*
X128332955Y-119592959D01*
X128332950Y-119592963D01*
X128179850Y-119759272D01*
X128179842Y-119759283D01*
X128093808Y-119890968D01*
X128040662Y-119936325D01*
X127971430Y-119945748D01*
X127908095Y-119916246D01*
X127886192Y-119890968D01*
X127800157Y-119759283D01*
X127800149Y-119759272D01*
X127647049Y-119592963D01*
X127647048Y-119592962D01*
X127647046Y-119592960D01*
X127468649Y-119454107D01*
X127349889Y-119389837D01*
X127269832Y-119346512D01*
X127269827Y-119346510D01*
X127056017Y-119273109D01*
X126874388Y-119242801D01*
X126833033Y-119235900D01*
X126606967Y-119235900D01*
X126565612Y-119242801D01*
X126383982Y-119273109D01*
X126170172Y-119346510D01*
X126170167Y-119346512D01*
X125971352Y-119454106D01*
X125792955Y-119592959D01*
X125792950Y-119592963D01*
X125639850Y-119759272D01*
X125639842Y-119759283D01*
X125516198Y-119948533D01*
X125425388Y-120155560D01*
X125369892Y-120374710D01*
X125351225Y-120599993D01*
X125351225Y-120600006D01*
X125369892Y-120825289D01*
X125425388Y-121044439D01*
X125516198Y-121251466D01*
X125639842Y-121440716D01*
X125639850Y-121440727D01*
X125792950Y-121607036D01*
X125792954Y-121607040D01*
X125971351Y-121745893D01*
X126170169Y-121853488D01*
X126170172Y-121853489D01*
X126383982Y-121926890D01*
X126383984Y-121926890D01*
X126383986Y-121926891D01*
X126606967Y-121964100D01*
X126606968Y-121964100D01*
X126833030Y-121964100D01*
X126833033Y-121964100D01*
X126932648Y-121947476D01*
X127002009Y-121955857D01*
X127040736Y-121982104D01*
X138037048Y-132978415D01*
X138037049Y-132978416D01*
X138141583Y-133082950D01*
X138141585Y-133082952D01*
X138264498Y-133165080D01*
X138264511Y-133165087D01*
X138401082Y-133221656D01*
X138401087Y-133221658D01*
X138401091Y-133221658D01*
X138401092Y-133221659D01*
X138546079Y-133250500D01*
X138546082Y-133250500D01*
X200573920Y-133250500D01*
X200671462Y-133231096D01*
X200718913Y-133221658D01*
X200855495Y-133165084D01*
X200904729Y-133132186D01*
X200978416Y-133082952D01*
X205082951Y-128978416D01*
X205165084Y-128855495D01*
X205221658Y-128718913D01*
X205250500Y-128573918D01*
X205250500Y-128426083D01*
X205250500Y-122901082D01*
X205250500Y-122901079D01*
X205221659Y-122756092D01*
X205221658Y-122756091D01*
X205221658Y-122756087D01*
X205165084Y-122619505D01*
X205132186Y-122570270D01*
X205097537Y-122518412D01*
X205082956Y-122496589D01*
X205082952Y-122496584D01*
X200003084Y-117416716D01*
X199969599Y-117355393D01*
X199968292Y-117309637D01*
X200000500Y-117106286D01*
X200000500Y-116893713D01*
X199993551Y-116849837D01*
X199967246Y-116683757D01*
X199901557Y-116481588D01*
X199805051Y-116292184D01*
X199805049Y-116292181D01*
X199805048Y-116292179D01*
X199680109Y-116120213D01*
X199529790Y-115969894D01*
X199529785Y-115969890D01*
X199364781Y-115850008D01*
X199322115Y-115794678D01*
X199316136Y-115725065D01*
X199348741Y-115663270D01*
X199364781Y-115649371D01*
X199529466Y-115529721D01*
X199679723Y-115379464D01*
X199679727Y-115379459D01*
X199804620Y-115207557D01*
X199901095Y-115018217D01*
X199966757Y-114816129D01*
X199966757Y-114816126D01*
X199977231Y-114750000D01*
X198929146Y-114750000D01*
X198967630Y-114683343D01*
X199000000Y-114562535D01*
X199000000Y-114437465D01*
X198967630Y-114316657D01*
X198929146Y-114250000D01*
X199977231Y-114250000D01*
X199966757Y-114183873D01*
X199966757Y-114183870D01*
X199901095Y-113981782D01*
X199804620Y-113792442D01*
X199679727Y-113620540D01*
X199679723Y-113620535D01*
X199540856Y-113481668D01*
X199507371Y-113420345D01*
X199512355Y-113350653D01*
X199554227Y-113294720D01*
X199563441Y-113288448D01*
X199569331Y-113284814D01*
X199569334Y-113284814D01*
X199718656Y-113192712D01*
X199842712Y-113068656D01*
X199934814Y-112919334D01*
X199989999Y-112752797D01*
X200000500Y-112650009D01*
X200000499Y-111349992D01*
X199989999Y-111247203D01*
X199934814Y-111080666D01*
X199842712Y-110931344D01*
X199718656Y-110807288D01*
X199569334Y-110715186D01*
X199402797Y-110660001D01*
X199402795Y-110660000D01*
X199300010Y-110649500D01*
X197749998Y-110649500D01*
X197749981Y-110649501D01*
X197647203Y-110660000D01*
X197647200Y-110660001D01*
X197520971Y-110701830D01*
X197451143Y-110704232D01*
X197391101Y-110668500D01*
X197359908Y-110605980D01*
X197360350Y-110559933D01*
X197375499Y-110483770D01*
X197375500Y-110483768D01*
X197375500Y-110316232D01*
X197375499Y-110316228D01*
X197342817Y-110151925D01*
X197342816Y-110151918D01*
X197278703Y-109997137D01*
X197240158Y-109939451D01*
X197185626Y-109857837D01*
X197067162Y-109739373D01*
X196927860Y-109646295D01*
X196773082Y-109582184D01*
X196773074Y-109582182D01*
X196608771Y-109549500D01*
X196608767Y-109549500D01*
X196441233Y-109549500D01*
X196441228Y-109549500D01*
X196276925Y-109582182D01*
X196276917Y-109582184D01*
X196122139Y-109646295D01*
X195982837Y-109739373D01*
X195864373Y-109857837D01*
X195771295Y-109997139D01*
X195707184Y-110151917D01*
X195707182Y-110151925D01*
X195674500Y-110316228D01*
X195674500Y-110483771D01*
X195707182Y-110648074D01*
X195707184Y-110648082D01*
X195771296Y-110802861D01*
X195773802Y-110806612D01*
X195794678Y-110873290D01*
X195776192Y-110940670D01*
X195724212Y-110987358D01*
X195670698Y-110999500D01*
X186021454Y-110999500D01*
X185989391Y-111005876D01*
X185989392Y-111005877D01*
X185828170Y-111037946D01*
X185828164Y-111037948D01*
X185646088Y-111113366D01*
X185646079Y-111113371D01*
X185482219Y-111222859D01*
X185482215Y-111222862D01*
X179024474Y-117680604D01*
X178963151Y-117714089D01*
X178893459Y-117709105D01*
X178837526Y-117667233D01*
X178816587Y-117623360D01*
X178814613Y-117615567D01*
X178814611Y-117615559D01*
X178723802Y-117408535D01*
X178600156Y-117219281D01*
X178600153Y-117219278D01*
X178600149Y-117219272D01*
X178447049Y-117052963D01*
X178447048Y-117052962D01*
X178447046Y-117052960D01*
X178268649Y-116914107D01*
X178268647Y-116914106D01*
X178268646Y-116914105D01*
X178268639Y-116914100D01*
X178240836Y-116899055D01*
X178191244Y-116849837D01*
X178176135Y-116781620D01*
X178200306Y-116716064D01*
X178240836Y-116680945D01*
X178268639Y-116665899D01*
X178268642Y-116665896D01*
X178268649Y-116665893D01*
X178447046Y-116527040D01*
X178600156Y-116360719D01*
X178723802Y-116171465D01*
X178814611Y-115964441D01*
X178870107Y-115745293D01*
X178887969Y-115529727D01*
X178888775Y-115520006D01*
X178888775Y-115519993D01*
X178870107Y-115294710D01*
X178870107Y-115294707D01*
X178814611Y-115075559D01*
X178723802Y-114868535D01*
X178689563Y-114816129D01*
X178600157Y-114679283D01*
X178600149Y-114679272D01*
X178447049Y-114512963D01*
X178447048Y-114512962D01*
X178447046Y-114512960D01*
X178268649Y-114374107D01*
X178268647Y-114374106D01*
X178268646Y-114374105D01*
X178268639Y-114374100D01*
X178240836Y-114359055D01*
X178191244Y-114309837D01*
X178176135Y-114241620D01*
X178200306Y-114176064D01*
X178240836Y-114140945D01*
X178268639Y-114125899D01*
X178268642Y-114125896D01*
X178268649Y-114125893D01*
X178447046Y-113987040D01*
X178600156Y-113820719D01*
X178723802Y-113631465D01*
X178814611Y-113424441D01*
X178870107Y-113205293D01*
X178884067Y-113036819D01*
X178888775Y-112980006D01*
X178888775Y-112979993D01*
X178870107Y-112754710D01*
X178870107Y-112754707D01*
X178814611Y-112535559D01*
X178723802Y-112328535D01*
X178600156Y-112139281D01*
X178600153Y-112139278D01*
X178600149Y-112139272D01*
X178447049Y-111972963D01*
X178447048Y-111972962D01*
X178447046Y-111972960D01*
X178268649Y-111834107D01*
X178268647Y-111834106D01*
X178268646Y-111834105D01*
X178268639Y-111834100D01*
X178240836Y-111819055D01*
X178191244Y-111769837D01*
X178176135Y-111701620D01*
X178200306Y-111636064D01*
X178240836Y-111600945D01*
X178268639Y-111585899D01*
X178268642Y-111585896D01*
X178268649Y-111585893D01*
X178447046Y-111447040D01*
X178600156Y-111280719D01*
X178723802Y-111091465D01*
X178814611Y-110884441D01*
X178870107Y-110665293D01*
X178885148Y-110483771D01*
X178888775Y-110440006D01*
X178888775Y-110439993D01*
X178870107Y-110214710D01*
X178870107Y-110214707D01*
X178814611Y-109995559D01*
X178723802Y-109788535D01*
X178691683Y-109739374D01*
X178600157Y-109599283D01*
X178600149Y-109599272D01*
X178447049Y-109432963D01*
X178447048Y-109432962D01*
X178447046Y-109432960D01*
X178268649Y-109294107D01*
X178268647Y-109294106D01*
X178268646Y-109294105D01*
X178268639Y-109294100D01*
X178240836Y-109279055D01*
X178191244Y-109229837D01*
X178176135Y-109161620D01*
X178200306Y-109096064D01*
X178240836Y-109060945D01*
X178268639Y-109045899D01*
X178268642Y-109045896D01*
X178268649Y-109045893D01*
X178447046Y-108907040D01*
X178600156Y-108740719D01*
X178723802Y-108551465D01*
X178814611Y-108344441D01*
X178870107Y-108125293D01*
X178888775Y-107900000D01*
X178888775Y-107899993D01*
X178870107Y-107674710D01*
X178870107Y-107674707D01*
X178814611Y-107455559D01*
X178723802Y-107248535D01*
X178600156Y-107059281D01*
X178600153Y-107059278D01*
X178600149Y-107059272D01*
X178447049Y-106892963D01*
X178447048Y-106892962D01*
X178447046Y-106892960D01*
X178268649Y-106754107D01*
X178268647Y-106754106D01*
X178268646Y-106754105D01*
X178268639Y-106754100D01*
X178240836Y-106739055D01*
X178191244Y-106689837D01*
X178176135Y-106621620D01*
X178200306Y-106556064D01*
X178240836Y-106520945D01*
X178268639Y-106505899D01*
X178268642Y-106505896D01*
X178268649Y-106505893D01*
X178447046Y-106367040D01*
X178600156Y-106200719D01*
X178723802Y-106011465D01*
X178814611Y-105804441D01*
X178870107Y-105585293D01*
X178888775Y-105360000D01*
X178888775Y-105359993D01*
X178870107Y-105134710D01*
X178870107Y-105134707D01*
X178814611Y-104915559D01*
X178723802Y-104708535D01*
X178600156Y-104519281D01*
X178600153Y-104519278D01*
X178600149Y-104519272D01*
X178447049Y-104352963D01*
X178447048Y-104352962D01*
X178447046Y-104352960D01*
X178268649Y-104214107D01*
X178268647Y-104214106D01*
X178268646Y-104214105D01*
X178268639Y-104214100D01*
X178240836Y-104199055D01*
X178191244Y-104149837D01*
X178176135Y-104081620D01*
X178200306Y-104016064D01*
X178240836Y-103980945D01*
X178268639Y-103965899D01*
X178268642Y-103965896D01*
X178268649Y-103965893D01*
X178447046Y-103827040D01*
X178600156Y-103660719D01*
X178723802Y-103471465D01*
X178814611Y-103264441D01*
X178870107Y-103045293D01*
X178888775Y-102820000D01*
X178888775Y-102819993D01*
X178870107Y-102594710D01*
X178870107Y-102594707D01*
X178814611Y-102375559D01*
X178723802Y-102168535D01*
X178600156Y-101979281D01*
X178600153Y-101979278D01*
X178600149Y-101979272D01*
X178447049Y-101812963D01*
X178447048Y-101812962D01*
X178447046Y-101812960D01*
X178268649Y-101674107D01*
X178268647Y-101674106D01*
X178268646Y-101674105D01*
X178268639Y-101674100D01*
X178240836Y-101659055D01*
X178191244Y-101609837D01*
X178176135Y-101541620D01*
X178200306Y-101476064D01*
X178240836Y-101440945D01*
X178268639Y-101425899D01*
X178268642Y-101425896D01*
X178268649Y-101425893D01*
X178447046Y-101287040D01*
X178600156Y-101120719D01*
X178723802Y-100931465D01*
X178814611Y-100724441D01*
X178870107Y-100505293D01*
X178888775Y-100280000D01*
X178888775Y-100279993D01*
X178870107Y-100054710D01*
X178870107Y-100054707D01*
X178814611Y-99835559D01*
X178723802Y-99628535D01*
X178600156Y-99439281D01*
X178600153Y-99439278D01*
X178600149Y-99439272D01*
X178447049Y-99272963D01*
X178447048Y-99272962D01*
X178447046Y-99272960D01*
X178268649Y-99134107D01*
X178268647Y-99134106D01*
X178268646Y-99134105D01*
X178268639Y-99134100D01*
X178240836Y-99119055D01*
X178191244Y-99069837D01*
X178176135Y-99001620D01*
X178200306Y-98936064D01*
X178240836Y-98900945D01*
X178268639Y-98885899D01*
X178268642Y-98885896D01*
X178268649Y-98885893D01*
X178447046Y-98747040D01*
X178600156Y-98580719D01*
X178723802Y-98391465D01*
X178814611Y-98184441D01*
X178870107Y-97965293D01*
X178888775Y-97740000D01*
X178888775Y-97739993D01*
X178870107Y-97514710D01*
X178870107Y-97514707D01*
X178814611Y-97295559D01*
X178723802Y-97088535D01*
X178600156Y-96899281D01*
X178600153Y-96899278D01*
X178600149Y-96899272D01*
X178447049Y-96732963D01*
X178447048Y-96732962D01*
X178447046Y-96732960D01*
X178268649Y-96594107D01*
X178268647Y-96594106D01*
X178268646Y-96594105D01*
X178268639Y-96594100D01*
X178240836Y-96579055D01*
X178191244Y-96529837D01*
X178176135Y-96461620D01*
X178200306Y-96396064D01*
X178240836Y-96360945D01*
X178268639Y-96345899D01*
X178268642Y-96345896D01*
X178268649Y-96345893D01*
X178447046Y-96207040D01*
X178600156Y-96040719D01*
X178723802Y-95851465D01*
X178814611Y-95644441D01*
X178870107Y-95425293D01*
X178888775Y-95200000D01*
X178888775Y-95199993D01*
X178870107Y-94974710D01*
X178870107Y-94974707D01*
X178814611Y-94755559D01*
X178723802Y-94548535D01*
X178600156Y-94359281D01*
X178600153Y-94359278D01*
X178600149Y-94359272D01*
X178447049Y-94192963D01*
X178447048Y-94192962D01*
X178447046Y-94192960D01*
X178268649Y-94054107D01*
X178268647Y-94054106D01*
X178268646Y-94054105D01*
X178268639Y-94054100D01*
X178240836Y-94039055D01*
X178191244Y-93989837D01*
X178176135Y-93921620D01*
X178200306Y-93856064D01*
X178240836Y-93820945D01*
X178268639Y-93805899D01*
X178268642Y-93805896D01*
X178268649Y-93805893D01*
X178447046Y-93667040D01*
X178600156Y-93500719D01*
X178723802Y-93311465D01*
X178814611Y-93104441D01*
X178870107Y-92885293D01*
X178888775Y-92660000D01*
X178888775Y-92659993D01*
X178870107Y-92434710D01*
X178870107Y-92434707D01*
X178814611Y-92215559D01*
X178723802Y-92008535D01*
X178600156Y-91819281D01*
X178600153Y-91819278D01*
X178600149Y-91819272D01*
X178447049Y-91652963D01*
X178447048Y-91652962D01*
X178447046Y-91652960D01*
X178268649Y-91514107D01*
X178268647Y-91514106D01*
X178268646Y-91514105D01*
X178268639Y-91514100D01*
X178240836Y-91499055D01*
X178191244Y-91449837D01*
X178176135Y-91381620D01*
X178200306Y-91316064D01*
X178240836Y-91280945D01*
X178268639Y-91265899D01*
X178268642Y-91265896D01*
X178268649Y-91265893D01*
X178447046Y-91127040D01*
X178600156Y-90960719D01*
X178723802Y-90771465D01*
X178814611Y-90564441D01*
X178870107Y-90345293D01*
X178888775Y-90120000D01*
X178888775Y-90119993D01*
X178870107Y-89894710D01*
X178870107Y-89894707D01*
X178814611Y-89675559D01*
X178723802Y-89468535D01*
X178600156Y-89279281D01*
X178600153Y-89279278D01*
X178600149Y-89279272D01*
X178447049Y-89112963D01*
X178447048Y-89112962D01*
X178447046Y-89112960D01*
X178268649Y-88974107D01*
X178268647Y-88974106D01*
X178268646Y-88974105D01*
X178268639Y-88974100D01*
X178240836Y-88959055D01*
X178191244Y-88909837D01*
X178176135Y-88841620D01*
X178200306Y-88776064D01*
X178240836Y-88740945D01*
X178268639Y-88725899D01*
X178268642Y-88725896D01*
X178268649Y-88725893D01*
X178447046Y-88587040D01*
X178600156Y-88420719D01*
X178723802Y-88231465D01*
X178814611Y-88024441D01*
X178870107Y-87805293D01*
X178882556Y-87655051D01*
X178888775Y-87580006D01*
X178888775Y-87579993D01*
X178875707Y-87422294D01*
X178870107Y-87354707D01*
X178814611Y-87135559D01*
X178723802Y-86928535D01*
X178600156Y-86739281D01*
X178600153Y-86739278D01*
X178600149Y-86739272D01*
X178447049Y-86572963D01*
X178447048Y-86572962D01*
X178447046Y-86572960D01*
X178268649Y-86434107D01*
X178268647Y-86434106D01*
X178268646Y-86434105D01*
X178268639Y-86434100D01*
X178240836Y-86419055D01*
X178191244Y-86369837D01*
X178176135Y-86301620D01*
X178200306Y-86236064D01*
X178240836Y-86200945D01*
X178268639Y-86185899D01*
X178268642Y-86185896D01*
X178268649Y-86185893D01*
X178447046Y-86047040D01*
X178600156Y-85880719D01*
X178723802Y-85691465D01*
X178814611Y-85484441D01*
X178870107Y-85265293D01*
X178879712Y-85149372D01*
X178888775Y-85040006D01*
X178888775Y-85039993D01*
X178870107Y-84814710D01*
X178870107Y-84814707D01*
X178814611Y-84595559D01*
X178723802Y-84388535D01*
X178600156Y-84199281D01*
X178600153Y-84199278D01*
X178600149Y-84199272D01*
X178447049Y-84032963D01*
X178447048Y-84032962D01*
X178447046Y-84032960D01*
X178268649Y-83894107D01*
X178268647Y-83894106D01*
X178268646Y-83894105D01*
X178268639Y-83894100D01*
X178240836Y-83879055D01*
X178191244Y-83829837D01*
X178176135Y-83761620D01*
X178200306Y-83696064D01*
X178240836Y-83660945D01*
X178268639Y-83645899D01*
X178268642Y-83645896D01*
X178268649Y-83645893D01*
X178447046Y-83507040D01*
X178600156Y-83340719D01*
X178723802Y-83151465D01*
X178814611Y-82944441D01*
X178870107Y-82725293D01*
X178877574Y-82635175D01*
X178888775Y-82500006D01*
X178888775Y-82499993D01*
X178875707Y-82342294D01*
X178870107Y-82274707D01*
X178814611Y-82055559D01*
X178723802Y-81848535D01*
X178600156Y-81659281D01*
X178600153Y-81659278D01*
X178600149Y-81659272D01*
X178447049Y-81492963D01*
X178447048Y-81492962D01*
X178447046Y-81492960D01*
X178268649Y-81354107D01*
X178268647Y-81354106D01*
X178268646Y-81354105D01*
X178268639Y-81354100D01*
X178240836Y-81339055D01*
X178191244Y-81289837D01*
X178176135Y-81221620D01*
X178200306Y-81156064D01*
X178240836Y-81120945D01*
X178268639Y-81105899D01*
X178268642Y-81105896D01*
X178268649Y-81105893D01*
X178447046Y-80967040D01*
X178546832Y-80858643D01*
X178600149Y-80800727D01*
X178600151Y-80800724D01*
X178600156Y-80800719D01*
X178723802Y-80611465D01*
X178814611Y-80404441D01*
X178870107Y-80185293D01*
X178882966Y-80030104D01*
X178888775Y-79960006D01*
X178888775Y-79959993D01*
X178871442Y-79750816D01*
X178870107Y-79734707D01*
X178814611Y-79515559D01*
X178723802Y-79308535D01*
X178600156Y-79119281D01*
X178600153Y-79119278D01*
X178600149Y-79119272D01*
X178462755Y-78970024D01*
X178431832Y-78907370D01*
X178439692Y-78837944D01*
X178483839Y-78783788D01*
X178510652Y-78769859D01*
X178625684Y-78726955D01*
X178625693Y-78726950D01*
X178740787Y-78640790D01*
X178740790Y-78640787D01*
X178826950Y-78525693D01*
X178826954Y-78525686D01*
X178877196Y-78390979D01*
X178877198Y-78390972D01*
X178883599Y-78331444D01*
X178883600Y-78331427D01*
X178883600Y-77670000D01*
X177962251Y-77670000D01*
X177993381Y-77616081D01*
X178028000Y-77486880D01*
X178028000Y-77353120D01*
X177993381Y-77223919D01*
X177962251Y-77170000D01*
X178883600Y-77170000D01*
X178883600Y-76508572D01*
X178883599Y-76508555D01*
X178877198Y-76449027D01*
X178877196Y-76449017D01*
X178865565Y-76417832D01*
X178860581Y-76348141D01*
X178894067Y-76286818D01*
X178955390Y-76253334D01*
X178981747Y-76250500D01*
X180637770Y-76250500D01*
X180704809Y-76270185D01*
X180725450Y-76286818D01*
X183917048Y-79478415D01*
X183917049Y-79478416D01*
X184021584Y-79582951D01*
X184021585Y-79582952D01*
X184144498Y-79665080D01*
X184144511Y-79665087D01*
X184281082Y-79721656D01*
X184281087Y-79721658D01*
X184281091Y-79721658D01*
X184281092Y-79721659D01*
X184426079Y-79750500D01*
X184426082Y-79750500D01*
X187637770Y-79750500D01*
X187704809Y-79770185D01*
X187725451Y-79786819D01*
X189587228Y-81648596D01*
X189617478Y-81697958D01*
X189672819Y-81868280D01*
X189672821Y-81868284D01*
X189767467Y-82032216D01*
X189894129Y-82172888D01*
X190047265Y-82284148D01*
X190047270Y-82284151D01*
X190220192Y-82361142D01*
X190220197Y-82361144D01*
X190405354Y-82400500D01*
X190405355Y-82400500D01*
X190594644Y-82400500D01*
X190594646Y-82400500D01*
X190779803Y-82361144D01*
X190952730Y-82284151D01*
X191105871Y-82172888D01*
X191232533Y-82032216D01*
X191327179Y-81868284D01*
X191385674Y-81688256D01*
X191405460Y-81500000D01*
X191385674Y-81311744D01*
X191327179Y-81131716D01*
X191232533Y-80967784D01*
X191105871Y-80827112D01*
X191105870Y-80827111D01*
X190952734Y-80715851D01*
X190952729Y-80715848D01*
X190779807Y-80638857D01*
X190779803Y-80638856D01*
X190714669Y-80625011D01*
X190653188Y-80591818D01*
X190652770Y-80591402D01*
X190023549Y-79962181D01*
X189990064Y-79900858D01*
X189995048Y-79831166D01*
X190036920Y-79775233D01*
X190102384Y-79750816D01*
X190111230Y-79750500D01*
X197187779Y-79750500D01*
X197254818Y-79770185D01*
X197288097Y-79801615D01*
X197344892Y-79879788D01*
X197495209Y-80030105D01*
X197495214Y-80030109D01*
X197659793Y-80149682D01*
X197702459Y-80205011D01*
X197708438Y-80274625D01*
X197675833Y-80336420D01*
X197659793Y-80350318D01*
X197495214Y-80469890D01*
X197495209Y-80469894D01*
X197344890Y-80620213D01*
X197219951Y-80792179D01*
X197123444Y-80981585D01*
X197057753Y-81183760D01*
X197040952Y-81289837D01*
X197024500Y-81393713D01*
X197024500Y-81606287D01*
X197057754Y-81816243D01*
X197117282Y-81999451D01*
X197123444Y-82018414D01*
X197219951Y-82207820D01*
X197344890Y-82379786D01*
X197495209Y-82530105D01*
X197495214Y-82530109D01*
X197660218Y-82649991D01*
X197702884Y-82705320D01*
X197708863Y-82774934D01*
X197676258Y-82836729D01*
X197660218Y-82850627D01*
X197495540Y-82970272D01*
X197495535Y-82970276D01*
X197345276Y-83120535D01*
X197345272Y-83120540D01*
X197220379Y-83292442D01*
X197123904Y-83481782D01*
X197058242Y-83683870D01*
X197058242Y-83683873D01*
X197047769Y-83750000D01*
X198095854Y-83750000D01*
X198057370Y-83816657D01*
X198025000Y-83937465D01*
X198025000Y-84062535D01*
X198057370Y-84183343D01*
X198095854Y-84250000D01*
X197047769Y-84250000D01*
X197058242Y-84316126D01*
X197058242Y-84316129D01*
X197123904Y-84518217D01*
X197220379Y-84707557D01*
X197345272Y-84879459D01*
X197345276Y-84879464D01*
X197495535Y-85029723D01*
X197495540Y-85029727D01*
X197660218Y-85149372D01*
X197702884Y-85204701D01*
X197708863Y-85274315D01*
X197676258Y-85336110D01*
X197660218Y-85350008D01*
X197495214Y-85469890D01*
X197495209Y-85469894D01*
X197344890Y-85620213D01*
X197219951Y-85792179D01*
X197123444Y-85981585D01*
X197057753Y-86183760D01*
X197024500Y-86393713D01*
X197024500Y-86606286D01*
X197045564Y-86739283D01*
X197057754Y-86816243D01*
X197094239Y-86928533D01*
X197123444Y-87018414D01*
X197219951Y-87207820D01*
X197344890Y-87379786D01*
X197495213Y-87530109D01*
X197667179Y-87655048D01*
X197667181Y-87655049D01*
X197667184Y-87655051D01*
X197856588Y-87751557D01*
X198058757Y-87817246D01*
X198268713Y-87850500D01*
X198268714Y-87850500D01*
X198731286Y-87850500D01*
X198731287Y-87850500D01*
X198941243Y-87817246D01*
X199143412Y-87751557D01*
X199332816Y-87655051D01*
X199354789Y-87639086D01*
X199504786Y-87530109D01*
X199504788Y-87530106D01*
X199504792Y-87530104D01*
X199655104Y-87379792D01*
X199655106Y-87379788D01*
X199655109Y-87379786D01*
X199780048Y-87207820D01*
X199780047Y-87207820D01*
X199780051Y-87207816D01*
X199876557Y-87018412D01*
X199942246Y-86816243D01*
X199975500Y-86606287D01*
X199975500Y-86393713D01*
X199942246Y-86183757D01*
X199876557Y-85981588D01*
X199780051Y-85792184D01*
X199780049Y-85792181D01*
X199780048Y-85792179D01*
X199655109Y-85620213D01*
X199504790Y-85469894D01*
X199504785Y-85469890D01*
X199339781Y-85350008D01*
X199297115Y-85294678D01*
X199291136Y-85225065D01*
X199323741Y-85163270D01*
X199339781Y-85149371D01*
X199504466Y-85029721D01*
X199654723Y-84879464D01*
X199654727Y-84879459D01*
X199779620Y-84707557D01*
X199876095Y-84518217D01*
X199941757Y-84316129D01*
X199941757Y-84316126D01*
X199952231Y-84250000D01*
X198904146Y-84250000D01*
X198942630Y-84183343D01*
X198975000Y-84062535D01*
X198975000Y-83937465D01*
X198942630Y-83816657D01*
X198904146Y-83750000D01*
X199952231Y-83750000D01*
X199941757Y-83683873D01*
X199941757Y-83683870D01*
X199876095Y-83481782D01*
X199779620Y-83292442D01*
X199654727Y-83120540D01*
X199654723Y-83120535D01*
X199504464Y-82970276D01*
X199504459Y-82970272D01*
X199339781Y-82850627D01*
X199297115Y-82795297D01*
X199291136Y-82725684D01*
X199323741Y-82663889D01*
X199339776Y-82649994D01*
X199504792Y-82530104D01*
X199655104Y-82379792D01*
X199655106Y-82379788D01*
X199655109Y-82379786D01*
X199780048Y-82207820D01*
X199780047Y-82207820D01*
X199780051Y-82207816D01*
X199876557Y-82018412D01*
X199942246Y-81816243D01*
X199975500Y-81606287D01*
X199975500Y-81393713D01*
X199959048Y-81289837D01*
X199943292Y-81190360D01*
X199952247Y-81121066D01*
X199978081Y-81083284D01*
X204774548Y-76286819D01*
X204835871Y-76253334D01*
X204862229Y-76250500D01*
X209573920Y-76250500D01*
X209671462Y-76231096D01*
X209718913Y-76221658D01*
X209855495Y-76165084D01*
X209904729Y-76132186D01*
X209978416Y-76082952D01*
X211082952Y-74978415D01*
X211159082Y-74864477D01*
X211165084Y-74855495D01*
X211205584Y-74757720D01*
X211221659Y-74718912D01*
X211250500Y-74573917D01*
X211250500Y-74426082D01*
X211250500Y-61926082D01*
X211250500Y-61926079D01*
X211221659Y-61781092D01*
X211221658Y-61781091D01*
X211221658Y-61781087D01*
X211221656Y-61781082D01*
X211165087Y-61644511D01*
X211165080Y-61644498D01*
X211082952Y-61521585D01*
X211082951Y-61521584D01*
X210978416Y-61417049D01*
X209485736Y-59924369D01*
X207561369Y-58000001D01*
X209994390Y-58000001D01*
X210014804Y-58285433D01*
X210075628Y-58565037D01*
X210075630Y-58565043D01*
X210075631Y-58565046D01*
X210134493Y-58722861D01*
X210175635Y-58833166D01*
X210312770Y-59084309D01*
X210312775Y-59084317D01*
X210484254Y-59313387D01*
X210484270Y-59313405D01*
X210686594Y-59515729D01*
X210686612Y-59515745D01*
X210915682Y-59687224D01*
X210915690Y-59687229D01*
X211166833Y-59824364D01*
X211166832Y-59824364D01*
X211166836Y-59824365D01*
X211166839Y-59824367D01*
X211434954Y-59924369D01*
X211434960Y-59924370D01*
X211434962Y-59924371D01*
X211714566Y-59985195D01*
X211714568Y-59985195D01*
X211714572Y-59985196D01*
X211968220Y-60003337D01*
X211999999Y-60005610D01*
X212000000Y-60005610D01*
X212000001Y-60005610D01*
X212028595Y-60003564D01*
X212285428Y-59985196D01*
X212565046Y-59924369D01*
X212833161Y-59824367D01*
X213084315Y-59687226D01*
X213313395Y-59515739D01*
X213515739Y-59313395D01*
X213687226Y-59084315D01*
X213824367Y-58833161D01*
X213924369Y-58565046D01*
X213932604Y-58527191D01*
X213985195Y-58285433D01*
X213985195Y-58285432D01*
X213985196Y-58285428D01*
X214005610Y-58000000D01*
X213985196Y-57714572D01*
X213941371Y-57513113D01*
X213924371Y-57434962D01*
X213924370Y-57434960D01*
X213924369Y-57434954D01*
X213824367Y-57166839D01*
X213723210Y-56981585D01*
X213687229Y-56915690D01*
X213687224Y-56915682D01*
X213515745Y-56686612D01*
X213515729Y-56686594D01*
X213313405Y-56484270D01*
X213313387Y-56484254D01*
X213084317Y-56312775D01*
X213084309Y-56312770D01*
X212833166Y-56175635D01*
X212833167Y-56175635D01*
X212725915Y-56135632D01*
X212565046Y-56075631D01*
X212565043Y-56075630D01*
X212565037Y-56075628D01*
X212285433Y-56014804D01*
X212000001Y-55994390D01*
X211999999Y-55994390D01*
X211714566Y-56014804D01*
X211434962Y-56075628D01*
X211166833Y-56175635D01*
X210915690Y-56312770D01*
X210915682Y-56312775D01*
X210686612Y-56484254D01*
X210686594Y-56484270D01*
X210484270Y-56686594D01*
X210484254Y-56686612D01*
X210312775Y-56915682D01*
X210312770Y-56915690D01*
X210175635Y-57166833D01*
X210075628Y-57434962D01*
X210014804Y-57714566D01*
X209994390Y-57999998D01*
X209994390Y-58000001D01*
X207561369Y-58000001D01*
X204978421Y-55417052D01*
X204978414Y-55417046D01*
X204904729Y-55367812D01*
X204904729Y-55367813D01*
X204855491Y-55334913D01*
X204718917Y-55278343D01*
X204718907Y-55278340D01*
X204573920Y-55249500D01*
X204573918Y-55249500D01*
X141073917Y-55249500D01*
X140926082Y-55249500D01*
X140926080Y-55249500D01*
X140781092Y-55278340D01*
X140781082Y-55278343D01*
X140644511Y-55334912D01*
X140644498Y-55334919D01*
X140521584Y-55417048D01*
X140521580Y-55417051D01*
X130225451Y-65713181D01*
X130164128Y-65746666D01*
X130137770Y-65749500D01*
X117426080Y-65749500D01*
X117281092Y-65778340D01*
X117281082Y-65778343D01*
X117144511Y-65834912D01*
X117144498Y-65834919D01*
X117021584Y-65917048D01*
X117021580Y-65917051D01*
X113437050Y-69501580D01*
X113437044Y-69501588D01*
X113387812Y-69575268D01*
X113387813Y-69575269D01*
X113354921Y-69624496D01*
X113354914Y-69624508D01*
X113298342Y-69761086D01*
X113298340Y-69761092D01*
X113269500Y-69906079D01*
X113269500Y-71134927D01*
X113249815Y-71201966D01*
X113221663Y-71232780D01*
X113092955Y-71332958D01*
X113092950Y-71332963D01*
X112939850Y-71499272D01*
X112939842Y-71499283D01*
X112853808Y-71630968D01*
X112800662Y-71676325D01*
X112731430Y-71685748D01*
X112668095Y-71656246D01*
X112646192Y-71630968D01*
X112560157Y-71499283D01*
X112560149Y-71499272D01*
X112407049Y-71332963D01*
X112407048Y-71332962D01*
X112407046Y-71332960D01*
X112228649Y-71194107D01*
X112195318Y-71176069D01*
X112029832Y-71086512D01*
X112029827Y-71086510D01*
X111816017Y-71013109D01*
X111631434Y-70982308D01*
X111593033Y-70975900D01*
X111366967Y-70975900D01*
X111328566Y-70982308D01*
X111143982Y-71013109D01*
X110930172Y-71086510D01*
X110930167Y-71086512D01*
X110731352Y-71194106D01*
X110552955Y-71332959D01*
X110552950Y-71332963D01*
X110399850Y-71499272D01*
X110399842Y-71499283D01*
X110313808Y-71630968D01*
X110260662Y-71676325D01*
X110191430Y-71685748D01*
X110128095Y-71656246D01*
X110106192Y-71630968D01*
X110020157Y-71499283D01*
X110020149Y-71499272D01*
X109867049Y-71332963D01*
X109867048Y-71332962D01*
X109867046Y-71332960D01*
X109688649Y-71194107D01*
X109655318Y-71176069D01*
X109489832Y-71086512D01*
X109489827Y-71086510D01*
X109276017Y-71013109D01*
X109091434Y-70982308D01*
X109053033Y-70975900D01*
X108826967Y-70975900D01*
X108788566Y-70982308D01*
X108603982Y-71013109D01*
X108390172Y-71086510D01*
X108390167Y-71086512D01*
X108191352Y-71194106D01*
X108012955Y-71332959D01*
X108012950Y-71332963D01*
X107859850Y-71499272D01*
X107859842Y-71499283D01*
X107736198Y-71688533D01*
X107645388Y-71895560D01*
X107589892Y-72114710D01*
X107571225Y-72339993D01*
X107571225Y-72340006D01*
X67250500Y-72340006D01*
X67250500Y-58000001D01*
X69994390Y-58000001D01*
X70014804Y-58285433D01*
X70075628Y-58565037D01*
X70075630Y-58565043D01*
X70075631Y-58565046D01*
X70134493Y-58722861D01*
X70175635Y-58833166D01*
X70312770Y-59084309D01*
X70312775Y-59084317D01*
X70484254Y-59313387D01*
X70484270Y-59313405D01*
X70686594Y-59515729D01*
X70686612Y-59515745D01*
X70915682Y-59687224D01*
X70915690Y-59687229D01*
X71166833Y-59824364D01*
X71166832Y-59824364D01*
X71166836Y-59824365D01*
X71166839Y-59824367D01*
X71434954Y-59924369D01*
X71434960Y-59924370D01*
X71434962Y-59924371D01*
X71714566Y-59985195D01*
X71714568Y-59985195D01*
X71714572Y-59985196D01*
X71968220Y-60003337D01*
X71999999Y-60005610D01*
X72000000Y-60005610D01*
X72000001Y-60005610D01*
X72028595Y-60003564D01*
X72285428Y-59985196D01*
X72565046Y-59924369D01*
X72833161Y-59824367D01*
X73084315Y-59687226D01*
X73313395Y-59515739D01*
X73515739Y-59313395D01*
X73687226Y-59084315D01*
X73824367Y-58833161D01*
X73924369Y-58565046D01*
X73932604Y-58527191D01*
X73985195Y-58285433D01*
X73985195Y-58285432D01*
X73985196Y-58285428D01*
X74005610Y-58000000D01*
X73985196Y-57714572D01*
X73961640Y-57606286D01*
X96999500Y-57606286D01*
X97032753Y-57816239D01*
X97098444Y-58018414D01*
X97194951Y-58207820D01*
X97319890Y-58379786D01*
X97459068Y-58518964D01*
X97492553Y-58580287D01*
X97487569Y-58649979D01*
X97445697Y-58705912D01*
X97436484Y-58712183D01*
X97281659Y-58807680D01*
X97281655Y-58807683D01*
X97157684Y-58931654D01*
X97065643Y-59080875D01*
X97065641Y-59080880D01*
X97010494Y-59247302D01*
X97010493Y-59247309D01*
X97000000Y-59350013D01*
X97000000Y-59750000D01*
X98066988Y-59750000D01*
X98034075Y-59807007D01*
X98000000Y-59934174D01*
X98000000Y-60065826D01*
X98034075Y-60192993D01*
X98066988Y-60250000D01*
X97000001Y-60250000D01*
X97000001Y-60649986D01*
X97010494Y-60752697D01*
X97065641Y-60919119D01*
X97065643Y-60919124D01*
X97157684Y-61068345D01*
X97281654Y-61192315D01*
X97430875Y-61284356D01*
X97430880Y-61284358D01*
X97597302Y-61339505D01*
X97597309Y-61339506D01*
X97700019Y-61349999D01*
X98249999Y-61349999D01*
X98250000Y-61349998D01*
X98250000Y-60433012D01*
X98307007Y-60465925D01*
X98434174Y-60500000D01*
X98565826Y-60500000D01*
X98692993Y-60465925D01*
X98750000Y-60433012D01*
X98750000Y-61349999D01*
X99299972Y-61349999D01*
X99299986Y-61349998D01*
X99402697Y-61339505D01*
X99569119Y-61284358D01*
X99569124Y-61284356D01*
X99718345Y-61192315D01*
X99842315Y-61068345D01*
X99934356Y-60919124D01*
X99934358Y-60919119D01*
X99989505Y-60752697D01*
X99989506Y-60752690D01*
X99999999Y-60649986D01*
X100000000Y-60649973D01*
X100000000Y-60250000D01*
X98933012Y-60250000D01*
X98965925Y-60192993D01*
X99000000Y-60065826D01*
X99000000Y-59934174D01*
X98965925Y-59807007D01*
X98933012Y-59750000D01*
X99999999Y-59750000D01*
X99999999Y-59350028D01*
X99999998Y-59350013D01*
X99989505Y-59247302D01*
X99934358Y-59080880D01*
X99934356Y-59080875D01*
X99842315Y-58931654D01*
X99718345Y-58807684D01*
X99563515Y-58712184D01*
X99516791Y-58660236D01*
X99505568Y-58591273D01*
X99533412Y-58527191D01*
X99540909Y-58518986D01*
X99680104Y-58379792D01*
X99805051Y-58207816D01*
X99901557Y-58018412D01*
X99967246Y-57816243D01*
X100000500Y-57606287D01*
X100000500Y-57393713D01*
X99967246Y-57183757D01*
X99901557Y-56981588D01*
X99805051Y-56792184D01*
X99805049Y-56792181D01*
X99805048Y-56792179D01*
X99680109Y-56620213D01*
X99529786Y-56469890D01*
X99357820Y-56344951D01*
X99168414Y-56248444D01*
X99168413Y-56248443D01*
X99168412Y-56248443D01*
X98966243Y-56182754D01*
X98966241Y-56182753D01*
X98966240Y-56182753D01*
X98804957Y-56157208D01*
X98756287Y-56149500D01*
X98243713Y-56149500D01*
X98195042Y-56157208D01*
X98033760Y-56182753D01*
X97831585Y-56248444D01*
X97642179Y-56344951D01*
X97470213Y-56469890D01*
X97319890Y-56620213D01*
X97194951Y-56792179D01*
X97098444Y-56981585D01*
X97032753Y-57183760D01*
X96999500Y-57393713D01*
X96999500Y-57606286D01*
X73961640Y-57606286D01*
X73941371Y-57513113D01*
X73924371Y-57434962D01*
X73924370Y-57434960D01*
X73924369Y-57434954D01*
X73824367Y-57166839D01*
X73723210Y-56981585D01*
X73687229Y-56915690D01*
X73687224Y-56915682D01*
X73515745Y-56686612D01*
X73515729Y-56686594D01*
X73313405Y-56484270D01*
X73313387Y-56484254D01*
X73084317Y-56312775D01*
X73084309Y-56312770D01*
X72833166Y-56175635D01*
X72833167Y-56175635D01*
X72725915Y-56135632D01*
X72565046Y-56075631D01*
X72565043Y-56075630D01*
X72565037Y-56075628D01*
X72285433Y-56014804D01*
X72000001Y-55994390D01*
X71999999Y-55994390D01*
X71714566Y-56014804D01*
X71434962Y-56075628D01*
X71166833Y-56175635D01*
X70915690Y-56312770D01*
X70915682Y-56312775D01*
X70686612Y-56484254D01*
X70686594Y-56484270D01*
X70484270Y-56686594D01*
X70484254Y-56686612D01*
X70312775Y-56915682D01*
X70312770Y-56915690D01*
X70175635Y-57166833D01*
X70075628Y-57434962D01*
X70014804Y-57714566D01*
X69994390Y-57999998D01*
X69994390Y-58000001D01*
X67250500Y-58000001D01*
X67250500Y-53374500D01*
X67270185Y-53307461D01*
X67322989Y-53261706D01*
X67374500Y-53250500D01*
X216625500Y-53250500D01*
X216692539Y-53270185D01*
G37*
%TD.AperFunction*%
%TD*%
M02*
