%TF.GenerationSoftware,KiCad,Pcbnew,8.0.1*%
%TF.CreationDate,2024-05-22T11:23:23+02:00*%
%TF.ProjectId,Master,4d617374-6572-42e6-9b69-6361645f7063,rev?*%
%TF.SameCoordinates,Original*%
%TF.FileFunction,Plated,1,2,PTH,Drill*%
%TF.FilePolarity,Positive*%
%FSLAX46Y46*%
G04 Gerber Fmt 4.6, Leading zero omitted, Abs format (unit mm)*
G04 Created by KiCad (PCBNEW 8.0.1) date 2024-05-22 11:23:23*
%MOMM*%
%LPD*%
G01*
G04 APERTURE LIST*
%TA.AperFunction,ViaDrill*%
%ADD10C,0.400000*%
%TD*%
%TA.AperFunction,ComponentDrill*%
%ADD11C,0.950000*%
%TD*%
%TA.AperFunction,ComponentDrill*%
%ADD12C,1.000000*%
%TD*%
%TA.AperFunction,ComponentDrill*%
%ADD13C,1.016000*%
%TD*%
G04 APERTURE END LIST*
D10*
X122500000Y-129500000D03*
X122500000Y-144500000D03*
X143500000Y-129500000D03*
X143500000Y-144500000D03*
X154500000Y-65500000D03*
X156500000Y-129500000D03*
X162877734Y-129665937D03*
X164832110Y-125925165D03*
X174000000Y-65500000D03*
X181000000Y-129500000D03*
X185000000Y-124000000D03*
X189000000Y-124000000D03*
X189954140Y-72685543D03*
X189979257Y-75228163D03*
X190000000Y-129500000D03*
X190500000Y-81500000D03*
X192500000Y-65500000D03*
X196000000Y-94500000D03*
X196000000Y-104500000D03*
X204996592Y-73983633D03*
X205038077Y-77177928D03*
X207000000Y-72000000D03*
D11*
%TO.C,J6*%
X156500000Y-143000000D03*
X159000000Y-143000000D03*
X161500000Y-143000000D03*
X164000000Y-143000000D03*
%TO.C,J1*%
X198500000Y-71500000D03*
X198500000Y-74000000D03*
X198500000Y-76500000D03*
X198500000Y-79000000D03*
X198500000Y-81500000D03*
X198500000Y-84000000D03*
X198500000Y-86500000D03*
%TO.C,J2*%
X198525000Y-112000000D03*
X198525000Y-114500000D03*
X198525000Y-117000000D03*
X198525000Y-119500000D03*
X198525000Y-122000000D03*
X198525000Y-124500000D03*
X198525000Y-127000000D03*
D12*
%TO.C,J3*%
X98500000Y-57500000D03*
X98500000Y-60000000D03*
D13*
%TO.C,A1*%
X99796000Y-120600000D03*
X102336000Y-120600000D03*
X104876000Y-120600000D03*
X107416000Y-120600000D03*
X108940000Y-72340000D03*
X109956000Y-120600000D03*
X111480000Y-72340000D03*
X112496000Y-120600000D03*
X114020000Y-72340000D03*
X115036000Y-120600000D03*
X116560000Y-72340000D03*
X117576000Y-120600000D03*
X119100000Y-72340000D03*
X120116000Y-120600000D03*
X121640000Y-72340000D03*
X122656000Y-120600000D03*
X124180000Y-72340000D03*
X126720000Y-72340000D03*
X126720000Y-120600000D03*
X129260000Y-120600000D03*
X131800000Y-72340000D03*
X131800000Y-120600000D03*
X134340000Y-72340000D03*
X134340000Y-120600000D03*
X136880000Y-72340000D03*
X136880000Y-120600000D03*
X139420000Y-72340000D03*
X139420000Y-120600000D03*
X141960000Y-72340000D03*
X141960000Y-120600000D03*
X144500000Y-72340000D03*
X144500000Y-120600000D03*
X147040000Y-72340000D03*
X149580000Y-72340000D03*
X149580000Y-120600000D03*
X152120000Y-120600000D03*
X154660000Y-72340000D03*
X154660000Y-120600000D03*
X157200000Y-72340000D03*
X157200000Y-120600000D03*
X159740000Y-72340000D03*
X159740000Y-120600000D03*
X162280000Y-72340000D03*
X162280000Y-120600000D03*
X164820000Y-72340000D03*
X164820000Y-120600000D03*
X167360000Y-72340000D03*
X167360000Y-120600000D03*
X169900000Y-72340000D03*
X172440000Y-72340000D03*
X174980000Y-77420000D03*
X174980000Y-79960000D03*
X174980000Y-82500000D03*
X174980000Y-85040000D03*
X174980000Y-87580000D03*
X174980000Y-90120000D03*
X174980000Y-92660000D03*
X174980000Y-95200000D03*
X174980000Y-97740000D03*
X174980000Y-100280000D03*
X174980000Y-102820000D03*
X174980000Y-105360000D03*
X174980000Y-107900000D03*
X174980000Y-110440000D03*
X174980000Y-112980000D03*
X174980000Y-115520000D03*
X174980000Y-118060000D03*
X174980000Y-120600000D03*
X177520000Y-77420000D03*
X177520000Y-79960000D03*
X177520000Y-82500000D03*
X177520000Y-85040000D03*
X177520000Y-87580000D03*
X177520000Y-90120000D03*
X177520000Y-92660000D03*
X177520000Y-95200000D03*
X177520000Y-97740000D03*
X177520000Y-100280000D03*
X177520000Y-102820000D03*
X177520000Y-105360000D03*
X177520000Y-107900000D03*
X177520000Y-110440000D03*
X177520000Y-112980000D03*
X177520000Y-115520000D03*
X177520000Y-118060000D03*
X177520000Y-120600000D03*
M02*
