%TF.GenerationSoftware,KiCad,Pcbnew,8.0.1*%
%TF.CreationDate,2024-05-22T11:11:56+02:00*%
%TF.ProjectId,Slave,536c6176-652e-46b6-9963-61645f706362,rev?*%
%TF.SameCoordinates,Original*%
%TF.FileFunction,Plated,1,2,PTH,Drill*%
%TF.FilePolarity,Positive*%
%FSLAX46Y46*%
G04 Gerber Fmt 4.6, Leading zero omitted, Abs format (unit mm)*
G04 Created by KiCad (PCBNEW 8.0.1) date 2024-05-22 11:11:56*
%MOMM*%
%LPD*%
G01*
G04 APERTURE LIST*
%TA.AperFunction,ViaDrill*%
%ADD10C,0.400000*%
%TD*%
%TA.AperFunction,ComponentDrill*%
%ADD11C,0.950000*%
%TD*%
%TA.AperFunction,ViaDrill*%
%ADD12C,1.000000*%
%TD*%
%TA.AperFunction,ComponentDrill*%
%ADD13C,1.000000*%
%TD*%
G04 APERTURE END LIST*
D10*
X117500000Y-89500000D03*
X117500000Y-94500000D03*
X117600000Y-60500000D03*
X117600000Y-67000000D03*
X120000000Y-94000000D03*
X141000000Y-79000000D03*
X144500000Y-79000000D03*
D11*
%TO.C,J3*%
X110000000Y-58000000D03*
X110000000Y-60500000D03*
X110000000Y-63000000D03*
X110000000Y-65500000D03*
X110000000Y-68000000D03*
X110000000Y-70500000D03*
X110000000Y-73000000D03*
%TO.C,J1*%
X110000000Y-82000000D03*
X110000000Y-84500000D03*
X110000000Y-87000000D03*
X110000000Y-89500000D03*
X110000000Y-92000000D03*
X110000000Y-94500000D03*
X110000000Y-97000000D03*
%TO.C,J6*%
X156000000Y-74500000D03*
X156000000Y-77000000D03*
X156000000Y-79500000D03*
X156000000Y-82000000D03*
%TD*%
D12*
X105000000Y-63500000D03*
X115500000Y-76000000D03*
X151000000Y-85500000D03*
D13*
%TO.C,A1*%
X122500000Y-65440000D03*
X122500000Y-67980000D03*
X122500000Y-70520000D03*
X122500000Y-73060000D03*
X122500000Y-75600000D03*
X122500000Y-78140000D03*
X122500000Y-80680000D03*
X122500000Y-83220000D03*
X122500000Y-85760000D03*
X122500000Y-88300000D03*
X122500000Y-90840000D03*
X122500000Y-93380000D03*
X122500000Y-95920000D03*
X122500000Y-98460000D03*
X122500000Y-101000000D03*
X137740000Y-65440000D03*
X137740000Y-67980000D03*
X137740000Y-70520000D03*
X137740000Y-73060000D03*
X137740000Y-75600000D03*
X137740000Y-78140000D03*
X137740000Y-80680000D03*
X137740000Y-83220000D03*
X137740000Y-85760000D03*
X137740000Y-88300000D03*
X137740000Y-90840000D03*
X137740000Y-93380000D03*
X137740000Y-95920000D03*
X137740000Y-98460000D03*
X137740000Y-101000000D03*
%TO.C,J2*%
X154000000Y-59000000D03*
X156500000Y-59000000D03*
M02*
