%TF.GenerationSoftware,KiCad,Pcbnew,8.0.1*%
%TF.CreationDate,2024-05-22T11:11:13+02:00*%
%TF.ProjectId,Slave,536c6176-652e-46b6-9963-61645f706362,rev?*%
%TF.SameCoordinates,Original*%
%TF.FileFunction,Soldermask,Bot*%
%TF.FilePolarity,Negative*%
%FSLAX46Y46*%
G04 Gerber Fmt 4.6, Leading zero omitted, Abs format (unit mm)*
G04 Created by KiCad (PCBNEW 8.0.1) date 2024-05-22 11:11:13*
%MOMM*%
%LPD*%
G01*
G04 APERTURE LIST*
G04 Aperture macros list*
%AMRoundRect*
0 Rectangle with rounded corners*
0 $1 Rounding radius*
0 $2 $3 $4 $5 $6 $7 $8 $9 X,Y pos of 4 corners*
0 Add a 4 corners polygon primitive as box body*
4,1,4,$2,$3,$4,$5,$6,$7,$8,$9,$2,$3,0*
0 Add four circle primitives for the rounded corners*
1,1,$1+$1,$2,$3*
1,1,$1+$1,$4,$5*
1,1,$1+$1,$6,$7*
1,1,$1+$1,$8,$9*
0 Add four rect primitives between the rounded corners*
20,1,$1+$1,$2,$3,$4,$5,0*
20,1,$1+$1,$4,$5,$6,$7,0*
20,1,$1+$1,$6,$7,$8,$9,0*
20,1,$1+$1,$8,$9,$2,$3,0*%
G04 Aperture macros list end*
%ADD10RoundRect,0.250000X-0.600000X-0.750000X0.600000X-0.750000X0.600000X0.750000X-0.600000X0.750000X0*%
%ADD11O,1.700000X2.000000*%
%ADD12RoundRect,0.250000X-0.725000X0.600000X-0.725000X-0.600000X0.725000X-0.600000X0.725000X0.600000X0*%
%ADD13O,1.950000X1.700000*%
%ADD14R,1.600000X1.600000*%
%ADD15O,1.600000X1.600000*%
%ADD16RoundRect,0.250000X0.725000X-0.600000X0.725000X0.600000X-0.725000X0.600000X-0.725000X-0.600000X0*%
G04 APERTURE END LIST*
D10*
%TO.C,J2*%
X154000000Y-59000000D03*
D11*
X156500000Y-59000000D03*
%TD*%
D12*
%TO.C,J6*%
X156000000Y-74500000D03*
D13*
X156000000Y-77000000D03*
X156000000Y-79500000D03*
X156000000Y-82000000D03*
%TD*%
D14*
%TO.C,A1*%
X122500000Y-65440000D03*
D15*
X122500000Y-67980000D03*
X122500000Y-70520000D03*
X122500000Y-73060000D03*
X122500000Y-75600000D03*
X122500000Y-78140000D03*
X122500000Y-80680000D03*
X122500000Y-83220000D03*
X122500000Y-85760000D03*
X122500000Y-88300000D03*
X122500000Y-90840000D03*
X122500000Y-93380000D03*
X122500000Y-95920000D03*
X122500000Y-98460000D03*
X122500000Y-101000000D03*
X137740000Y-101000000D03*
X137740000Y-98460000D03*
X137740000Y-95920000D03*
X137740000Y-93380000D03*
X137740000Y-90840000D03*
X137740000Y-88300000D03*
X137740000Y-85760000D03*
X137740000Y-83220000D03*
X137740000Y-80680000D03*
X137740000Y-78140000D03*
X137740000Y-75600000D03*
X137740000Y-73060000D03*
X137740000Y-70520000D03*
X137740000Y-67980000D03*
X137740000Y-65440000D03*
%TD*%
D16*
%TO.C,J1*%
X110000000Y-97000000D03*
D13*
X110000000Y-94500000D03*
X110000000Y-92000000D03*
X110000000Y-89500000D03*
X110000000Y-87000000D03*
X110000000Y-84500000D03*
X110000000Y-82000000D03*
%TD*%
D16*
%TO.C,J3*%
X110000000Y-73000000D03*
D13*
X110000000Y-70500000D03*
X110000000Y-68000000D03*
X110000000Y-65500000D03*
X110000000Y-63000000D03*
X110000000Y-60500000D03*
X110000000Y-58000000D03*
%TD*%
M02*
