%TF.GenerationSoftware,KiCad,Pcbnew,8.0.1*%
%TF.CreationDate,2024-05-22T11:11:13+02:00*%
%TF.ProjectId,Slave,536c6176-652e-46b6-9963-61645f706362,rev?*%
%TF.SameCoordinates,Original*%
%TF.FileFunction,Legend,Top*%
%TF.FilePolarity,Positive*%
%FSLAX46Y46*%
G04 Gerber Fmt 4.6, Leading zero omitted, Abs format (unit mm)*
G04 Created by KiCad (PCBNEW 8.0.1) date 2024-05-22 11:11:13*
%MOMM*%
%LPD*%
G01*
G04 APERTURE LIST*
%ADD10C,0.150000*%
%ADD11C,0.300000*%
%ADD12C,0.250000*%
%ADD13C,0.120000*%
G04 APERTURE END LIST*
D10*
X154027255Y-70369819D02*
X154217731Y-70369819D01*
X154217731Y-70369819D02*
X154312969Y-70417438D01*
X154312969Y-70417438D02*
X154408207Y-70512676D01*
X154408207Y-70512676D02*
X154455826Y-70703152D01*
X154455826Y-70703152D02*
X154455826Y-71036485D01*
X154455826Y-71036485D02*
X154408207Y-71226961D01*
X154408207Y-71226961D02*
X154312969Y-71322200D01*
X154312969Y-71322200D02*
X154217731Y-71369819D01*
X154217731Y-71369819D02*
X154027255Y-71369819D01*
X154027255Y-71369819D02*
X153932017Y-71322200D01*
X153932017Y-71322200D02*
X153836779Y-71226961D01*
X153836779Y-71226961D02*
X153789160Y-71036485D01*
X153789160Y-71036485D02*
X153789160Y-70703152D01*
X153789160Y-70703152D02*
X153836779Y-70512676D01*
X153836779Y-70512676D02*
X153932017Y-70417438D01*
X153932017Y-70417438D02*
X154027255Y-70369819D01*
X155360588Y-71369819D02*
X154884398Y-71369819D01*
X154884398Y-71369819D02*
X154884398Y-70369819D01*
X155693922Y-70846009D02*
X156027255Y-70846009D01*
X156170112Y-71369819D02*
X155693922Y-71369819D01*
X155693922Y-71369819D02*
X155693922Y-70369819D01*
X155693922Y-70369819D02*
X156170112Y-70369819D01*
X156598684Y-71369819D02*
X156598684Y-70369819D01*
X156598684Y-70369819D02*
X156836779Y-70369819D01*
X156836779Y-70369819D02*
X156979636Y-70417438D01*
X156979636Y-70417438D02*
X157074874Y-70512676D01*
X157074874Y-70512676D02*
X157122493Y-70607914D01*
X157122493Y-70607914D02*
X157170112Y-70798390D01*
X157170112Y-70798390D02*
X157170112Y-70941247D01*
X157170112Y-70941247D02*
X157122493Y-71131723D01*
X157122493Y-71131723D02*
X157074874Y-71226961D01*
X157074874Y-71226961D02*
X156979636Y-71322200D01*
X156979636Y-71322200D02*
X156836779Y-71369819D01*
X156836779Y-71369819D02*
X156598684Y-71369819D01*
X115136779Y-87088866D02*
X115898684Y-87088866D01*
X114389160Y-95022200D02*
X114532017Y-95069819D01*
X114532017Y-95069819D02*
X114770112Y-95069819D01*
X114770112Y-95069819D02*
X114865350Y-95022200D01*
X114865350Y-95022200D02*
X114912969Y-94974580D01*
X114912969Y-94974580D02*
X114960588Y-94879342D01*
X114960588Y-94879342D02*
X114960588Y-94784104D01*
X114960588Y-94784104D02*
X114912969Y-94688866D01*
X114912969Y-94688866D02*
X114865350Y-94641247D01*
X114865350Y-94641247D02*
X114770112Y-94593628D01*
X114770112Y-94593628D02*
X114579636Y-94546009D01*
X114579636Y-94546009D02*
X114484398Y-94498390D01*
X114484398Y-94498390D02*
X114436779Y-94450771D01*
X114436779Y-94450771D02*
X114389160Y-94355533D01*
X114389160Y-94355533D02*
X114389160Y-94260295D01*
X114389160Y-94260295D02*
X114436779Y-94165057D01*
X114436779Y-94165057D02*
X114484398Y-94117438D01*
X114484398Y-94117438D02*
X114579636Y-94069819D01*
X114579636Y-94069819D02*
X114817731Y-94069819D01*
X114817731Y-94069819D02*
X114960588Y-94117438D01*
X115960588Y-94974580D02*
X115912969Y-95022200D01*
X115912969Y-95022200D02*
X115770112Y-95069819D01*
X115770112Y-95069819D02*
X115674874Y-95069819D01*
X115674874Y-95069819D02*
X115532017Y-95022200D01*
X115532017Y-95022200D02*
X115436779Y-94926961D01*
X115436779Y-94926961D02*
X115389160Y-94831723D01*
X115389160Y-94831723D02*
X115341541Y-94641247D01*
X115341541Y-94641247D02*
X115341541Y-94498390D01*
X115341541Y-94498390D02*
X115389160Y-94307914D01*
X115389160Y-94307914D02*
X115436779Y-94212676D01*
X115436779Y-94212676D02*
X115532017Y-94117438D01*
X115532017Y-94117438D02*
X115674874Y-94069819D01*
X115674874Y-94069819D02*
X115770112Y-94069819D01*
X115770112Y-94069819D02*
X115912969Y-94117438D01*
X115912969Y-94117438D02*
X115960588Y-94165057D01*
X116389160Y-95069819D02*
X116389160Y-94069819D01*
X116960588Y-95069819D02*
X116532017Y-94498390D01*
X116960588Y-94069819D02*
X116389160Y-94641247D01*
X114689160Y-89922200D02*
X114832017Y-89969819D01*
X114832017Y-89969819D02*
X115070112Y-89969819D01*
X115070112Y-89969819D02*
X115165350Y-89922200D01*
X115165350Y-89922200D02*
X115212969Y-89874580D01*
X115212969Y-89874580D02*
X115260588Y-89779342D01*
X115260588Y-89779342D02*
X115260588Y-89684104D01*
X115260588Y-89684104D02*
X115212969Y-89588866D01*
X115212969Y-89588866D02*
X115165350Y-89541247D01*
X115165350Y-89541247D02*
X115070112Y-89493628D01*
X115070112Y-89493628D02*
X114879636Y-89446009D01*
X114879636Y-89446009D02*
X114784398Y-89398390D01*
X114784398Y-89398390D02*
X114736779Y-89350771D01*
X114736779Y-89350771D02*
X114689160Y-89255533D01*
X114689160Y-89255533D02*
X114689160Y-89160295D01*
X114689160Y-89160295D02*
X114736779Y-89065057D01*
X114736779Y-89065057D02*
X114784398Y-89017438D01*
X114784398Y-89017438D02*
X114879636Y-88969819D01*
X114879636Y-88969819D02*
X115117731Y-88969819D01*
X115117731Y-88969819D02*
X115260588Y-89017438D01*
X115879636Y-88969819D02*
X116070112Y-88969819D01*
X116070112Y-88969819D02*
X116165350Y-89017438D01*
X116165350Y-89017438D02*
X116260588Y-89112676D01*
X116260588Y-89112676D02*
X116308207Y-89303152D01*
X116308207Y-89303152D02*
X116308207Y-89636485D01*
X116308207Y-89636485D02*
X116260588Y-89826961D01*
X116260588Y-89826961D02*
X116165350Y-89922200D01*
X116165350Y-89922200D02*
X116070112Y-89969819D01*
X116070112Y-89969819D02*
X115879636Y-89969819D01*
X115879636Y-89969819D02*
X115784398Y-89922200D01*
X115784398Y-89922200D02*
X115689160Y-89826961D01*
X115689160Y-89826961D02*
X115641541Y-89636485D01*
X115641541Y-89636485D02*
X115641541Y-89303152D01*
X115641541Y-89303152D02*
X115689160Y-89112676D01*
X115689160Y-89112676D02*
X115784398Y-89017438D01*
X115784398Y-89017438D02*
X115879636Y-88969819D01*
D11*
X132483082Y-47653587D02*
X131292606Y-47653587D01*
X131292606Y-47653587D02*
X131292606Y-45153587D01*
X133197368Y-46939301D02*
X134387844Y-46939301D01*
X132959273Y-47653587D02*
X133792606Y-45153587D01*
X133792606Y-45153587D02*
X134625939Y-47653587D01*
X135459273Y-47653587D02*
X135459273Y-45153587D01*
X135459273Y-45153587D02*
X136887844Y-47653587D01*
X136887844Y-47653587D02*
X136887844Y-45153587D01*
X137959273Y-45391682D02*
X138078321Y-45272635D01*
X138078321Y-45272635D02*
X138316416Y-45153587D01*
X138316416Y-45153587D02*
X138911654Y-45153587D01*
X138911654Y-45153587D02*
X139149749Y-45272635D01*
X139149749Y-45272635D02*
X139268797Y-45391682D01*
X139268797Y-45391682D02*
X139387844Y-45629778D01*
X139387844Y-45629778D02*
X139387844Y-45867873D01*
X139387844Y-45867873D02*
X139268797Y-46225016D01*
X139268797Y-46225016D02*
X137840225Y-47653587D01*
X137840225Y-47653587D02*
X139387844Y-47653587D01*
X141887844Y-47415492D02*
X141768796Y-47534540D01*
X141768796Y-47534540D02*
X141411654Y-47653587D01*
X141411654Y-47653587D02*
X141173558Y-47653587D01*
X141173558Y-47653587D02*
X140816415Y-47534540D01*
X140816415Y-47534540D02*
X140578320Y-47296444D01*
X140578320Y-47296444D02*
X140459273Y-47058349D01*
X140459273Y-47058349D02*
X140340225Y-46582159D01*
X140340225Y-46582159D02*
X140340225Y-46225016D01*
X140340225Y-46225016D02*
X140459273Y-45748825D01*
X140459273Y-45748825D02*
X140578320Y-45510730D01*
X140578320Y-45510730D02*
X140816415Y-45272635D01*
X140816415Y-45272635D02*
X141173558Y-45153587D01*
X141173558Y-45153587D02*
X141411654Y-45153587D01*
X141411654Y-45153587D02*
X141768796Y-45272635D01*
X141768796Y-45272635D02*
X141887844Y-45391682D01*
X142840225Y-46939301D02*
X144030701Y-46939301D01*
X142602130Y-47653587D02*
X143435463Y-45153587D01*
X143435463Y-45153587D02*
X144268796Y-47653587D01*
X145102130Y-47653587D02*
X145102130Y-45153587D01*
X145102130Y-45153587D02*
X146530701Y-47653587D01*
X146530701Y-47653587D02*
X146530701Y-45153587D01*
X131173558Y-51559400D02*
X131530701Y-51678447D01*
X131530701Y-51678447D02*
X132125939Y-51678447D01*
X132125939Y-51678447D02*
X132364034Y-51559400D01*
X132364034Y-51559400D02*
X132483082Y-51440352D01*
X132483082Y-51440352D02*
X132602129Y-51202257D01*
X132602129Y-51202257D02*
X132602129Y-50964161D01*
X132602129Y-50964161D02*
X132483082Y-50726066D01*
X132483082Y-50726066D02*
X132364034Y-50607019D01*
X132364034Y-50607019D02*
X132125939Y-50487971D01*
X132125939Y-50487971D02*
X131649748Y-50368923D01*
X131649748Y-50368923D02*
X131411653Y-50249876D01*
X131411653Y-50249876D02*
X131292606Y-50130828D01*
X131292606Y-50130828D02*
X131173558Y-49892733D01*
X131173558Y-49892733D02*
X131173558Y-49654638D01*
X131173558Y-49654638D02*
X131292606Y-49416542D01*
X131292606Y-49416542D02*
X131411653Y-49297495D01*
X131411653Y-49297495D02*
X131649748Y-49178447D01*
X131649748Y-49178447D02*
X132244987Y-49178447D01*
X132244987Y-49178447D02*
X132602129Y-49297495D01*
X134864034Y-51678447D02*
X133673558Y-51678447D01*
X133673558Y-51678447D02*
X133673558Y-49178447D01*
X135578320Y-50964161D02*
X136768796Y-50964161D01*
X135340225Y-51678447D02*
X136173558Y-49178447D01*
X136173558Y-49178447D02*
X137006891Y-51678447D01*
X137483082Y-49178447D02*
X138316415Y-51678447D01*
X138316415Y-51678447D02*
X139149748Y-49178447D01*
X139983082Y-50368923D02*
X140816415Y-50368923D01*
X141173558Y-51678447D02*
X139983082Y-51678447D01*
X139983082Y-51678447D02*
X139983082Y-49178447D01*
X139983082Y-49178447D02*
X141173558Y-49178447D01*
D10*
X153586393Y-55297234D02*
X154348298Y-55297234D01*
X153967345Y-55678187D02*
X153967345Y-54916282D01*
X156182381Y-55297234D02*
X156944286Y-55297234D01*
X114489160Y-61022200D02*
X114632017Y-61069819D01*
X114632017Y-61069819D02*
X114870112Y-61069819D01*
X114870112Y-61069819D02*
X114965350Y-61022200D01*
X114965350Y-61022200D02*
X115012969Y-60974580D01*
X115012969Y-60974580D02*
X115060588Y-60879342D01*
X115060588Y-60879342D02*
X115060588Y-60784104D01*
X115060588Y-60784104D02*
X115012969Y-60688866D01*
X115012969Y-60688866D02*
X114965350Y-60641247D01*
X114965350Y-60641247D02*
X114870112Y-60593628D01*
X114870112Y-60593628D02*
X114679636Y-60546009D01*
X114679636Y-60546009D02*
X114584398Y-60498390D01*
X114584398Y-60498390D02*
X114536779Y-60450771D01*
X114536779Y-60450771D02*
X114489160Y-60355533D01*
X114489160Y-60355533D02*
X114489160Y-60260295D01*
X114489160Y-60260295D02*
X114536779Y-60165057D01*
X114536779Y-60165057D02*
X114584398Y-60117438D01*
X114584398Y-60117438D02*
X114679636Y-60069819D01*
X114679636Y-60069819D02*
X114917731Y-60069819D01*
X114917731Y-60069819D02*
X115060588Y-60117438D01*
X116060588Y-60974580D02*
X116012969Y-61022200D01*
X116012969Y-61022200D02*
X115870112Y-61069819D01*
X115870112Y-61069819D02*
X115774874Y-61069819D01*
X115774874Y-61069819D02*
X115632017Y-61022200D01*
X115632017Y-61022200D02*
X115536779Y-60926961D01*
X115536779Y-60926961D02*
X115489160Y-60831723D01*
X115489160Y-60831723D02*
X115441541Y-60641247D01*
X115441541Y-60641247D02*
X115441541Y-60498390D01*
X115441541Y-60498390D02*
X115489160Y-60307914D01*
X115489160Y-60307914D02*
X115536779Y-60212676D01*
X115536779Y-60212676D02*
X115632017Y-60117438D01*
X115632017Y-60117438D02*
X115774874Y-60069819D01*
X115774874Y-60069819D02*
X115870112Y-60069819D01*
X115870112Y-60069819D02*
X116012969Y-60117438D01*
X116012969Y-60117438D02*
X116060588Y-60165057D01*
X116489160Y-61069819D02*
X116489160Y-60069819D01*
X117060588Y-61069819D02*
X116632017Y-60498390D01*
X117060588Y-60069819D02*
X116489160Y-60641247D01*
X149245409Y-79918033D02*
X149388266Y-79965652D01*
X149388266Y-79965652D02*
X149626361Y-79965652D01*
X149626361Y-79965652D02*
X149721599Y-79918033D01*
X149721599Y-79918033D02*
X149769218Y-79870413D01*
X149769218Y-79870413D02*
X149816837Y-79775175D01*
X149816837Y-79775175D02*
X149816837Y-79679937D01*
X149816837Y-79679937D02*
X149769218Y-79584699D01*
X149769218Y-79584699D02*
X149721599Y-79537080D01*
X149721599Y-79537080D02*
X149626361Y-79489461D01*
X149626361Y-79489461D02*
X149435885Y-79441842D01*
X149435885Y-79441842D02*
X149340647Y-79394223D01*
X149340647Y-79394223D02*
X149293028Y-79346604D01*
X149293028Y-79346604D02*
X149245409Y-79251366D01*
X149245409Y-79251366D02*
X149245409Y-79156128D01*
X149245409Y-79156128D02*
X149293028Y-79060890D01*
X149293028Y-79060890D02*
X149340647Y-79013271D01*
X149340647Y-79013271D02*
X149435885Y-78965652D01*
X149435885Y-78965652D02*
X149673980Y-78965652D01*
X149673980Y-78965652D02*
X149816837Y-79013271D01*
X150816837Y-79870413D02*
X150769218Y-79918033D01*
X150769218Y-79918033D02*
X150626361Y-79965652D01*
X150626361Y-79965652D02*
X150531123Y-79965652D01*
X150531123Y-79965652D02*
X150388266Y-79918033D01*
X150388266Y-79918033D02*
X150293028Y-79822794D01*
X150293028Y-79822794D02*
X150245409Y-79727556D01*
X150245409Y-79727556D02*
X150197790Y-79537080D01*
X150197790Y-79537080D02*
X150197790Y-79394223D01*
X150197790Y-79394223D02*
X150245409Y-79203747D01*
X150245409Y-79203747D02*
X150293028Y-79108509D01*
X150293028Y-79108509D02*
X150388266Y-79013271D01*
X150388266Y-79013271D02*
X150531123Y-78965652D01*
X150531123Y-78965652D02*
X150626361Y-78965652D01*
X150626361Y-78965652D02*
X150769218Y-79013271D01*
X150769218Y-79013271D02*
X150816837Y-79060890D01*
X151721599Y-79965652D02*
X151245409Y-79965652D01*
X151245409Y-79965652D02*
X151245409Y-78965652D01*
X114789931Y-63653950D02*
X114932788Y-63701569D01*
X114932788Y-63701569D02*
X115170883Y-63701569D01*
X115170883Y-63701569D02*
X115266121Y-63653950D01*
X115266121Y-63653950D02*
X115313740Y-63606330D01*
X115313740Y-63606330D02*
X115361359Y-63511092D01*
X115361359Y-63511092D02*
X115361359Y-63415854D01*
X115361359Y-63415854D02*
X115313740Y-63320616D01*
X115313740Y-63320616D02*
X115266121Y-63272997D01*
X115266121Y-63272997D02*
X115170883Y-63225378D01*
X115170883Y-63225378D02*
X114980407Y-63177759D01*
X114980407Y-63177759D02*
X114885169Y-63130140D01*
X114885169Y-63130140D02*
X114837550Y-63082521D01*
X114837550Y-63082521D02*
X114789931Y-62987283D01*
X114789931Y-62987283D02*
X114789931Y-62892045D01*
X114789931Y-62892045D02*
X114837550Y-62796807D01*
X114837550Y-62796807D02*
X114885169Y-62749188D01*
X114885169Y-62749188D02*
X114980407Y-62701569D01*
X114980407Y-62701569D02*
X115218502Y-62701569D01*
X115218502Y-62701569D02*
X115361359Y-62749188D01*
X115789931Y-63701569D02*
X115789931Y-62701569D01*
X114736779Y-58669819D02*
X114736779Y-57669819D01*
X115212969Y-58669819D02*
X115212969Y-57669819D01*
X115212969Y-57669819D02*
X115784397Y-58669819D01*
X115784397Y-58669819D02*
X115784397Y-57669819D01*
X116117731Y-57669819D02*
X116689159Y-57669819D01*
X116403445Y-58669819D02*
X116403445Y-57669819D01*
X114837550Y-70409661D02*
X115599455Y-70409661D01*
X114908207Y-85169819D02*
X114574874Y-84693628D01*
X114336779Y-85169819D02*
X114336779Y-84169819D01*
X114336779Y-84169819D02*
X114717731Y-84169819D01*
X114717731Y-84169819D02*
X114812969Y-84217438D01*
X114812969Y-84217438D02*
X114860588Y-84265057D01*
X114860588Y-84265057D02*
X114908207Y-84360295D01*
X114908207Y-84360295D02*
X114908207Y-84503152D01*
X114908207Y-84503152D02*
X114860588Y-84598390D01*
X114860588Y-84598390D02*
X114812969Y-84646009D01*
X114812969Y-84646009D02*
X114717731Y-84693628D01*
X114717731Y-84693628D02*
X114336779Y-84693628D01*
X115289160Y-85122200D02*
X115432017Y-85169819D01*
X115432017Y-85169819D02*
X115670112Y-85169819D01*
X115670112Y-85169819D02*
X115765350Y-85122200D01*
X115765350Y-85122200D02*
X115812969Y-85074580D01*
X115812969Y-85074580D02*
X115860588Y-84979342D01*
X115860588Y-84979342D02*
X115860588Y-84884104D01*
X115860588Y-84884104D02*
X115812969Y-84788866D01*
X115812969Y-84788866D02*
X115765350Y-84741247D01*
X115765350Y-84741247D02*
X115670112Y-84693628D01*
X115670112Y-84693628D02*
X115479636Y-84646009D01*
X115479636Y-84646009D02*
X115384398Y-84598390D01*
X115384398Y-84598390D02*
X115336779Y-84550771D01*
X115336779Y-84550771D02*
X115289160Y-84455533D01*
X115289160Y-84455533D02*
X115289160Y-84360295D01*
X115289160Y-84360295D02*
X115336779Y-84265057D01*
X115336779Y-84265057D02*
X115384398Y-84217438D01*
X115384398Y-84217438D02*
X115479636Y-84169819D01*
X115479636Y-84169819D02*
X115717731Y-84169819D01*
X115717731Y-84169819D02*
X115860588Y-84217438D01*
X116146303Y-84169819D02*
X116717731Y-84169819D01*
X116432017Y-85169819D02*
X116432017Y-84169819D01*
X114889160Y-92422200D02*
X115032017Y-92469819D01*
X115032017Y-92469819D02*
X115270112Y-92469819D01*
X115270112Y-92469819D02*
X115365350Y-92422200D01*
X115365350Y-92422200D02*
X115412969Y-92374580D01*
X115412969Y-92374580D02*
X115460588Y-92279342D01*
X115460588Y-92279342D02*
X115460588Y-92184104D01*
X115460588Y-92184104D02*
X115412969Y-92088866D01*
X115412969Y-92088866D02*
X115365350Y-92041247D01*
X115365350Y-92041247D02*
X115270112Y-91993628D01*
X115270112Y-91993628D02*
X115079636Y-91946009D01*
X115079636Y-91946009D02*
X114984398Y-91898390D01*
X114984398Y-91898390D02*
X114936779Y-91850771D01*
X114936779Y-91850771D02*
X114889160Y-91755533D01*
X114889160Y-91755533D02*
X114889160Y-91660295D01*
X114889160Y-91660295D02*
X114936779Y-91565057D01*
X114936779Y-91565057D02*
X114984398Y-91517438D01*
X114984398Y-91517438D02*
X115079636Y-91469819D01*
X115079636Y-91469819D02*
X115317731Y-91469819D01*
X115317731Y-91469819D02*
X115460588Y-91517438D01*
X115889160Y-92469819D02*
X115889160Y-91469819D01*
X115262670Y-73279848D02*
X115262670Y-72517944D01*
X115643623Y-72898896D02*
X114881718Y-72898896D01*
X114540317Y-66100170D02*
X114683174Y-66147789D01*
X114683174Y-66147789D02*
X114921269Y-66147789D01*
X114921269Y-66147789D02*
X115016507Y-66100170D01*
X115016507Y-66100170D02*
X115064126Y-66052550D01*
X115064126Y-66052550D02*
X115111745Y-65957312D01*
X115111745Y-65957312D02*
X115111745Y-65862074D01*
X115111745Y-65862074D02*
X115064126Y-65766836D01*
X115064126Y-65766836D02*
X115016507Y-65719217D01*
X115016507Y-65719217D02*
X114921269Y-65671598D01*
X114921269Y-65671598D02*
X114730793Y-65623979D01*
X114730793Y-65623979D02*
X114635555Y-65576360D01*
X114635555Y-65576360D02*
X114587936Y-65528741D01*
X114587936Y-65528741D02*
X114540317Y-65433503D01*
X114540317Y-65433503D02*
X114540317Y-65338265D01*
X114540317Y-65338265D02*
X114587936Y-65243027D01*
X114587936Y-65243027D02*
X114635555Y-65195408D01*
X114635555Y-65195408D02*
X114730793Y-65147789D01*
X114730793Y-65147789D02*
X114968888Y-65147789D01*
X114968888Y-65147789D02*
X115111745Y-65195408D01*
X115730793Y-65147789D02*
X115921269Y-65147789D01*
X115921269Y-65147789D02*
X116016507Y-65195408D01*
X116016507Y-65195408D02*
X116111745Y-65290646D01*
X116111745Y-65290646D02*
X116159364Y-65481122D01*
X116159364Y-65481122D02*
X116159364Y-65814455D01*
X116159364Y-65814455D02*
X116111745Y-66004931D01*
X116111745Y-66004931D02*
X116016507Y-66100170D01*
X116016507Y-66100170D02*
X115921269Y-66147789D01*
X115921269Y-66147789D02*
X115730793Y-66147789D01*
X115730793Y-66147789D02*
X115635555Y-66100170D01*
X115635555Y-66100170D02*
X115540317Y-66004931D01*
X115540317Y-66004931D02*
X115492698Y-65814455D01*
X115492698Y-65814455D02*
X115492698Y-65481122D01*
X115492698Y-65481122D02*
X115540317Y-65290646D01*
X115540317Y-65290646D02*
X115635555Y-65195408D01*
X115635555Y-65195408D02*
X115730793Y-65147789D01*
X109808207Y-78569819D02*
X109474874Y-78093628D01*
X109236779Y-78569819D02*
X109236779Y-77569819D01*
X109236779Y-77569819D02*
X109617731Y-77569819D01*
X109617731Y-77569819D02*
X109712969Y-77617438D01*
X109712969Y-77617438D02*
X109760588Y-77665057D01*
X109760588Y-77665057D02*
X109808207Y-77760295D01*
X109808207Y-77760295D02*
X109808207Y-77903152D01*
X109808207Y-77903152D02*
X109760588Y-77998390D01*
X109760588Y-77998390D02*
X109712969Y-78046009D01*
X109712969Y-78046009D02*
X109617731Y-78093628D01*
X109617731Y-78093628D02*
X109236779Y-78093628D01*
X110570112Y-78046009D02*
X110236779Y-78046009D01*
X110236779Y-78569819D02*
X110236779Y-77569819D01*
X110236779Y-77569819D02*
X110712969Y-77569819D01*
X111093922Y-78569819D02*
X111093922Y-77569819D01*
X111570112Y-78569819D02*
X111570112Y-77569819D01*
X111570112Y-77569819D02*
X111808207Y-77569819D01*
X111808207Y-77569819D02*
X111951064Y-77617438D01*
X111951064Y-77617438D02*
X112046302Y-77712676D01*
X112046302Y-77712676D02*
X112093921Y-77807914D01*
X112093921Y-77807914D02*
X112141540Y-77998390D01*
X112141540Y-77998390D02*
X112141540Y-78141247D01*
X112141540Y-78141247D02*
X112093921Y-78331723D01*
X112093921Y-78331723D02*
X112046302Y-78426961D01*
X112046302Y-78426961D02*
X111951064Y-78522200D01*
X111951064Y-78522200D02*
X111808207Y-78569819D01*
X111808207Y-78569819D02*
X111570112Y-78569819D01*
X150615607Y-76538630D02*
X150615607Y-77300535D01*
X150234654Y-76919582D02*
X150996559Y-76919582D01*
X149220447Y-82489060D02*
X149363304Y-82536679D01*
X149363304Y-82536679D02*
X149601399Y-82536679D01*
X149601399Y-82536679D02*
X149696637Y-82489060D01*
X149696637Y-82489060D02*
X149744256Y-82441440D01*
X149744256Y-82441440D02*
X149791875Y-82346202D01*
X149791875Y-82346202D02*
X149791875Y-82250964D01*
X149791875Y-82250964D02*
X149744256Y-82155726D01*
X149744256Y-82155726D02*
X149696637Y-82108107D01*
X149696637Y-82108107D02*
X149601399Y-82060488D01*
X149601399Y-82060488D02*
X149410923Y-82012869D01*
X149410923Y-82012869D02*
X149315685Y-81965250D01*
X149315685Y-81965250D02*
X149268066Y-81917631D01*
X149268066Y-81917631D02*
X149220447Y-81822393D01*
X149220447Y-81822393D02*
X149220447Y-81727155D01*
X149220447Y-81727155D02*
X149268066Y-81631917D01*
X149268066Y-81631917D02*
X149315685Y-81584298D01*
X149315685Y-81584298D02*
X149410923Y-81536679D01*
X149410923Y-81536679D02*
X149649018Y-81536679D01*
X149649018Y-81536679D02*
X149791875Y-81584298D01*
X150220447Y-82536679D02*
X150220447Y-81536679D01*
X150220447Y-81536679D02*
X150458542Y-81536679D01*
X150458542Y-81536679D02*
X150601399Y-81584298D01*
X150601399Y-81584298D02*
X150696637Y-81679536D01*
X150696637Y-81679536D02*
X150744256Y-81774774D01*
X150744256Y-81774774D02*
X150791875Y-81965250D01*
X150791875Y-81965250D02*
X150791875Y-82108107D01*
X150791875Y-82108107D02*
X150744256Y-82298583D01*
X150744256Y-82298583D02*
X150696637Y-82393821D01*
X150696637Y-82393821D02*
X150601399Y-82489060D01*
X150601399Y-82489060D02*
X150458542Y-82536679D01*
X150458542Y-82536679D02*
X150220447Y-82536679D01*
X151172828Y-82250964D02*
X151649018Y-82250964D01*
X151077590Y-82536679D02*
X151410923Y-81536679D01*
X151410923Y-81536679D02*
X151744256Y-82536679D01*
X114389160Y-97522200D02*
X114532017Y-97569819D01*
X114532017Y-97569819D02*
X114770112Y-97569819D01*
X114770112Y-97569819D02*
X114865350Y-97522200D01*
X114865350Y-97522200D02*
X114912969Y-97474580D01*
X114912969Y-97474580D02*
X114960588Y-97379342D01*
X114960588Y-97379342D02*
X114960588Y-97284104D01*
X114960588Y-97284104D02*
X114912969Y-97188866D01*
X114912969Y-97188866D02*
X114865350Y-97141247D01*
X114865350Y-97141247D02*
X114770112Y-97093628D01*
X114770112Y-97093628D02*
X114579636Y-97046009D01*
X114579636Y-97046009D02*
X114484398Y-96998390D01*
X114484398Y-96998390D02*
X114436779Y-96950771D01*
X114436779Y-96950771D02*
X114389160Y-96855533D01*
X114389160Y-96855533D02*
X114389160Y-96760295D01*
X114389160Y-96760295D02*
X114436779Y-96665057D01*
X114436779Y-96665057D02*
X114484398Y-96617438D01*
X114484398Y-96617438D02*
X114579636Y-96569819D01*
X114579636Y-96569819D02*
X114817731Y-96569819D01*
X114817731Y-96569819D02*
X114960588Y-96617438D01*
X115389160Y-97569819D02*
X115389160Y-96569819D01*
X115389160Y-96569819D02*
X115627255Y-96569819D01*
X115627255Y-96569819D02*
X115770112Y-96617438D01*
X115770112Y-96617438D02*
X115865350Y-96712676D01*
X115865350Y-96712676D02*
X115912969Y-96807914D01*
X115912969Y-96807914D02*
X115960588Y-96998390D01*
X115960588Y-96998390D02*
X115960588Y-97141247D01*
X115960588Y-97141247D02*
X115912969Y-97331723D01*
X115912969Y-97331723D02*
X115865350Y-97426961D01*
X115865350Y-97426961D02*
X115770112Y-97522200D01*
X115770112Y-97522200D02*
X115627255Y-97569819D01*
X115627255Y-97569819D02*
X115389160Y-97569819D01*
X116341541Y-97284104D02*
X116817731Y-97284104D01*
X116246303Y-97569819D02*
X116579636Y-96569819D01*
X116579636Y-96569819D02*
X116912969Y-97569819D01*
D12*
X144335901Y-110540809D02*
X144478758Y-110588428D01*
X144478758Y-110588428D02*
X144526377Y-110636047D01*
X144526377Y-110636047D02*
X144573996Y-110731285D01*
X144573996Y-110731285D02*
X144573996Y-110874142D01*
X144573996Y-110874142D02*
X144526377Y-110969380D01*
X144526377Y-110969380D02*
X144478758Y-111017000D01*
X144478758Y-111017000D02*
X144383520Y-111064619D01*
X144383520Y-111064619D02*
X144002568Y-111064619D01*
X144002568Y-111064619D02*
X144002568Y-110064619D01*
X144002568Y-110064619D02*
X144335901Y-110064619D01*
X144335901Y-110064619D02*
X144431139Y-110112238D01*
X144431139Y-110112238D02*
X144478758Y-110159857D01*
X144478758Y-110159857D02*
X144526377Y-110255095D01*
X144526377Y-110255095D02*
X144526377Y-110350333D01*
X144526377Y-110350333D02*
X144478758Y-110445571D01*
X144478758Y-110445571D02*
X144431139Y-110493190D01*
X144431139Y-110493190D02*
X144335901Y-110540809D01*
X144335901Y-110540809D02*
X144002568Y-110540809D01*
X144954949Y-111017000D02*
X145097806Y-111064619D01*
X145097806Y-111064619D02*
X145335901Y-111064619D01*
X145335901Y-111064619D02*
X145431139Y-111017000D01*
X145431139Y-111017000D02*
X145478758Y-110969380D01*
X145478758Y-110969380D02*
X145526377Y-110874142D01*
X145526377Y-110874142D02*
X145526377Y-110778904D01*
X145526377Y-110778904D02*
X145478758Y-110683666D01*
X145478758Y-110683666D02*
X145431139Y-110636047D01*
X145431139Y-110636047D02*
X145335901Y-110588428D01*
X145335901Y-110588428D02*
X145145425Y-110540809D01*
X145145425Y-110540809D02*
X145050187Y-110493190D01*
X145050187Y-110493190D02*
X145002568Y-110445571D01*
X145002568Y-110445571D02*
X144954949Y-110350333D01*
X144954949Y-110350333D02*
X144954949Y-110255095D01*
X144954949Y-110255095D02*
X145002568Y-110159857D01*
X145002568Y-110159857D02*
X145050187Y-110112238D01*
X145050187Y-110112238D02*
X145145425Y-110064619D01*
X145145425Y-110064619D02*
X145383520Y-110064619D01*
X145383520Y-110064619D02*
X145526377Y-110112238D01*
X145907330Y-111017000D02*
X146050187Y-111064619D01*
X146050187Y-111064619D02*
X146288282Y-111064619D01*
X146288282Y-111064619D02*
X146383520Y-111017000D01*
X146383520Y-111017000D02*
X146431139Y-110969380D01*
X146431139Y-110969380D02*
X146478758Y-110874142D01*
X146478758Y-110874142D02*
X146478758Y-110778904D01*
X146478758Y-110778904D02*
X146431139Y-110683666D01*
X146431139Y-110683666D02*
X146383520Y-110636047D01*
X146383520Y-110636047D02*
X146288282Y-110588428D01*
X146288282Y-110588428D02*
X146097806Y-110540809D01*
X146097806Y-110540809D02*
X146002568Y-110493190D01*
X146002568Y-110493190D02*
X145954949Y-110445571D01*
X145954949Y-110445571D02*
X145907330Y-110350333D01*
X145907330Y-110350333D02*
X145907330Y-110255095D01*
X145907330Y-110255095D02*
X145954949Y-110159857D01*
X145954949Y-110159857D02*
X146002568Y-110112238D01*
X146002568Y-110112238D02*
X146097806Y-110064619D01*
X146097806Y-110064619D02*
X146335901Y-110064619D01*
X146335901Y-110064619D02*
X146478758Y-110112238D01*
X147669235Y-111064619D02*
X147669235Y-110064619D01*
X147669235Y-110064619D02*
X148050187Y-110064619D01*
X148050187Y-110064619D02*
X148145425Y-110112238D01*
X148145425Y-110112238D02*
X148193044Y-110159857D01*
X148193044Y-110159857D02*
X148240663Y-110255095D01*
X148240663Y-110255095D02*
X148240663Y-110397952D01*
X148240663Y-110397952D02*
X148193044Y-110493190D01*
X148193044Y-110493190D02*
X148145425Y-110540809D01*
X148145425Y-110540809D02*
X148050187Y-110588428D01*
X148050187Y-110588428D02*
X147669235Y-110588428D01*
X148669235Y-111064619D02*
X148669235Y-110397952D01*
X148669235Y-110588428D02*
X148716854Y-110493190D01*
X148716854Y-110493190D02*
X148764473Y-110445571D01*
X148764473Y-110445571D02*
X148859711Y-110397952D01*
X148859711Y-110397952D02*
X148954949Y-110397952D01*
X149716854Y-111064619D02*
X149716854Y-110540809D01*
X149716854Y-110540809D02*
X149669235Y-110445571D01*
X149669235Y-110445571D02*
X149573997Y-110397952D01*
X149573997Y-110397952D02*
X149383521Y-110397952D01*
X149383521Y-110397952D02*
X149288283Y-110445571D01*
X149716854Y-111017000D02*
X149621616Y-111064619D01*
X149621616Y-111064619D02*
X149383521Y-111064619D01*
X149383521Y-111064619D02*
X149288283Y-111017000D01*
X149288283Y-111017000D02*
X149240664Y-110921761D01*
X149240664Y-110921761D02*
X149240664Y-110826523D01*
X149240664Y-110826523D02*
X149288283Y-110731285D01*
X149288283Y-110731285D02*
X149383521Y-110683666D01*
X149383521Y-110683666D02*
X149621616Y-110683666D01*
X149621616Y-110683666D02*
X149716854Y-110636047D01*
X150193045Y-111064619D02*
X150193045Y-110064619D01*
X150621616Y-111064619D02*
X150621616Y-110540809D01*
X150621616Y-110540809D02*
X150573997Y-110445571D01*
X150573997Y-110445571D02*
X150478759Y-110397952D01*
X150478759Y-110397952D02*
X150335902Y-110397952D01*
X150335902Y-110397952D02*
X150240664Y-110445571D01*
X150240664Y-110445571D02*
X150193045Y-110493190D01*
X151526378Y-111064619D02*
X151526378Y-110540809D01*
X151526378Y-110540809D02*
X151478759Y-110445571D01*
X151478759Y-110445571D02*
X151383521Y-110397952D01*
X151383521Y-110397952D02*
X151193045Y-110397952D01*
X151193045Y-110397952D02*
X151097807Y-110445571D01*
X151526378Y-111017000D02*
X151431140Y-111064619D01*
X151431140Y-111064619D02*
X151193045Y-111064619D01*
X151193045Y-111064619D02*
X151097807Y-111017000D01*
X151097807Y-111017000D02*
X151050188Y-110921761D01*
X151050188Y-110921761D02*
X151050188Y-110826523D01*
X151050188Y-110826523D02*
X151097807Y-110731285D01*
X151097807Y-110731285D02*
X151193045Y-110683666D01*
X151193045Y-110683666D02*
X151431140Y-110683666D01*
X151431140Y-110683666D02*
X151526378Y-110636047D01*
D10*
X150688866Y-74663220D02*
X150688866Y-73901316D01*
X115108207Y-68374580D02*
X115060588Y-68422200D01*
X115060588Y-68422200D02*
X114917731Y-68469819D01*
X114917731Y-68469819D02*
X114822493Y-68469819D01*
X114822493Y-68469819D02*
X114679636Y-68422200D01*
X114679636Y-68422200D02*
X114584398Y-68326961D01*
X114584398Y-68326961D02*
X114536779Y-68231723D01*
X114536779Y-68231723D02*
X114489160Y-68041247D01*
X114489160Y-68041247D02*
X114489160Y-67898390D01*
X114489160Y-67898390D02*
X114536779Y-67707914D01*
X114536779Y-67707914D02*
X114584398Y-67612676D01*
X114584398Y-67612676D02*
X114679636Y-67517438D01*
X114679636Y-67517438D02*
X114822493Y-67469819D01*
X114822493Y-67469819D02*
X114917731Y-67469819D01*
X114917731Y-67469819D02*
X115060588Y-67517438D01*
X115060588Y-67517438D02*
X115108207Y-67565057D01*
X115489160Y-68422200D02*
X115632017Y-68469819D01*
X115632017Y-68469819D02*
X115870112Y-68469819D01*
X115870112Y-68469819D02*
X115965350Y-68422200D01*
X115965350Y-68422200D02*
X116012969Y-68374580D01*
X116012969Y-68374580D02*
X116060588Y-68279342D01*
X116060588Y-68279342D02*
X116060588Y-68184104D01*
X116060588Y-68184104D02*
X116012969Y-68088866D01*
X116012969Y-68088866D02*
X115965350Y-68041247D01*
X115965350Y-68041247D02*
X115870112Y-67993628D01*
X115870112Y-67993628D02*
X115679636Y-67946009D01*
X115679636Y-67946009D02*
X115584398Y-67898390D01*
X115584398Y-67898390D02*
X115536779Y-67850771D01*
X115536779Y-67850771D02*
X115489160Y-67755533D01*
X115489160Y-67755533D02*
X115489160Y-67660295D01*
X115489160Y-67660295D02*
X115536779Y-67565057D01*
X115536779Y-67565057D02*
X115584398Y-67517438D01*
X115584398Y-67517438D02*
X115679636Y-67469819D01*
X115679636Y-67469819D02*
X115917731Y-67469819D01*
X115917731Y-67469819D02*
X116060588Y-67517438D01*
X115511133Y-81736779D02*
X115511133Y-82498684D01*
X115130180Y-82117731D02*
X115892085Y-82117731D01*
X108108207Y-54174580D02*
X108060588Y-54222200D01*
X108060588Y-54222200D02*
X107917731Y-54269819D01*
X107917731Y-54269819D02*
X107822493Y-54269819D01*
X107822493Y-54269819D02*
X107679636Y-54222200D01*
X107679636Y-54222200D02*
X107584398Y-54126961D01*
X107584398Y-54126961D02*
X107536779Y-54031723D01*
X107536779Y-54031723D02*
X107489160Y-53841247D01*
X107489160Y-53841247D02*
X107489160Y-53698390D01*
X107489160Y-53698390D02*
X107536779Y-53507914D01*
X107536779Y-53507914D02*
X107584398Y-53412676D01*
X107584398Y-53412676D02*
X107679636Y-53317438D01*
X107679636Y-53317438D02*
X107822493Y-53269819D01*
X107822493Y-53269819D02*
X107917731Y-53269819D01*
X107917731Y-53269819D02*
X108060588Y-53317438D01*
X108060588Y-53317438D02*
X108108207Y-53365057D01*
X108489160Y-53984104D02*
X108965350Y-53984104D01*
X108393922Y-54269819D02*
X108727255Y-53269819D01*
X108727255Y-53269819D02*
X109060588Y-54269819D01*
X109393922Y-54269819D02*
X109393922Y-53269819D01*
X109393922Y-53269819D02*
X109965350Y-54269819D01*
X109965350Y-54269819D02*
X109965350Y-53269819D01*
X111536779Y-53746009D02*
X111679636Y-53793628D01*
X111679636Y-53793628D02*
X111727255Y-53841247D01*
X111727255Y-53841247D02*
X111774874Y-53936485D01*
X111774874Y-53936485D02*
X111774874Y-54079342D01*
X111774874Y-54079342D02*
X111727255Y-54174580D01*
X111727255Y-54174580D02*
X111679636Y-54222200D01*
X111679636Y-54222200D02*
X111584398Y-54269819D01*
X111584398Y-54269819D02*
X111203446Y-54269819D01*
X111203446Y-54269819D02*
X111203446Y-53269819D01*
X111203446Y-53269819D02*
X111536779Y-53269819D01*
X111536779Y-53269819D02*
X111632017Y-53317438D01*
X111632017Y-53317438D02*
X111679636Y-53365057D01*
X111679636Y-53365057D02*
X111727255Y-53460295D01*
X111727255Y-53460295D02*
X111727255Y-53555533D01*
X111727255Y-53555533D02*
X111679636Y-53650771D01*
X111679636Y-53650771D02*
X111632017Y-53698390D01*
X111632017Y-53698390D02*
X111536779Y-53746009D01*
X111536779Y-53746009D02*
X111203446Y-53746009D01*
X112203446Y-53269819D02*
X112203446Y-54079342D01*
X112203446Y-54079342D02*
X112251065Y-54174580D01*
X112251065Y-54174580D02*
X112298684Y-54222200D01*
X112298684Y-54222200D02*
X112393922Y-54269819D01*
X112393922Y-54269819D02*
X112584398Y-54269819D01*
X112584398Y-54269819D02*
X112679636Y-54222200D01*
X112679636Y-54222200D02*
X112727255Y-54174580D01*
X112727255Y-54174580D02*
X112774874Y-54079342D01*
X112774874Y-54079342D02*
X112774874Y-53269819D01*
X113203446Y-54222200D02*
X113346303Y-54269819D01*
X113346303Y-54269819D02*
X113584398Y-54269819D01*
X113584398Y-54269819D02*
X113679636Y-54222200D01*
X113679636Y-54222200D02*
X113727255Y-54174580D01*
X113727255Y-54174580D02*
X113774874Y-54079342D01*
X113774874Y-54079342D02*
X113774874Y-53984104D01*
X113774874Y-53984104D02*
X113727255Y-53888866D01*
X113727255Y-53888866D02*
X113679636Y-53841247D01*
X113679636Y-53841247D02*
X113584398Y-53793628D01*
X113584398Y-53793628D02*
X113393922Y-53746009D01*
X113393922Y-53746009D02*
X113298684Y-53698390D01*
X113298684Y-53698390D02*
X113251065Y-53650771D01*
X113251065Y-53650771D02*
X113203446Y-53555533D01*
X113203446Y-53555533D02*
X113203446Y-53460295D01*
X113203446Y-53460295D02*
X113251065Y-53365057D01*
X113251065Y-53365057D02*
X113298684Y-53317438D01*
X113298684Y-53317438D02*
X113393922Y-53269819D01*
X113393922Y-53269819D02*
X113632017Y-53269819D01*
X113632017Y-53269819D02*
X113774874Y-53317438D01*
X153859580Y-96309524D02*
X153907200Y-96357143D01*
X153907200Y-96357143D02*
X153954819Y-96500000D01*
X153954819Y-96500000D02*
X153954819Y-96595238D01*
X153954819Y-96595238D02*
X153907200Y-96738095D01*
X153907200Y-96738095D02*
X153811961Y-96833333D01*
X153811961Y-96833333D02*
X153716723Y-96880952D01*
X153716723Y-96880952D02*
X153526247Y-96928571D01*
X153526247Y-96928571D02*
X153383390Y-96928571D01*
X153383390Y-96928571D02*
X153192914Y-96880952D01*
X153192914Y-96880952D02*
X153097676Y-96833333D01*
X153097676Y-96833333D02*
X153002438Y-96738095D01*
X153002438Y-96738095D02*
X152954819Y-96595238D01*
X152954819Y-96595238D02*
X152954819Y-96500000D01*
X152954819Y-96500000D02*
X153002438Y-96357143D01*
X153002438Y-96357143D02*
X153050057Y-96309524D01*
X153669104Y-95928571D02*
X153669104Y-95452381D01*
X153954819Y-96023809D02*
X152954819Y-95690476D01*
X152954819Y-95690476D02*
X153954819Y-95357143D01*
X153954819Y-95023809D02*
X152954819Y-95023809D01*
X152954819Y-95023809D02*
X153954819Y-94452381D01*
X153954819Y-94452381D02*
X152954819Y-94452381D01*
X153954819Y-92738095D02*
X153954819Y-93214285D01*
X153954819Y-93214285D02*
X152954819Y-93214285D01*
X153907200Y-92023809D02*
X153954819Y-92119047D01*
X153954819Y-92119047D02*
X153954819Y-92309523D01*
X153954819Y-92309523D02*
X153907200Y-92404761D01*
X153907200Y-92404761D02*
X153811961Y-92452380D01*
X153811961Y-92452380D02*
X153431009Y-92452380D01*
X153431009Y-92452380D02*
X153335771Y-92404761D01*
X153335771Y-92404761D02*
X153288152Y-92309523D01*
X153288152Y-92309523D02*
X153288152Y-92119047D01*
X153288152Y-92119047D02*
X153335771Y-92023809D01*
X153335771Y-92023809D02*
X153431009Y-91976190D01*
X153431009Y-91976190D02*
X153526247Y-91976190D01*
X153526247Y-91976190D02*
X153621485Y-92452380D01*
X153954819Y-91119047D02*
X152954819Y-91119047D01*
X153907200Y-91119047D02*
X153954819Y-91214285D01*
X153954819Y-91214285D02*
X153954819Y-91404761D01*
X153954819Y-91404761D02*
X153907200Y-91499999D01*
X153907200Y-91499999D02*
X153859580Y-91547618D01*
X153859580Y-91547618D02*
X153764342Y-91595237D01*
X153764342Y-91595237D02*
X153478628Y-91595237D01*
X153478628Y-91595237D02*
X153383390Y-91547618D01*
X153383390Y-91547618D02*
X153335771Y-91499999D01*
X153335771Y-91499999D02*
X153288152Y-91404761D01*
X153288152Y-91404761D02*
X153288152Y-91214285D01*
X153288152Y-91214285D02*
X153335771Y-91119047D01*
X128858095Y-100454819D02*
X128858095Y-101264342D01*
X128858095Y-101264342D02*
X128905714Y-101359580D01*
X128905714Y-101359580D02*
X128953333Y-101407200D01*
X128953333Y-101407200D02*
X129048571Y-101454819D01*
X129048571Y-101454819D02*
X129239047Y-101454819D01*
X129239047Y-101454819D02*
X129334285Y-101407200D01*
X129334285Y-101407200D02*
X129381904Y-101359580D01*
X129381904Y-101359580D02*
X129429523Y-101264342D01*
X129429523Y-101264342D02*
X129429523Y-100454819D01*
X129858095Y-101407200D02*
X130000952Y-101454819D01*
X130000952Y-101454819D02*
X130239047Y-101454819D01*
X130239047Y-101454819D02*
X130334285Y-101407200D01*
X130334285Y-101407200D02*
X130381904Y-101359580D01*
X130381904Y-101359580D02*
X130429523Y-101264342D01*
X130429523Y-101264342D02*
X130429523Y-101169104D01*
X130429523Y-101169104D02*
X130381904Y-101073866D01*
X130381904Y-101073866D02*
X130334285Y-101026247D01*
X130334285Y-101026247D02*
X130239047Y-100978628D01*
X130239047Y-100978628D02*
X130048571Y-100931009D01*
X130048571Y-100931009D02*
X129953333Y-100883390D01*
X129953333Y-100883390D02*
X129905714Y-100835771D01*
X129905714Y-100835771D02*
X129858095Y-100740533D01*
X129858095Y-100740533D02*
X129858095Y-100645295D01*
X129858095Y-100645295D02*
X129905714Y-100550057D01*
X129905714Y-100550057D02*
X129953333Y-100502438D01*
X129953333Y-100502438D02*
X130048571Y-100454819D01*
X130048571Y-100454819D02*
X130286666Y-100454819D01*
X130286666Y-100454819D02*
X130429523Y-100502438D01*
X131191428Y-100931009D02*
X131334285Y-100978628D01*
X131334285Y-100978628D02*
X131381904Y-101026247D01*
X131381904Y-101026247D02*
X131429523Y-101121485D01*
X131429523Y-101121485D02*
X131429523Y-101264342D01*
X131429523Y-101264342D02*
X131381904Y-101359580D01*
X131381904Y-101359580D02*
X131334285Y-101407200D01*
X131334285Y-101407200D02*
X131239047Y-101454819D01*
X131239047Y-101454819D02*
X130858095Y-101454819D01*
X130858095Y-101454819D02*
X130858095Y-100454819D01*
X130858095Y-100454819D02*
X131191428Y-100454819D01*
X131191428Y-100454819D02*
X131286666Y-100502438D01*
X131286666Y-100502438D02*
X131334285Y-100550057D01*
X131334285Y-100550057D02*
X131381904Y-100645295D01*
X131381904Y-100645295D02*
X131381904Y-100740533D01*
X131381904Y-100740533D02*
X131334285Y-100835771D01*
X131334285Y-100835771D02*
X131286666Y-100883390D01*
X131286666Y-100883390D02*
X131191428Y-100931009D01*
X131191428Y-100931009D02*
X130858095Y-100931009D01*
X150813333Y-69859580D02*
X150765714Y-69907200D01*
X150765714Y-69907200D02*
X150622857Y-69954819D01*
X150622857Y-69954819D02*
X150527619Y-69954819D01*
X150527619Y-69954819D02*
X150384762Y-69907200D01*
X150384762Y-69907200D02*
X150289524Y-69811961D01*
X150289524Y-69811961D02*
X150241905Y-69716723D01*
X150241905Y-69716723D02*
X150194286Y-69526247D01*
X150194286Y-69526247D02*
X150194286Y-69383390D01*
X150194286Y-69383390D02*
X150241905Y-69192914D01*
X150241905Y-69192914D02*
X150289524Y-69097676D01*
X150289524Y-69097676D02*
X150384762Y-69002438D01*
X150384762Y-69002438D02*
X150527619Y-68954819D01*
X150527619Y-68954819D02*
X150622857Y-68954819D01*
X150622857Y-68954819D02*
X150765714Y-69002438D01*
X150765714Y-69002438D02*
X150813333Y-69050057D01*
X151765714Y-69954819D02*
X151194286Y-69954819D01*
X151480000Y-69954819D02*
X151480000Y-68954819D01*
X151480000Y-68954819D02*
X151384762Y-69097676D01*
X151384762Y-69097676D02*
X151289524Y-69192914D01*
X151289524Y-69192914D02*
X151194286Y-69240533D01*
X147333333Y-99454819D02*
X147000000Y-98978628D01*
X146761905Y-99454819D02*
X146761905Y-98454819D01*
X146761905Y-98454819D02*
X147142857Y-98454819D01*
X147142857Y-98454819D02*
X147238095Y-98502438D01*
X147238095Y-98502438D02*
X147285714Y-98550057D01*
X147285714Y-98550057D02*
X147333333Y-98645295D01*
X147333333Y-98645295D02*
X147333333Y-98788152D01*
X147333333Y-98788152D02*
X147285714Y-98883390D01*
X147285714Y-98883390D02*
X147238095Y-98931009D01*
X147238095Y-98931009D02*
X147142857Y-98978628D01*
X147142857Y-98978628D02*
X146761905Y-98978628D01*
X147714286Y-98550057D02*
X147761905Y-98502438D01*
X147761905Y-98502438D02*
X147857143Y-98454819D01*
X147857143Y-98454819D02*
X148095238Y-98454819D01*
X148095238Y-98454819D02*
X148190476Y-98502438D01*
X148190476Y-98502438D02*
X148238095Y-98550057D01*
X148238095Y-98550057D02*
X148285714Y-98645295D01*
X148285714Y-98645295D02*
X148285714Y-98740533D01*
X148285714Y-98740533D02*
X148238095Y-98883390D01*
X148238095Y-98883390D02*
X147666667Y-99454819D01*
X147666667Y-99454819D02*
X148285714Y-99454819D01*
X147823333Y-69859580D02*
X147775714Y-69907200D01*
X147775714Y-69907200D02*
X147632857Y-69954819D01*
X147632857Y-69954819D02*
X147537619Y-69954819D01*
X147537619Y-69954819D02*
X147394762Y-69907200D01*
X147394762Y-69907200D02*
X147299524Y-69811961D01*
X147299524Y-69811961D02*
X147251905Y-69716723D01*
X147251905Y-69716723D02*
X147204286Y-69526247D01*
X147204286Y-69526247D02*
X147204286Y-69383390D01*
X147204286Y-69383390D02*
X147251905Y-69192914D01*
X147251905Y-69192914D02*
X147299524Y-69097676D01*
X147299524Y-69097676D02*
X147394762Y-69002438D01*
X147394762Y-69002438D02*
X147537619Y-68954819D01*
X147537619Y-68954819D02*
X147632857Y-68954819D01*
X147632857Y-68954819D02*
X147775714Y-69002438D01*
X147775714Y-69002438D02*
X147823333Y-69050057D01*
X148204286Y-69050057D02*
X148251905Y-69002438D01*
X148251905Y-69002438D02*
X148347143Y-68954819D01*
X148347143Y-68954819D02*
X148585238Y-68954819D01*
X148585238Y-68954819D02*
X148680476Y-69002438D01*
X148680476Y-69002438D02*
X148728095Y-69050057D01*
X148728095Y-69050057D02*
X148775714Y-69145295D01*
X148775714Y-69145295D02*
X148775714Y-69240533D01*
X148775714Y-69240533D02*
X148728095Y-69383390D01*
X148728095Y-69383390D02*
X148156667Y-69954819D01*
X148156667Y-69954819D02*
X148775714Y-69954819D01*
X146954819Y-96523809D02*
X146478628Y-96857142D01*
X146954819Y-97095237D02*
X145954819Y-97095237D01*
X145954819Y-97095237D02*
X145954819Y-96714285D01*
X145954819Y-96714285D02*
X146002438Y-96619047D01*
X146002438Y-96619047D02*
X146050057Y-96571428D01*
X146050057Y-96571428D02*
X146145295Y-96523809D01*
X146145295Y-96523809D02*
X146288152Y-96523809D01*
X146288152Y-96523809D02*
X146383390Y-96571428D01*
X146383390Y-96571428D02*
X146431009Y-96619047D01*
X146431009Y-96619047D02*
X146478628Y-96714285D01*
X146478628Y-96714285D02*
X146478628Y-97095237D01*
X146431009Y-95761904D02*
X146431009Y-96095237D01*
X146954819Y-96095237D02*
X145954819Y-96095237D01*
X145954819Y-96095237D02*
X145954819Y-95619047D01*
X146954819Y-95238094D02*
X145954819Y-95238094D01*
X146954819Y-94761904D02*
X145954819Y-94761904D01*
X145954819Y-94761904D02*
X145954819Y-94523809D01*
X145954819Y-94523809D02*
X146002438Y-94380952D01*
X146002438Y-94380952D02*
X146097676Y-94285714D01*
X146097676Y-94285714D02*
X146192914Y-94238095D01*
X146192914Y-94238095D02*
X146383390Y-94190476D01*
X146383390Y-94190476D02*
X146526247Y-94190476D01*
X146526247Y-94190476D02*
X146716723Y-94238095D01*
X146716723Y-94238095D02*
X146811961Y-94285714D01*
X146811961Y-94285714D02*
X146907200Y-94380952D01*
X146907200Y-94380952D02*
X146954819Y-94523809D01*
X146954819Y-94523809D02*
X146954819Y-94761904D01*
X146954819Y-92523809D02*
X146954819Y-92999999D01*
X146954819Y-92999999D02*
X145954819Y-92999999D01*
X146907200Y-91809523D02*
X146954819Y-91904761D01*
X146954819Y-91904761D02*
X146954819Y-92095237D01*
X146954819Y-92095237D02*
X146907200Y-92190475D01*
X146907200Y-92190475D02*
X146811961Y-92238094D01*
X146811961Y-92238094D02*
X146431009Y-92238094D01*
X146431009Y-92238094D02*
X146335771Y-92190475D01*
X146335771Y-92190475D02*
X146288152Y-92095237D01*
X146288152Y-92095237D02*
X146288152Y-91904761D01*
X146288152Y-91904761D02*
X146335771Y-91809523D01*
X146335771Y-91809523D02*
X146431009Y-91761904D01*
X146431009Y-91761904D02*
X146526247Y-91761904D01*
X146526247Y-91761904D02*
X146621485Y-92238094D01*
X146954819Y-90904761D02*
X145954819Y-90904761D01*
X146907200Y-90904761D02*
X146954819Y-90999999D01*
X146954819Y-90999999D02*
X146954819Y-91190475D01*
X146954819Y-91190475D02*
X146907200Y-91285713D01*
X146907200Y-91285713D02*
X146859580Y-91333332D01*
X146859580Y-91333332D02*
X146764342Y-91380951D01*
X146764342Y-91380951D02*
X146478628Y-91380951D01*
X146478628Y-91380951D02*
X146383390Y-91333332D01*
X146383390Y-91333332D02*
X146335771Y-91285713D01*
X146335771Y-91285713D02*
X146288152Y-91190475D01*
X146288152Y-91190475D02*
X146288152Y-90999999D01*
X146288152Y-90999999D02*
X146335771Y-90904761D01*
X140333333Y-98954819D02*
X140000000Y-98478628D01*
X139761905Y-98954819D02*
X139761905Y-97954819D01*
X139761905Y-97954819D02*
X140142857Y-97954819D01*
X140142857Y-97954819D02*
X140238095Y-98002438D01*
X140238095Y-98002438D02*
X140285714Y-98050057D01*
X140285714Y-98050057D02*
X140333333Y-98145295D01*
X140333333Y-98145295D02*
X140333333Y-98288152D01*
X140333333Y-98288152D02*
X140285714Y-98383390D01*
X140285714Y-98383390D02*
X140238095Y-98431009D01*
X140238095Y-98431009D02*
X140142857Y-98478628D01*
X140142857Y-98478628D02*
X139761905Y-98478628D01*
X141285714Y-98954819D02*
X140714286Y-98954819D01*
X141000000Y-98954819D02*
X141000000Y-97954819D01*
X141000000Y-97954819D02*
X140904762Y-98097676D01*
X140904762Y-98097676D02*
X140809524Y-98192914D01*
X140809524Y-98192914D02*
X140714286Y-98240533D01*
X144833333Y-69859580D02*
X144785714Y-69907200D01*
X144785714Y-69907200D02*
X144642857Y-69954819D01*
X144642857Y-69954819D02*
X144547619Y-69954819D01*
X144547619Y-69954819D02*
X144404762Y-69907200D01*
X144404762Y-69907200D02*
X144309524Y-69811961D01*
X144309524Y-69811961D02*
X144261905Y-69716723D01*
X144261905Y-69716723D02*
X144214286Y-69526247D01*
X144214286Y-69526247D02*
X144214286Y-69383390D01*
X144214286Y-69383390D02*
X144261905Y-69192914D01*
X144261905Y-69192914D02*
X144309524Y-69097676D01*
X144309524Y-69097676D02*
X144404762Y-69002438D01*
X144404762Y-69002438D02*
X144547619Y-68954819D01*
X144547619Y-68954819D02*
X144642857Y-68954819D01*
X144642857Y-68954819D02*
X144785714Y-69002438D01*
X144785714Y-69002438D02*
X144833333Y-69050057D01*
X145166667Y-68954819D02*
X145785714Y-68954819D01*
X145785714Y-68954819D02*
X145452381Y-69335771D01*
X145452381Y-69335771D02*
X145595238Y-69335771D01*
X145595238Y-69335771D02*
X145690476Y-69383390D01*
X145690476Y-69383390D02*
X145738095Y-69431009D01*
X145738095Y-69431009D02*
X145785714Y-69526247D01*
X145785714Y-69526247D02*
X145785714Y-69764342D01*
X145785714Y-69764342D02*
X145738095Y-69859580D01*
X145738095Y-69859580D02*
X145690476Y-69907200D01*
X145690476Y-69907200D02*
X145595238Y-69954819D01*
X145595238Y-69954819D02*
X145309524Y-69954819D01*
X145309524Y-69954819D02*
X145214286Y-69907200D01*
X145214286Y-69907200D02*
X145166667Y-69859580D01*
X141261905Y-69954819D02*
X141261905Y-68954819D01*
X141261905Y-68954819D02*
X141500000Y-68954819D01*
X141500000Y-68954819D02*
X141642857Y-69002438D01*
X141642857Y-69002438D02*
X141738095Y-69097676D01*
X141738095Y-69097676D02*
X141785714Y-69192914D01*
X141785714Y-69192914D02*
X141833333Y-69383390D01*
X141833333Y-69383390D02*
X141833333Y-69526247D01*
X141833333Y-69526247D02*
X141785714Y-69716723D01*
X141785714Y-69716723D02*
X141738095Y-69811961D01*
X141738095Y-69811961D02*
X141642857Y-69907200D01*
X141642857Y-69907200D02*
X141500000Y-69954819D01*
X141500000Y-69954819D02*
X141261905Y-69954819D01*
X142785714Y-69954819D02*
X142214286Y-69954819D01*
X142500000Y-69954819D02*
X142500000Y-68954819D01*
X142500000Y-68954819D02*
X142404762Y-69097676D01*
X142404762Y-69097676D02*
X142309524Y-69192914D01*
X142309524Y-69192914D02*
X142214286Y-69240533D01*
D13*
%TO.C,J2*%
X151150000Y-56250000D02*
X151150000Y-57500000D01*
X151440000Y-56540000D02*
X151440000Y-62510000D01*
X151440000Y-62510000D02*
X159060000Y-62510000D01*
X151450000Y-56550000D02*
X151450000Y-57300000D01*
X151450000Y-57300000D02*
X153250000Y-57300000D01*
X151450000Y-58800000D02*
X152200000Y-58800000D01*
X152200000Y-58800000D02*
X152200000Y-61750000D01*
X152200000Y-61750000D02*
X155250000Y-61750000D01*
X152400000Y-56250000D02*
X151150000Y-56250000D01*
X153250000Y-56550000D02*
X151450000Y-56550000D01*
X153250000Y-57300000D02*
X153250000Y-56550000D01*
X154750000Y-56550000D02*
X154750000Y-57300000D01*
X154750000Y-57300000D02*
X155750000Y-57300000D01*
X155750000Y-56550000D02*
X154750000Y-56550000D01*
X155750000Y-57300000D02*
X155750000Y-56550000D01*
X157250000Y-56550000D02*
X157250000Y-57300000D01*
X157250000Y-57300000D02*
X159050000Y-57300000D01*
X158300000Y-58800000D02*
X158300000Y-61750000D01*
X158300000Y-61750000D02*
X155250000Y-61750000D01*
X159050000Y-56550000D02*
X157250000Y-56550000D01*
X159050000Y-57300000D02*
X159050000Y-56550000D01*
X159050000Y-58800000D02*
X158300000Y-58800000D01*
X159060000Y-56540000D02*
X151440000Y-56540000D01*
X159060000Y-62510000D02*
X159060000Y-56540000D01*
%TO.C,J6*%
X152490000Y-71940000D02*
X152490000Y-84560000D01*
X152490000Y-84560000D02*
X158460000Y-84560000D01*
X153250000Y-72700000D02*
X153250000Y-78250000D01*
X153250000Y-83800000D02*
X153250000Y-78250000D01*
X156200000Y-71950000D02*
X156200000Y-72700000D01*
X156200000Y-72700000D02*
X153250000Y-72700000D01*
X156200000Y-83800000D02*
X153250000Y-83800000D01*
X156200000Y-84550000D02*
X156200000Y-83800000D01*
X157700000Y-71950000D02*
X157700000Y-73750000D01*
X157700000Y-73750000D02*
X158450000Y-73750000D01*
X157700000Y-75250000D02*
X157700000Y-81250000D01*
X157700000Y-81250000D02*
X158450000Y-81250000D01*
X157700000Y-82750000D02*
X157700000Y-84550000D01*
X157700000Y-84550000D02*
X158450000Y-84550000D01*
X158450000Y-71950000D02*
X157700000Y-71950000D01*
X158450000Y-73750000D02*
X158450000Y-71950000D01*
X158450000Y-75250000D02*
X157700000Y-75250000D01*
X158450000Y-81250000D02*
X158450000Y-75250000D01*
X158450000Y-82750000D02*
X157700000Y-82750000D01*
X158450000Y-84550000D02*
X158450000Y-82750000D01*
X158460000Y-71940000D02*
X152490000Y-71940000D01*
X158460000Y-84560000D02*
X158460000Y-71940000D01*
X158750000Y-71650000D02*
X157500000Y-71650000D01*
X158750000Y-72900000D02*
X158750000Y-71650000D01*
%TO.C,CAN Led*%
X149475000Y-94960000D02*
X152335000Y-94960000D01*
X152335000Y-93040000D02*
X149475000Y-93040000D01*
X152335000Y-94960000D02*
X152335000Y-93040000D01*
%TO.C,A1*%
X121100000Y-61500000D02*
X121100000Y-64170000D01*
X121100000Y-66710000D02*
X121100000Y-104940000D01*
X121100000Y-104940000D02*
X126180000Y-104940000D01*
X123770000Y-64170000D02*
X121100000Y-64170000D01*
X123770000Y-66710000D02*
X121100000Y-66710000D01*
X123770000Y-66710000D02*
X123770000Y-64170000D01*
X123770000Y-66710000D02*
X123770000Y-102270000D01*
X123770000Y-102270000D02*
X121100000Y-102270000D01*
X126180000Y-97060000D02*
X134060000Y-97060000D01*
X126180000Y-107480000D02*
X126180000Y-97060000D01*
X134060000Y-97060000D02*
X134060000Y-107480000D01*
X134060000Y-107480000D02*
X126180000Y-107480000D01*
X136470000Y-64170000D02*
X136470000Y-102270000D01*
X136470000Y-64170000D02*
X139140000Y-64170000D01*
X136470000Y-102270000D02*
X139140000Y-102270000D01*
X139140000Y-61500000D02*
X121100000Y-61500000D01*
X139140000Y-104940000D02*
X134060000Y-104940000D01*
X139140000Y-104940000D02*
X139140000Y-61500000D01*
%TO.C,J1*%
X107250000Y-98600000D02*
X107250000Y-99850000D01*
X107250000Y-99850000D02*
X108500000Y-99850000D01*
X107540000Y-79440000D02*
X107540000Y-99560000D01*
X107540000Y-99560000D02*
X113510000Y-99560000D01*
X107550000Y-79450000D02*
X107550000Y-81250000D01*
X107550000Y-81250000D02*
X108300000Y-81250000D01*
X107550000Y-82750000D02*
X107550000Y-96250000D01*
X107550000Y-96250000D02*
X108300000Y-96250000D01*
X107550000Y-97750000D02*
X107550000Y-99550000D01*
X107550000Y-99550000D02*
X108300000Y-99550000D01*
X108300000Y-79450000D02*
X107550000Y-79450000D01*
X108300000Y-81250000D02*
X108300000Y-79450000D01*
X108300000Y-82750000D02*
X107550000Y-82750000D01*
X108300000Y-96250000D02*
X108300000Y-82750000D01*
X108300000Y-97750000D02*
X107550000Y-97750000D01*
X108300000Y-99550000D02*
X108300000Y-97750000D01*
X109800000Y-79450000D02*
X109800000Y-80200000D01*
X109800000Y-80200000D02*
X112750000Y-80200000D01*
X109800000Y-98800000D02*
X112750000Y-98800000D01*
X109800000Y-99550000D02*
X109800000Y-98800000D01*
X112750000Y-80200000D02*
X112750000Y-89500000D01*
X112750000Y-98800000D02*
X112750000Y-89500000D01*
X113510000Y-79440000D02*
X107540000Y-79440000D01*
X113510000Y-99560000D02*
X113510000Y-79440000D01*
%TO.C,C1*%
X150265000Y-66201248D02*
X150265000Y-66723752D01*
X151735000Y-66201248D02*
X151735000Y-66723752D01*
%TO.C,J3*%
X107250000Y-74600000D02*
X107250000Y-75850000D01*
X107250000Y-75850000D02*
X108500000Y-75850000D01*
X107540000Y-55440000D02*
X107540000Y-75560000D01*
X107540000Y-75560000D02*
X113510000Y-75560000D01*
X107550000Y-55450000D02*
X107550000Y-57250000D01*
X107550000Y-57250000D02*
X108300000Y-57250000D01*
X107550000Y-58750000D02*
X107550000Y-72250000D01*
X107550000Y-72250000D02*
X108300000Y-72250000D01*
X107550000Y-73750000D02*
X107550000Y-75550000D01*
X107550000Y-75550000D02*
X108300000Y-75550000D01*
X108300000Y-55450000D02*
X107550000Y-55450000D01*
X108300000Y-57250000D02*
X108300000Y-55450000D01*
X108300000Y-58750000D02*
X107550000Y-58750000D01*
X108300000Y-72250000D02*
X108300000Y-58750000D01*
X108300000Y-73750000D02*
X107550000Y-73750000D01*
X108300000Y-75550000D02*
X108300000Y-73750000D01*
X109800000Y-55450000D02*
X109800000Y-56200000D01*
X109800000Y-56200000D02*
X112750000Y-56200000D01*
X109800000Y-74800000D02*
X112750000Y-74800000D01*
X109800000Y-75550000D02*
X109800000Y-74800000D01*
X112750000Y-56200000D02*
X112750000Y-65500000D01*
X112750000Y-74800000D02*
X112750000Y-65500000D01*
X113510000Y-55440000D02*
X107540000Y-55440000D01*
X113510000Y-75560000D02*
X113510000Y-55440000D01*
%TO.C,R2*%
X150727064Y-97765000D02*
X150272936Y-97765000D01*
X150727064Y-99235000D02*
X150272936Y-99235000D01*
%TO.C,C2*%
X147265000Y-66201248D02*
X147265000Y-66723752D01*
X148735000Y-66201248D02*
X148735000Y-66723752D01*
%TO.C,RFID Led*%
X142475000Y-94960000D02*
X145335000Y-94960000D01*
X145335000Y-93040000D02*
X142475000Y-93040000D01*
X145335000Y-94960000D02*
X145335000Y-93040000D01*
%TO.C,R1*%
X143272936Y-97765000D02*
X143727064Y-97765000D01*
X143272936Y-99235000D02*
X143727064Y-99235000D01*
%TO.C,C3*%
X144265000Y-66201248D02*
X144265000Y-66723752D01*
X145735000Y-66201248D02*
X145735000Y-66723752D01*
%TO.C,D1*%
X141040000Y-65525000D02*
X141040000Y-68385000D01*
X141040000Y-68385000D02*
X142960000Y-68385000D01*
X142960000Y-68385000D02*
X142960000Y-65525000D01*
%TD*%
M02*
